<svg xmlns="http://www.w3.org/2000/svg" xmlns:xlink="http://www.w3.org/1999/xlink" xmlns:dc="http://purl.org/dc/elements/1.1/" xmlns:rdf="http://www.w3.org/1999/02/22-rdf-syntax-ns#" width="1152" height="1374" viewBox="0 10 200 200">
  <defs>
    <clipPath id="shield_968206444">
      <path d="m 25,25 v 175 l 75,-40 75,40 V 25 Z"/>
    </clipPath>
    <clipPath id="division_968206444">
      <rect x="100" y="0" width="100" height="100"/>
      <rect x="0" y="100" width="100" height="100"/>
    </clipPath>
    <radialGradient id="backlight" cx="100%" cy="100%" r="150%">
      <stop stop-color="#fff" stop-opacity=".3" offset="0"/>
      <stop stop-color="#fff" stop-opacity=".15" offset=".25"/>
      <stop stop-color="#000" stop-opacity="0" offset="1"/>
    </radialGradient>
    <g id="compassRose" stroke-width=".5" author="Azgaar" license="https://creativecommons.org/publicdomain/zero/1.0">
      <path d="M100 60l6 28 14-8-8 15 28 5-28 6 8 14-14-8-6 28-6-28-14 8 8-14-28-6 28-6-8-14 14 8z"/>
      <path fill="#000" stroke="#000" fill-opacity=".5" stroke-opacity=".2" d="M100 61v39l7-6 5 1c2.7-5 5.3-10 8-15-4.3 4.3-8.7 9.7-13 14-2.3-10.7-4.7-22.3-7-33zm0 39l7 7c10.7-2.3 21.3-4.7 32-7zm0 0l-7 7c2.3 10.7 4.7 21.3 7 32zm0 0l-7-7-32 7zm-7-7l1-5-14-8zm0 14c-1.7-.3-3.3-.7-5-1-2.7 4.7-5.3 9.3-8 14l13-13zm14 0c-.3 1.7-.7 3.3-1 5 4.7 2.7 9.3 5.3 14 8z"/>
    </g>
  </defs>
  <g clip-path="url(#shield_968206444)">
    <rect class="field" x="0" y="0" width="200" height="200" fill="#ffe066"/>
    <g class="charge" i="1" charge="compassRose" fill="#377cd7" stroke="#000">
      <use xlink:href="#compassRose" transform="translate(-4 -4) scale(1.04)"/>
    </g>
    <g class="division" clip-path="url(#division_968206444)">
      <rect x="0" y="0" width="200" height="200" fill="#377cd7"/>
      <g class="charge" i="0" charge="compassRose" fill="#ffe066" stroke="#000">
        <use xlink:href="#compassRose" transform="translate(-4 -4) scale(1.04)"/>
      </g>
    </g>
  </g>
  <path class="grad" d="m 25,25 v 175 l 75,-40 75,40 V 25 Z" fill="url(#backlight)" stroke="#333333" stroke-width="1" style="pointer-events: none;"/>
</svg>