<?xml version="1.0" encoding="utf-8"?>
<!-- Generator: Adobe Illustrator 27.1.1, SVG Export Plug-In . SVG Version: 6.00 Build 0)  -->
<svg version="1.1" id="Layer_1" xmlns="http://www.w3.org/2000/svg" xmlns:xlink="http://www.w3.org/1999/xlink" x="0px" y="0px"
	 viewBox="0 0 280 280" style="enable-background:new 0 0 280 280;" xml:space="preserve">
<style type="text/css">
	.st0{fill:#FFFFFF;}
</style>
<g>
	<path class="st0" d="M234.1,265.8c0.2-0.3,0.3-0.6,0.5-0.9c1.2-0.3,2.5-0.6,3.7-0.8c0.5-0.3,1-0.6,1.5-0.9l1.4-0.6l1.1-1l0.3,0.3
		l-1.3,1.9l3.6-0.2l0.2,0.4l-0.8,0.3l-1.4,0.2l-1.5,0.4l-1.1,0.3l-1.1,0.9l-1,0.7l-0.5,1l-0.6,1.1l0.2,1.7l1.2,1.1l0.6-0.1l1.1-0.9
		l1.4-1.3l0.7-0.8l0.4-0.8l0.6-0.8l0.8-0.4l1.4,0.1l1-0.5l1.3-0.6l1.5-0.2l1.5-0.8l1.8-0.3l0-0.4l-0.8-0.3l0.1-0.8l2.4-0.5l1.2-0.7
		l1-1.5l-0.3-0.5l-1.3-0.2l-0.2-1.3l0.4-1.3l-0.9-1l-0.9,1.3l-0.4,0.8l-0.3,0.8l-1,1.4l-0.2,2.1l-1.4,0.1l-0.3-0.5l-0.4-0.6
		l-0.4,0.5l-0.2,0.6l-1.2-0.1l-1.6-0.5l-1.3-0.3l-0.9-0.3l-0.3-1l-1.6-0.3l-0.5-1.3l-0.7-1.2l-0.2-1.1l-0.5-0.7l0.1-0.7l0.5-0.6
		l0.1-0.8l0.7-0.5v-0.5h-2l-0.7,0.9l-0.6-0.9l-1.4-0.3l-0.1-0.6l0.4-0.6l0.6-0.3l0.8,0.3l0.8,0.7l1.3-0.9l1.7-1.1l0.4-0.5l0.5-1.2
		l-1.2-1.5l-1.5-0.5l-3.4,0l-0.8,0.1l-1.9,0.9l-2.1,0.8l-2.4,1.3l-2.2,1.5l-1.3,1.5l-1.4,1.7l-1.4,1.7l-1.3,0.8l-0.3-0.4l0.6-1.3
		l1.5-1.5l1.2-1.6l0.3-1.2l0.9-0.8l1-1.3l0.3-1l1.1-0.3l0.3-0.7l1-0.5l0.7-0.6l1.9-0.1l0.7-0.7l0.4-2.2l0.8-1l1.8-1l4.7-0.1l2.5,0.2
		l2.1,0.3l1.5-0.3l2.1,0.3l1.5,0.6l1.4-0.4l3.9-0.3l0.8-1l1.4-1.2l0.8-0.7l0.9-0.9l1-1.3l0.9-0.2l0.8-0.2l1-0.5l1.3-0.3l0.8,0.3l1-1
		l2-1.6l1.3-2.4l-0.5-0.9l-0.7-0.4l0.5-1.3l-0.1-1.7l-0.6-1.5l-1.2-0.3l-0.7-0.6l-1.1,0.2l-0.8,0.9l-0.7-0.5l1.2-1.3l-0.8-1.3
		l-0.9-0.6l-1.2-0.2l0.4-0.7l1.6-0.9l-0.3-0.5l-1.2-0.6l-0.2-0.7h-0.5l-1.2,0.9l-0.6-0.3l-0.8-0.6l-0.5-0.8l-0.7-0.4l-0.8,0.4
		l-0.6-0.1l-0.6-0.3l0.2-0.9l-0.8,0.3l-0.8-0.3l-0.3-1.1l0.3-0.9l-0.1-0.6l-0.5,0.1l-1-0.3l-1-0.6l-0.6-0.3l0-1.5l-1.7,0.2L250,209
		l0.2-1.4l0.8,0.2l1-1.5l-0.4-0.4l-0.2-0.6l0.4-0.8l-0.6-0.3l-0.8-0.2l-0.5-0.4l-0.2-1.1l-0.9,0.1l-0.1-0.5l0.6-0.5l0.8-0.2
		l-0.3-1.4l-1.5-0.7l-0.2-0.7h-0.6l-0.8,0.2l0-0.8l0.9-0.7l0-1h-0.5l-1.6,0.8l-0.3-0.2l0.4-0.7l0.6-0.4l0.7-0.4l-0.1-1.3l-1-1.2h-1
		l-0.1-0.5l0.4-0.9l-0.6-0.3l-0.3-0.4l0.2-0.9l-0.4-0.5l-0.8-0.4l-0.5-1.7l-0.6-0.5l-0.2-1.8l-0.6-0.5l-0.5-0.2l-0.1,1.6l-0.3,1.4
		l-0.8,0.8l-0.3,0.9l0.6,0.7l-0.4,0.6l-0.3,1l-0.7,0l0.1,0.6l0.3,0.2l-0.1,0.7l-1.2,0.8l0.2,1.3l-0.3,0.1l-1-1l-0.5,1.1l-3.5,3
		l-0.5-0.7l-0.3-1l-0.4-0.5l-0.5,0.3l-0.6-1.2l-0.4-0.8l-0.6-0.5l-0.6-0.2l-0.8,0.1l-0.7,0.5l-0.7,0.2l-0.7,0.8l-0.6-0.3l-0.4-0.8
		l0.4-0.6l0.8-0.6l0.4,0.6l0.4,0.4l0.6-0.8l0.6-0.8l-0.7-0.4l-1.2-0.6l0-0.8l0.4-1.3L226,188l-0.4-0.7l-1-0.3l0.3-0.5l0.8-0.2
		l-0.1-1.9l0.1-1.9l0.7-0.7l0.2-0.6l-0.3-0.9l-1.1,1.3l-0.7,0l-0.2-1.5l-0.7,0.4l-1.1,0l-0.9-0.3l-1.3-0.6l-0.8-0.8l-0.4-0.9
		l0.5-1.4l-0.7,0.2l-0.5-0.2l-0.2-0.8l-1.7-1.6l-0.7-1l-1.7-1.6l-1.1-0.5l-0.7,0.4l-1,1l-1.5,0.4l-1.3-0.3l-3.8-1.1l-1.2-0.7
		c-0.4-0.1-0.7-0.2-1.1-0.3l-1.1-0.3l-0.9,0.8l-1.2,1.2l0.2,1.8l0.4,1.7l0.6,1.3l-0.1,2.6l-0.4,0.7l-0.8,1.6l0.9,0.1l0.5,0.3
		l-0.2,1.1l0.5,1.4l0.6,1.9l0.3,0.7l-0.2,1.1l-1.2,0.6l-0.2,1.3l0.2,0.8l-0.6,0.8l-1.5,1.9l-0.3,0.6l0.3,1l1,0.8l1.1,0.7l1.1,1
		l0.8,1.2l0.9,1.3l0.7,2.5l0.5,1.6l0.1,4l0.3-1l0.3,0.3l0.4,1.1l0.3,0.9l-0.8,0.3l-1-0.4l-0.5,0.5l-0.7,1.3l-1.1,1.6l-1.1,1.4
		l-1.6,1l-2.4,1.4l-2.2,1.2l0.4,1.1l0.8,1.1l0.6,0.5l0.2,1.6l0.1,1.6l-0.3,0.7l0.5,1l0.6,3.3l0.6,0.5l0.1,0.8l-0.3,1.3l-1,1.7
		l0.1,0.6l0.5,0.8l-0.5,0.9l-0.5-0.2l-0.6-0.8l-0.9-0.6l-0.4,1.1l-0.3,0.9l-0.6,0.2l-0.8-0.4l-1.1-0.8l-0.5-1.5l-0.6-0.8l-1.2-1
		l-0.8-0.8l-0.5-1.3l-0.9-1.2l-0.8-1.2l-0.2-1.2l0.5-1.2v-2.6l-0.5-0.8l-0.3-0.6v-1.3l0.4-1.8v-1.9l-1.2-0.6l-2.8-0.2l-1-0.5
		L179,215l-1.7-0.2l-1.5-1.2l-1.4-1.1l-1.1-0.4l-1.5-0.7l-1.1-0.6l-1-0.3l-0.4-0.8l-0.4-0.6l-0.9-0.8l-0.8-0.8l-1.8-1.5l-1-0.4
		l-1.2-0.3l-0.9-0.3l-1-0.7l-0.7-0.4l-1.9-0.4l-1,0l-1.2,0.7l-1.6,0.6l-1.2-0.1v-0.6l0.5-0.9l-0.1-0.8l-0.6-1.9l-0.7-2.2l-0.8-2.3
		l-0.2-1.5l-2.7-0.1l-1.4-0.3l-0.9-1l-0.5-0.5l-0.2-0.9l0.7-1l-0.2-1.5l0-1.3l-0.2-1.2l0.2-0.8l0.3-1.8l-0.2-0.9l0.4-0.4l0.6-1.3
		l0.8-1.1l0.3-1.5l0.3-1.4l0.3-1l1.5-1.1l-0.5-0.2l0.2-1.2l0.5-0.9l0.8-0.9l0.2-0.8l0.3-0.3l1,0.4l-0.2-0.8l0.1-0.4l0.5-0.7l1.6-0.1
		l-0.2-0.5l-0.7-0.4l-0.1-0.6l0.4-0.3l0.9-0.2l1.4,0.3l0.7-0.2l0.7-0.3l0.9-0.8l0.3-1.1l-0.4-1.3l-1.2-0.8l-1.1-0.4l-0.4-0.7
		l-0.5-0.4l-1,0.3l-0.5-0.3l-0.3-0.6l0.6-0.2h1.9l1,0.8l1,0.7l1.6-0.4l1-0.6l0.2-0.7l-0.2-0.7l0.2-0.8l1-0.6l3.2,0.5l0.5-0.3
		l0.5-0.6l0.9-0.4l0.2-0.8l0.6-1.1l0.4-0.7l0.7-0.5l0.5-1.1l0.7-1.7l0.5-1.2l-0.2-0.6l-3.3-0.3l-2.4-0.2l-0.5-0.6l-1-0.7l-0.2-0.9
		l-0.5-0.5l-0.7-0.4l-0.7-0.7l-0.3-0.6l0.3-0.3l0.9,0.1l0.3-0.5l0.5,0.2l1.1,1l0.5,0.4l0.6,0.1l0.7,0.3l0.6,0.8l0.4,0.9l0.6,0.6
		l0.9,0.3l1.5-0.4l0.8-0.4l0.7-1l0.7-0.8l0.4-1l0.6-1l0.9-0.9l0.3-0.9l-0.9-0.3L173,143l-0.7-0.6l-0.3-1.3l0.6-0.3l2.4,0.2l1.2-0.4
		l0.3,0.2l0.7,2.2l1.5,0.2l0.4,0.4l0.4-0.2l-0.4-0.5l0.2-0.8l0.4,0.2l0.5,0.5l0.5,0.4l0.7,0.4l-0.1-1l-0.4-0.9l-0.7-0.7l-0.4-1.1
		l0-0.5l0.5-0.3l0.5,0.9l0.6,0.9l0.8,0.7l0.5,0.8l1-0.8l0.9-0.9l1.1-0.8l0.6-0.7l0.6-1l0.2-0.5l1-0.4l0.6-0.7l0.3-1l0.2-1.7
		l-0.3-0.7l-0.6-1l-0.8-1.2l-0.8-1.1l-0.4-0.8l0.3-1l-0.7-0.2l0.2-0.9l-0.1-0.4l-0.9-0.9l0.1-0.5l0.8-0.2l0.3-0.5l-0.6-0.2h-0.9
		l0-1.1l1.3-0.2l-0.1-0.5l-0.2-1.1h0.5l1,0.8l-0.1,1.4l-0.6,0.8l0.1,0.5l0.5,0.5l0.8-0.4l0.8-0.7l0.6-0.8l-0.2-1.3l-0.8-0.2
		l-0.4-0.3l-0.1-0.8l0.5-0.7l0.7-0.5l0-0.9l-1.4-0.3l-1.1-0.4l-0.5-1l-0.7-0.3l-0.7-0.3l-0.1-0.5l0.5-0.3l-0.1-1.1l-0.1-0.1
		l-2.7-0.2l-0.9-1.1l-0.4,0.3l-0.6,0l-0.4-0.5l-2.1,0.2l-1,0.4l-0.4,0.4l-0.3,1.9l0.4,2.3l0.5,0.8l1,0.7l0.6,0.1l-0.1,1.2l-0.7,0.3
		l0.1,0.6l0.4,0.7l-1.8,0l-0.6,0.4l-0.5,0.6l-0.2,2.2l-0.4,1.8l0.4,0.8l-0.5,0.3l-0.6,0.7l-0.6,1.1l-0.6,0.5l-0.1,2.6l-0.3,0.4
		l-1-0.1l-0.3,1.4l-0.4,0.2l-0.7-0.2l-0.4-0.7l-0.5-1l-0.8-1l-0.4-0.5l-0.5-0.8l-0.5-1.5l-0.2-1.1l0.2-2.3l0.5-0.4l0.3,0.1l0.3,0.6
		l0.4-0.2l-0.2-2.1l-0.4-2.1l-1-1.1l-0.9-1.1l-0.8-0.9l-0.3-0.7l-0.5-0.4l-0.8,0.8l-0.7,1.1l-0.3,0.7l0.2,1.8l-0.8-0.2l0,1.2
		l0.2,1.2l-0.3,0.9l-0.7,1.3l-0.5-0.4l-0.3-0.8l-0.6-0.6l0-1.3l0.4-1.2l0.1-1l-0.5-1.2l-0.3-0.7l-0.7-0.7l0-0.8l0.3-0.4l0.4,0
		l0.3,0.4l0.4-0.2l-0.3-0.6l-0.4-0.3l0.2-0.5l0.4,0l0.3-0.5l-0.9,0l-0.7,0.3l-0.9-0.4l-0.2-1l-0.8,0.2l-0.5,0.8l-0.1,0.5l-1-0.1
		l-0.4-0.8l-0.7-0.8l-1.1-0.1l0.2-0.8l1.7-1.8v-0.9h-1.2l0.1-1.1l0.9-0.3l0.6,0.7l1.3,0l-0.1-0.6l-0.5-0.9l-0.9-1.4l-0.7-1.7l-1-0.1
		l-0.2-1l-0.6-0.4l-0.2-0.5l0.2-0.6l0.1-1.2l-0.2-1.1l-1.1-1l-0.6-0.3l-0.5-0.2l-0.4-1l-2.6-0.1l0-0.6l0.4-0.7l1.2-0.5l0.3-0.9
		l0.6-0.6l0.8-0.4l0-0.7l-0.5-0.5l-1-0.2l-0.4-0.4l0.3-0.4l1.6-0.2l0.7-0.1l1.5,0.3l1.7,0.3l0.8-0.3l0.9-1l0.8-1l0.3-0.9l0.8-0.9
		l0.7-0.8l0.7-0.6l0.8-0.5l0.6-0.8l-0.3-0.5l-2.8-0.4h-2.1l-0.6,0.3l-0.6-0.1l-0.7-0.8l-1.5-0.5h-1.9l-3.9,0.6l-1.2,0.3l0.1,0.7
		l1,0.7l0.4,0.7l-0.2,0.3l-0.7-0.3l-0.7-0.6l-0.5-0.3l-0.5,0.5l-0.2,1.7l0.3,1.2l-0.3,1l-0.4,0.7l0.6,0.9l0.8,1l0.6,0.6l0.2,2
		l-0.3,1.8l-0.9,0.7l-0.8,0.5l-0.2,0.4l0.2,0.4l0.7,0.2l0.1,0.7l-0.7,0.5l-0.5-0.7l-0.5-0.3l-0.7,0.2l-0.6,0.8l-0.6,2.4l0.2,1
		l0.5,0.8l0.4,0.5l0.8-0.1l-0.1,0.5l-0.4,0.4l-0.3,0.2l-0.5,1.1l-0.5,1.4l0.3,1.3l0.3,0.9l0.8,1.1l0.4,1l1.3,0.4l0.8,0.7l0.7,0.5
		l0.9,0.5l0.3-0.2l0.3-0.8l0.2,0.2l0.4,1.2l0.4,0.5l0.7,0.3l0.8-0.3l0.6-0.5l0.6,0l0.2,0.8h0.4l1.3-0.1l0.4,0.6l-0.2,0.7l-0.6,1.3
		l-0.2,0.8l-0.4-0.7l-0.5-0.7l0-1.4l-0.5,0.7L150,119l-0.5-0.1l0.2-0.8l0.5-0.8l-1.2,0.3l-0.8,0.7l0.1,1l0.3,1l-0.6,0.6l-0.6,0.4
		l0,1.3l0.4,0.2l0.9-0.3l0.3-0.6l-0.1-0.5l0.4-0.9l0.9,0.3l0.2,1.1l-0.2,1.6l0.3,0.2l0.6,0.2l-0.6,0.6l-0.9,0.8l-0.7,0.4l-0.6,1.5
		l-1.2,1l-0.7,0.1l-0.7-0.3l-0.8,0.3l-0.3,1l-0.3,1.3l0.2,0.9l0.7,0.8l0.2,2l0.2,0.4l-0.3,0.4l-0.1,0.4l-1.1-0.1l-0.4-1.2l-0.4,0.4
		l-0.3,0.3l-0.5-0.3l-0.2-1.4l-0.6-0.5l0.5-1.1l0.1-2.8l0.3-1.3l0.1-0.6l0.3-0.3l-0.2-0.3l-0.7,0.4l-0.3,0.8l-0.4,0.4l-0.8,0v-0.2
		l0.6-1l-0.4-0.4l-0.6-0.2l-0.5-0.6l-0.8-0.7l-0.8-0.1l-0.4-0.7l-0.5,0.3l-0.4,0.8l-0.4,0.4l-1.3,0.1l0.1,0.7l0.5,0.8l-0.4,0.5
		l-0.2,0.7l-0.5-0.2l-0.2,0.5l0.5,0.8l0.4,0.4l-0.1,0.4l-1,0.2l-0.5,0.2l-1-0.2l-4.1-0.6l-1,0.4l-1.9,0.3l-1.2,0.2l-1.8-0.5
		l-1.2-0.3l-0.6-0.5l-0.5-0.4l-0.3-0.7l-0.5-0.7l-0.5,0.2l-1.7,0.4l-1.3-0.1l-0.1-0.7l-0.3-1.1l-0.7-0.3l-0.8-0.4l-0.5-0.6l-0.6-0.4
		l-0.2-1.2l-0.2-1.8l-0.6-0.3l-0.5-0.3l-0.8-0.6l-0.9,0.6l-1.1,0.8l-1.5,0.8l-1.8,0.3l-1.3,0.4l-0.4,0.8l-0.7,1.5l0.7,0.3l0.4,0.6
		l0.2,0.8l0.7-0.3l0.7-0.2l-0.1-0.9l0.3-0.2l1.4,0.2l0.5-0.2l0.4-0.3l1,0l0.3-0.4l0.1-0.8l0.7-0.6l0.9-0.5l0.4,0.1l0.3,0.4l0.3,0.3
		l0,0.8l-1,0.3l-0.7,0.4l-0.5,0.8l-0.7,0.7l-0.3,0.7l-1.7,0.2l-0.9,0.2l-0.4,0.3l-0.4,1.1l-0.5,0.3l0.1,0.8l0.4,0.7l0.5,2.4l0.3,1.1
		l-0.2,0.8l0.4,0.7l0.4,0.5l0.3,0.4l-0.1,0.5l-0.5-0.3l-0.8-0.1l-0.2,1.5l0.5,0.9l0.7,1.1l-0.2,0.5l-0.3-0.3l-0.7-0.9l-0.4-0.6
		l-0.4-0.6l-0.4-0.7l-0.8-1.2l-0.2-0.7l1.3-0.2l0-1.1l-0.4-0.6l-1.1-1.3l-0.3-0.8l-0.5-0.5l-0.1,1.9l-0.7-0.1l-0.3-2.2l-1.2-0.4
		l-1-0.4l-0.2-0.7l-0.9-1.5l-1.2,0.7l-1,0.7l-1,0.6l-0.5-0.5l-1.3,0.3l-1.7,0.7l-1.8,0.3l-1.3-0.2l-3.5-0.2l-0.9-0.7h-1.6l-0.4-0.3
		l-0.7-0.5v-0.6l0.7-0.6l0.1-1.3l0.5,0l0.9,0l0.6-0.6l0.5-0.2l0.7,0.3l0.5-0.2l-0.1-1.6l-0.7-0.7l-0.5-0.7l-0.6-0.7l-0.7-0.7
		l-0.7-0.4l-0.8-0.7L81,121l-1.7-0.2l0.3,0.5l-0.4,0.3l-1.6-0.2L76,121l-2.3-0.8l-1.1-0.7l-1.1-1.1l-0.6-0.4l-1-0.3l-2.4-0.4
		l-0.9-0.5l-0.6-0.8l-0.8-0.7l-1.1-1l-0.7-0.4l-1.1-0.7l-1-0.1l-3.4,0.1l-0.3,1.6l-0.3,1l-0.5,0.9l-1,0.5l-0.8-0.3l-0.5,0.1
		l-0.4,0.2l-0.9-0.3l0.1-0.4l0.4-0.9L54,115l0.5-0.5l-0.2-0.4l-0.9,0l-0.1-2.4l0.1-1.4l-0.8,0.1l-0.9,0.4l0.1,0.7l0.1,0.8l-0.4,0.7
		l-0.7,1l-0.7,1.6l0.3,0.7l0.5,0.2l-0.1,0.5l-0.4,0.3l-0.8,0L49,117l-0.7-0.7l-0.9-0.8l-0.7-1.1l-0.7-1.8l-0.4-1.2l-0.4-1.4
		l-0.5-0.7l-0.4-0.7l-0.5-0.7l-0.3-0.4l-0.3-0.2l-0.5-0.2l-0.6-0.6l-0.5,0.9v0.8l0.5,0.7l0.9,0l0.5,0.2l-0.3,0.4l-1.2,0.4l-0.7,0.3
		l-0.2,0.4l0.2,0.7l0.3,0.6l-0.4,0.2l-0.6,0.1l-0.4,0.7l-0.7,0.8l-0.7,0.5l-0.2-1.4l-0.8,0.2l-1,0.3l-0.8,0.4l-1,0.3l-0.4,0.7
		l-0.4,0.7l-0.4,0.8l-0.1,0.7l-0.6,0.5l-0.5,0.1l-0.3-0.5l-0.4-0.4l-0.5-0.2l-1.4,0.2l0.1,0.6l0.1,0.2l-0.3,0.5l-0.8,0.5l-0.8,0.6
		l-0.3,0.3l-0.6,0.1l-0.4-0.1l0.1-0.9l1.2-0.4l0.4-0.4l0.4-0.5l0.1-0.4l0-0.6l0.3-0.4l1.9-0.5l1.8-0.3l0.5-0.7l0.7-0.7l0.8-0.8
		l0.7-0.4l0.7-0.7l0.7-0.5l0-0.6l-0.5-0.4l-1,0.3l-0.5,0.6l-0.3-0.1l-0.4-0.5l-1.3,0.1l-0.4,0.7l-0.4,0.7l-1,0l-0.9,0.8l-0.7,0.8
		l-1.6,0.4l-1,0.6l-0.7,0.8v0.8l-0.3,0.2l-0.7,0.4l-1.4,0.4l-0.7,0l-0.2-0.5l0.3-0.5l0.5-0.9l-0.9,0.1l-0.5-0.4l-0.1-1l-0.5,0.3
		l0.1,1.6l-1.7,0.1l-1.1,0.3l-0.5,0.7l-1.1,0.4l-0.4,0.8l-0.1,0.4l0.1,0.7l0.9,0.7l0.6-0.2l0,1.1l-0.2,0.5l0.2,0.7l0.6,0.7l-0.3,0.3
		l-0.7-0.3l-0.8-0.6l-1.1-0.8l-1,0.1l-0.9-0.1l-0.7-0.3l-0.7-0.4l-1-0.4l-0.8-0.4l-0.8-0.3l-0.8-0.7l-1-0.8L8,116.9l-0.7-0.7
		l-1.1-0.4l-0.5-0.3L4.9,115l-2.3,0.1l-1.4-0.5l0,70.3l3.3,0.9l1-1.1h1.6l0.3,0.9l0.4,1.6l4.2,4.4l0.5,2.1l2.9-1.8l0.7-2.4l2.8-1.3
		l1.8,3.3l4.9,5.3l4.9,10.7l5.6,2.9v4.3l-0.2,0.7l0.1,0.9l-0.3,0.7l-0.4,0.8l-0.6,0.7v1l0.4,0.9l0.5,0.8l0.3,0.6l-0.2,0.4l-0.5-0.2
		l-0.1-0.6l-0.4-0.2l-0.4,0.4l0,0.3l0.8,0.3l0.3,0.5v0.6l-0.2,0.3h-0.6l0.1,0.6l0.6,0.5l0.8,1l0.5-0.1l-0.1-0.6l0.2-0.5l0.2,0.4
		l0.5,0.4l0.5-0.1l0.6-0.9l0-0.9l0.3-0.5l0.7-0.6l0.5,0.1l0,1.9l-0.3-0.1l-0.2-1l-0.5,0.5l0,1l0.2,0.5l-0.2,0.6l-0.2,1.2l0.2,1.2
		l1,0.8l0.5,0.6l0.6,0.3l0.4,0.6l0.3,0.3l0.1,2l0.5-0.1l0.1-1.1l0.4,0.1l0.1,2.4l0.7,0.6l0.4,0.9l-0.4,1l0.4,0.4l0.7,0.4l1,0.1
		l0.5,0.6l0.6-0.1l0.6,0.7l0.9-0.3l0.5-0.2l0.2,0.4l-0.5,0.7l-0.7,0.4l-0.9-0.1l-1.1-0.3l-1.2-0.3l-0.4-0.4l-0.5-0.5l-1.2-0.3
		l-1.4,0.3l0.3,0.7l0.6,0.8l0.5,0.4l0.3,1.4l1.2-0.1l0.4,0.6l1.4,0.8l0.2,0.7l0.3,0.3l0.8-0.2l0.2,0.6l-0.4,0.4l0.1,0.6l0.9-0.2
		l0.5,0.2l0.1,0.4l0.7,0.2l0.1,0.6l0.7,0.7l0.4-0.1l0.5-0.2l0.2,0.7l0.7,0.9l0.6,0.4l0.8,0.4l1.2,0.4l1.2,0.4l0.9-0.2l0.3-0.6
		l-0.4-0.8l-0.7-0.7l-0.5-1l-0.8-0.7l-0.8-0.4l-0.9-0.4l-0.6-0.3l-0.4-1.1l-0.5-0.8l-0.3-0.6l0.3-0.6l0.5-0.3l0.5,0.3l0.5,0.8
		l0.7,0.7l1.4,0.2l0.4,1.2l1.1,0.4l0.4-0.4l0.3,0.1l0.6,1.2l0.5,1l0.8,0.2h86.7l0.1-1.9l0.7,0.2l0.6,1l0.6,2.1l2.4,1.1l2.6-0.7
		l1.8,1.9l1.1-0.6l1.5,1.6l2.3-1.1l0.5,0.9l3.6,0.4l3.7-1.5l11,6.6l1.1,1.9l1.5-0.2v1.9h1.5v1.2l3.2,2.3l1.4,7.5l-1.5,4.8l-1.7,1.4
		v1l1.5,1.3l11.8-5.1l-0.9-2.5l1.5-0.9h6l1.7-2.6l4.3-3.4h10.6l0.3-1l2.7-0.9l2-6l2.2-3.2l1.1,1.1l1.7-0.8l1.6,1.4l0.3,6.3l1.1,0.6
		l-0.2,1l1,0.9L234.1,265.8z"/>
	<path class="st0" d="M242.8,256.8l-0.5,0.5l-0.2,0.6l0.8,0.3l0.3,1l1,0.2l0.6,0.5l1.3,0.2l0.7,0.4l0.4,0.6l0.7-0.1l0.2-1l1.1-0.8
		l-0.5-0.1l-2,0.4l-1.1-0.1l-0.8-0.5l-0.5,0l-0.4,0.1l-0.6-1l-0.3-0.3l0.2-0.8L242.8,256.8z"/>
	<path class="st0" d="M242.1,242.8l0.7-0.2l1.2,0.4l1.7,0.2l1.7,0.7l1.3,1.2l1.2,0.4l0.4,1l-2.6-0.2l-1.4-0.4l-0.8-0.4l-0.8-0.8
		l-0.9-0.9l-0.4-0.4l-0.9-0.2L242.1,242.8z"/>
	<path class="st0" d="M258.2,252.1l0.2,1l0.6,0.3l1.5-0.2l1.1-0.4l1.2,0.4l2.7,0.3l1.5-0.2l1.4-0.6l0.8-0.2l0.1,0.6l-0.3,0.7
		l1.1,0.5l0.3-0.2l-0.1-0.6l0.7-0.3l1.3,0.5l-0.2,0.6l-0.7,0.3l-0.6,0.6l-0.2,0.6l-1.4,0.5l-0.2,0.6l0.4,0.1l1.7-0.5l0.3-0.9
		l0.3-0.6l0.5-0.4l1.1-0.2l0.4-0.8l0.3-0.6l0.3-0.6l0.5,0.2l0.5,1l0.2,0.9l-0.3,0.7l-0.4,0.8l-0.2,0.7l0.4,0.4l0.3-0.8l0.3-0.7
		l0.6,0.3l0.2,0.8l-0.2,0.9h1.6l0.3-1l0.3-1.5l0.5-1.3l-0.3-0.7l-0.3,1l-0.7,0.3l-0.3-0.5l0.1-0.9l0.9-1.5l-1,0.4l-0.5,0.9l-0.3,1
		l-0.3,0.5l-0.4-0.8l-0.3-0.5l0-1.2l0.3-0.5l0.8-0.8l1.2-0.9l-0.1-0.6l-1.2,0.4l-0.4,0.4l-1-0.1V249l0.4-0.7l-0.7-0.3l0-0.8l1-0.6
		l0.3-1l-0.9-0.6l-0.6-0.3l-0.8,0.2l-1-0.4l-0.5,0.5l-0.9,0.6l-0.7,0.5l-0.3-0.2l0-0.9l-0.6-0.3l-0.9-0.1l-0.2-0.7l-0.5-0.3l0.4-0.5
		l1.3-0.7l-0.5-0.3l-1.6-0.5l-0.5,0.4l-0.7,0.9l-0.2,0.8l-0.6-0.3l-0.2-1l0.7-1.3l0.8-1.6l1.1-1.5l0.9-1.5l-0.4-0.2l-0.7-0.2
		l0.1-0.8l0.5-0.2l1,0.1l0.6-1.1l-0.5-0.3l-0.5,0.7l-0.5-0.2h-0.6l-1.2,0.7l-0.7,0.7l-0.5,0.9l-0.4,1.5l-0.8,0.4L264,240l-0.7,1.8
		l-0.4,1.1l-0.4,0.7l-0.1,1l-0.9,0.6l0.1,0.7l0.5,0.3l-0.3,0.8l-1.1,0.1l-0.5,1.6l0.4,1.1l-0.3,0.6L258.2,252.1z"/>
	<path class="st0" d="M186.9,226.8l0.4-0.5l1.2-0.4l1.3,0.5l0.8,1.4v0.9l-1-0.4l-1-0.3l-0.8-0.5L186.9,226.8z"/>
	<path class="st0" d="M230,183.6l-0.5,1.7l0.3,0.3l1.3-0.6v-1.2l-0.7-0.6L230,183.6z"/>
	<path class="st0" d="M239,176.8l0.6-0.5h0.9l0.7,0.6l-0.5,1.4l-0.7-0.8l-0.7-0.2L239,176.8z"/>
	<path class="st0" d="M236.6,174.7l0.4-1.9l-0.8-0.5l-0.6-0.5l-0.2-1.3l-0.6-0.7l-0.9-0.5l-0.5-0.7l-0.6-0.8l-1-0.3l-0.3-0.5
		l-0.8-0.4l-0.4-0.8l-0.8-1.2l-0.8-0.6l-0.8-0.8v-1l0.6-0.4l1,0.4l1,0.9l0.9,0.8l0.2-0.9l0.6,0.1l0.5,1.1l0.6,0.9l0.8,0.3l0.4,0.9
		l1.2,0.8l1.3,0.2l1,0.5l0.6,0.5l0.8-0.2l0.3-0.6l0.8,0.6l0.6-0.1l-0.6-1.5l-0.5-1v-1l0.6-0.4l0.5,0.7l0.5,0.6l0.3-1l0.4-0.2
		l0.2,0.8l0.5-0.2l-0.3-0.8l0.3-1.1l-0.7-0.7l-0.6-1.3l-0.6,0.2l-0.5,0.4l-0.3-0.5l0.1-0.4l0.6-0.3l-0.2-0.3l-0.9-0.2l-0.1-0.6
		l-0.6-0.9l-0.5-0.6l0.9-0.2l0.6-1.2l-0.8,0.3l-0.8-0.3l-0.7-0.2l0.1-0.6l0.3-0.7l-0.6-0.9l-0.5,0.2l-0.3,0.8l-0.5-0.4l-0.2-0.9
		l-1-0.7L235,154l0.2,0.9l-0.7,0.1l-0.2-2l-0.5-0.7l0.5-0.7h-0.9l-0.6-0.4l0.6-0.8l0.6-0.2l-0.5-0.5l-1-0.4l0.3-0.8l-0.8-0.2
		l-0.6,0.6l-0.8,0.2v-0.8l0.3-1l-0.2-1.2l1-0.3l1.6,0.3l-0.2-0.8l-0.5-0.7l-1.1-0.8L231,142l0.3-0.8l0.7,0.6l0.6,1l0.7,0.3l-0.3-1.2
		l-0.7-0.6l0.1-0.5l0.8-0.2l0.3,0.7l0.5-0.1l0.2-0.6l0.8,0.4l-0.3,0.8l0.4,0.6l-0.3,0.5l0.2,0.1l0.7-0.6l0.2,1.5l0.5-0.6l0.2,0.8
		l1,0.2l0.5-0.7l0.5-0.5l0.6,0.1l-0.7,1l-0.8,0.8l0.2,0.9l1.4-0.2l0.9-0.6l0.7-1.2l0.9-0.9l0.6,0.3l-0.8,0.7l-0.5,1.6l-1,0.5
		l-0.9,0.8l0.3,1.2l0.7-0.2l0.2,0.2l-0.7,0.3l0.2,0.6l0.8-0.5l0.5,0.5l-0.9,0.5l0.1,0.7l0.9-0.4l0.4,0.2l-0.6,0.6l0.2,0.7l0.4,0.7
		l0.5-0.5l0.7,0.1l0.1,0.9l0.7-0.3l0.4,0.1l0.2,0.8l0.6-0.2l0.3-1.1l-0.2-1.1l-0.5-0.8l0.4-1.1l-0.1-1.1l0.6-0.4l0.3,0.8l1.6,0.4
		v-0.5l-0.2-0.6l1.2-0.4l-0.5-1.2l0.5-0.4l1,0.3l-0.2-1l-1-0.4l-0.4-0.6l0.4-0.5l-0.1-1l0.9,0.1l0.5,0.8l1.5-0.1l-0.2-1.1l-0.4-0.7
		l-0.7-0.6l0.3-0.5l1.1,0.4l0.2,0.7l0.7-0.1l-0.3-1l-0.6-1.3l-1-0.8l-0.3-0.7h-0.8l-0.1,1.3l-0.4,0.3l-0.2-0.6l-0.4,0.2l-0.1,1
		l-0.5-0.3l-0.3-1.2l-0.8,0.7l-0.6,0.5l-0.8-0.2l1-1.4l0.3-1l0.6-0.3l-0.1-1.3l-0.7,0.4l-0.5,0.8l-1-0.2l-1.7,0.5l-0.8,0.6l-0.5-0.5
		l0.6-0.4l-0.3-0.5l0.7-0.3l-0.3-0.3l0.4-0.5l1.1,0.2l0-0.6l-0.5-0.5l0.2-0.3l0.7,0.1l0-0.9l-1-0.1l-0.5-0.6l-0.8-1l-1.1,0.4
		l-0.4,0.2l-0.1-0.6l0.9-1.2l-0.5-0.8l-1,0.9l-0.2,0.8l-0.3-0.2l-0.1-1.1l-0.5,0.1l-0.4,1.3l-0.5,0.7l-0.2-0.6v-1.1l-0.5,0l-0.4,1
		l-0.8-0.3l0.6-0.8l0.4-0.7l-0.5-0.2l0.6-0.9l-0.2-0.6l-0.6,0.6c0,0-0.8,0.8-0.8,0.9c0,0-0.7,0.1-0.7,0.1l0.2-0.9l0-0.6l-0.6,0.2
		l-0.6,0.5l0-0.7l0.7-0.9l1-0.4l-0.3-0.4l-0.8,0.2l-0.8,0.7l-0.5,0.6l-0.4-0.5l0.5-0.3l0.7-0.4l-0.8-0.4l-0.4-0.6l-0.8,0.2l-1.2-0.3
		l-0.9-0.1l-0.6-0.7l0.9-0.1l0.5,0.2l0.6-0.2l-0.3-0.4l-1.6-0.2l-1.3-0.4l-0.3-0.5l0.4-0.2l0.8,0.3l1.7,0.1l0.8-0.1l0.7-0.5
		l-0.4-0.3l0.3-0.3l0.5-0.5l-0.7-0.7l-1-0.3l-0.8,0.3l-0.8,0.7l-0.4-0.2l0.2-0.3l0.4-0.4l0.4-0.4l0.5-0.3l0.6-0.2l0.7-0.2l0.3-0.3
		l0.5,0.6l0.7,0.5l1.6,0l1.2-0.2l-0.3-1l-0.9-0.9l-0.5-0.4l-0.8-0.2l-2.1-0.1l-0.6-0.4H228l-0.9,0.4l-0.5-0.3l0.8-0.5l0.8-0.5h1.4
		l0.6-0.9l0.6-0.4h1.2l0.6,0.4l0.7,0l-0.2-1.5l-0.4-0.9l-0.5-1l-0.7-0.9l-1-0.9l-0.5,0.7l-0.3,1.8l-0.5,0.5l-0.4,0.5l-0.9,0.3
		l-0.7,0.3l-0.3,0.5l-0.4,0.4l-0.8-0.1l-0.2-0.5l0.7-0.3l0.5-0.4l0.2-0.5l0.8-0.3l0.6-0.6l0.5-0.7l-0.5-0.5l-1.6,0.3l-0.8,0.4
		l-0.3,0.5l-0.1,1.2l-0.9,0.3l-0.4,0.8L223,113l0.3-0.6l0.7-0.4l0.2-1.1l0.7-0.5l0.8-0.8l0.8-0.4l0.8-0.4l0.9-0.1l0.5-0.9l0.7-0.3
		l0.3-0.7l-0.4-0.6l-1.8-0.9l-0.6-0.9l-0.9,0.3l-0.8,0.7l-0.4,0.6l-0.9,0.3l-0.4,0.7l-0.4-0.2v-0.9l0.6-0.4l0.5-0.2l0.8-0.8l0-0.6
		h-0.6l-0.5,0.5l-0.6,0.3l-0.7,0.7l-0.9,0.7l-0.3,1.3l-0.4,2.2l-0.6,1.5l-0.5,0v-0.7l0.4-1.7l0.3-1.8l-0.5-0.1l-0.4,1.1l-0.3,1.3
		l-0.7-0.2l0.2-1.4l0.5-0.9l0.4-0.7l1-0.2l0.8-0.8l0.7-0.9l0.5-0.8l-0.2-1.3l-0.9,0.1l-0.8,0.7l-0.3,1l-1.2,0.3l-1.3,0.9l-0.6,0.5
		l-0.3,0.7l-0.9-0.2l0.8-1l0-0.7l-0.8,0.1v-0.6l0.8-0.6l0.8-0.9l0.7-0.6l1.2,0.3l0.4-0.5l0.7-0.2l-0.2-0.6l-1.1-0.7l-0.9-0.4
		l-1.6-0.3l-1.1,0.5l-0.4,1.1l-0.8,1.1l-0.8,0.2l0.7-1.1l-0.4-0.2l-0.9,1l-0.5-0.3l0.6-1l-0.4-1l-0.7,0.5l-0.2,0.8l-0.8-0.1l0.2-0.9
		l1.4-1.6l-0.6,0.1l-1.6,0.4l-0.6,0.6l-0.2,1.3l-0.6-0.2l-0.1-0.8l-0.4-0.6l-0.6-0.2l0.7-0.5l0.8-0.4l1.5-0.3l0.3-0.7l-0.7-0.4
		l-1.6-0.3l-1.5,0.7l-0.7,0.9l-0.5-0.2v-0.5l0.7-0.9l0.9-0.6l0.8-0.2l-0.8-1.1l-1-0.6l-0.9-0.2l-0.8,0.3l-0.9-0.3l-1.5-0.6l-2.2-0.4
		l-1.6,0.4l-1.2,0.6v0.8l0.8,0.4l0.5,0.4l-0.1,0.4l-0.8-0.1l-1.4-0.4l0.2,0.5l1.2,0.9l0.8,0.6l0.2,0.8l-0.8,0.2l-0.5-0.8l-0.7-0.8
		l-0.4-0.3l-0.2,0.2l0.1,0.5l0.8,0.8l-0.7,0l-1.1-0.5l-0.4-0.6l0.4-0.3l0.4-0.6l0-1l-1.1,0.3l-0.4,0.7l-0.7-0.2v-0.8l-1-0.6
		l-0.4,1.1l-0.5,0.7l-0.5,1.2l-1.4,0.2l-0.2-0.7l0.3-1.1l1-1l-0.5-0.1l-0.9,0.5l-0.8,0.9l-0.3-0.5l1-1.1l1.2-0.6l0.9-0.7l-0.1-0.5
		l-0.8-0.4l-0.2-0.8l0.4-0.4l-0.3-0.4l-1.4-0.3l-0.5-1.8l-0.7-0.7l-0.7-0.5l-3.3,0.1l-2.1,0.4l-1,0.6l0.2,0.5l0.4,0.6l-0.5,0.1
		l-0.7-0.6l-1.6-0.1l-0.3,0.5l-0.1,0.4l-0.4-0.1l-0.7-0.4l-0.5,0.2l-0.2,0.4l0.7,0.4l1,0l1,0.4l0.6,0.2l-0.2,0.4l-1.2-0.2l-1.8-0.3
		l0.7,0.6l1.1,0.4l0.6,0.4l0,0.4l-0.6,0l-0.8-0.2l-0.9-0.4l-0.8-0.5l-0.5-0.5l-0.4,0.5l-0.4,1.1l0.3,0.9l0.5,1l1.1,0.2l1.1-0.1
		l0.2,0.4l-0.2,0.4l0.3,0.5l1.1,0.4l0.6,0.5l-0.1,0.4l-0.7,0l-0.7-0.4l-0.5-0.4l-0.9-0.6l-1.1-0.1l-0.2,1l-1.2,0.1l0.3,0.7l0.9,0.3
		l0.4,0.9l2.5,0.3l0.2,0.9l-0.4,0.6l-0.3,1.6l0.2,1.3l-0.7,0.1l-0.3-1.4l-1.1-0.1l-1.6,0.2l-1.1,0.6l-1.7,0.3l-0.2-0.3l0.3-0.4
		l1.3-0.1l1-0.7l1.7-0.4l1.3-0.6l-0.6-0.3l-1-0.3l-1-0.7l-0.8-0.9l-0.9-1.1l-0.3-1.1l0.1-0.8l0.5-0.4l-0.2-0.7l-0.9-0.8l-0.3-0.8
		l0.3-1l1-0.9l0.7-1.1l0.8-1l1.2-0.7l1.2-0.6l0.5-0.4l-0.2-0.6l-2.1-0.3l-1.6-0.1l-1.9,0.2l-1.9,0.5l-1.5,0.4l-1.2,0.9l-1.6,1.1
		l-1.2,1.3l-0.5,1.2l-0.5,1.2l-0.7,0.8l-0.4,1l-0.4,0.7l0.3,0.5l0.3,0.5l-0.6,0.5l-0.3,0.6l0.5,1l-0.5,0.8l0.2,0.9l0.5,0.5l3,0.3
		l2.3,0.1l0.9-0.1l0.3,0.5l0.5,0.2l0.8,0.5l0.3,0.4l-0.5,0.5l-2.3,0.2l-0.7-0.5l-0.5-0.4l-2.8-0.1l0.2,0.4l0.2,0.7l-0.4,0.3l0.3,0.8
		l0.6,0.7l0.4,1.1l0.5,1.1l0.8,0.4l1.1,0.4l0.3,0.6l0.6,0.9l0.6-0.4l0.2-0.4l1,0.1l0.8,0.3l-0.4-0.8v-0.6l0.6,0.1l0.5,0.5l0.5,0.2
		l0.5-0.1l0,0.4l0.1,1.1l0.7,0.9l1.3,1l0.7,0l-0.3-0.6l0.4-0.3l1.6,0.1l1-0.1l0.2,0.8l2.3,0.3h1.6l0.9-0.3l0.7,0.3l0.9,0.7l0.4,0.5
		l1.2-0.1l0.7-0.4l-0.3-0.6l-0.6-0.7l-0.8-0.9l0.1-0.3l1,0.2l0.6,1.1l0.9,0.9l0.8,0.3l0.7,0.8l0.6,0.8l0.2-0.4l-0.2-0.6l-0.6-0.6
		l-0.5-0.8l-1-0.4l-0.4-0.4l0.3-0.4l2,0.1l1.8,0.6l1.7,0.4l0.8,0.9l2.4-0.2l0.4-1l-0.3-1.7l-0.3-0.8l-1.4-0.3l-0.8,0.4l-0.3-0.5
		l0.4-1.1l0.4-0.7l0.8-0.1l0.3-1.3l0.6-0.5l0.6,0.3l0.3,0.6l-0.7,0.6l-0.1,0.6l0.3,0.2l0.7,0.1l0.5,0.5l0.3,1.4l0.3,0.1l0.9-0.1
		l1.1,0.1l0.1,0.9l-0.2,2.4l0.2,0.9l0.3-0.3l0.2-0.6l1,0.1l0.5,0.5l0.8,0.1l-0.4,0.7l-0.6,1.1l1,0.1l0.3-0.5l0.3-0.6l0.6,0.2
		l0.2,0.7l-0.8,0.3l0.1,0.6l0.6,0.6l0.6,0.3l0.7,0l0.6-0.7l0.3-0.8l0.5-0.6l0.3-0.6l0.3,0.4l0.1,0.9l-0.5,0.7L207,117l-0.9,0.4
		l0.3,0.6l0.6,0.6l0.1,0.9l-0.4,0.8l-0.9,0.4l-0.8-0.2l-1.1,0.1l-0.1,1l0.2,0.7l-0.2,0.6l0.3,0.6l0.9-0.5l1.7-1.2l0.4-1l0.6-0.1
		l0.7,1l0.2-1.4l0.7-0.5l0.5,0.3l-0.3,0.7l0.2,0.9l-0.3,0.9l0.6,0.4l0.4,0.5l0.4,1.1l1.3,0.2l-0.6-1l0.1-0.6l1,0.1l0.3,0.6l0,1.5
		l-0.5,0.3l0.5,0.8l1.4,0.5l1.1,0.5l0.4,2.4l0.7,1.2l1,3.8l0.3,0.5l-0.3,1.1l-1.2,0.7l-0.7,1.3l-0.3,1.3l-1,0.6l-0.7,1.2l-0.9,0.8
		l-0.6,0.6l-0.9,0.6l-0.3,0.8l0.7,1.2l1.4,1.6l0.4,1.2l0.2,0.8l-0.6,0.3l-0.5-0.3l-1,0l-0.5,0.6l-0.2,0.7l-0.7-0.1l-0.4-0.3
		l-0.8,0.1l-0.4,0.8l-0.7,0.3l-0.6-0.2l-1.1-0.5l-0.4,0.5l-0.9-0.1l-1.2-0.7l-1.3-0.4l-0.7,0.1l-0.4,0.9l0.4,0.6L201,152l-0.9,0.4
		l-0.8,0.8l-0.3,2l0.5,1.4l1,1l1.2,0.5l1.6,0.4l0.7-0.1l0.6-0.6l1.7-0.4l0.1-1.3l1.2-0.1l0.4,0.6l0.6,0.5h1.4l0.1-1.2l-0.7-0.6
		l0.1-0.8l0.8-0.6l0.5,0.2l-0.5,0.6l0.1,0.6l0.6,0.5l0.5-0.2l0.5-0.2l0.4,0.1l-0.1,0.7l-0.2,0.8l0.6-0.8l0.6-0.4h0.7l0.7,0.4
		l-0.3,0.6l-0.7-0.2l-0.3,0.4l0.6,0.3l0.2,0.7l1,0.6l0.6,0.4l0.2,1.2l1,0l0,1.2l0.8,0.6l0.5,0.1l1-0.3l0.7,0.4l0.3,0.8l0.7,0.4
		l-0.3,0.8l-1,0.4l-0.7-0.2l0.5,0.9l0.3,0.9l0.8,0.7l0.7-0.1l0.7-0.4l0.2,0.9l0.7,0.6l1.5,1l0.8-0.3l0.8,0.3l0.5,0.4l0.1,0.9
		l0.8,0.3l0.2,0.7l1.4,0.4l0.4,0.7l1.8,0.3l1.9,0.6l1.4,0.5l1.3,0.8l0.6,0.3L236.6,174.7z"/>
	<path class="st0" d="M190.8,86.9l-0.2,1.7l0.4,0.6l1.7,0.1l0.3,1.9l0.7,0.9l0.9,0.3h1.6l1.1-0.7l2.1-0.3l2.1,0.1l1.8,0.4l1.8,0.1
		l-0.3-0.8l-0.6-0.6l-0.7-1l-0.6-0.4l-0.8-0.4l-0.3-0.7l-1.7-0.5l-1.1-0.4h-3.9l-2.5-0.3l-1-0.5L190.8,86.9z"/>
	<path class="st0" d="M206.4,126.7l2,1v1l-0.3,1.4l0.3,1.3v1.6l-0.7,1.3l-1.5,0.9l-2.9,0.1l-1.1-0.9l-0.3-2.5l0.5-1.9l0.7-1.8
		l1.2-1.2L206.4,126.7z"/>
	<path class="st0" d="M209.6,129.1l0.4,1.3l0.9,0.8l1-0.3l0.9,0.2l0.9-0.1l-0.1-1.5l-1.5-0.3l-0.8-0.4l-0.2-0.7l-0.5,0.3l-0.2,0.3
		L209.6,129.1z"/>
	<path class="st0" d="M207.7,123.6l-0.2,0.8l0.6,1.1l1.1,0.7v-1.4l-0.4-0.8l-0.5-0.6L207.7,123.6z"/>
	<path class="st0" d="M193.3,175.9c0.1,0.2,0.3,0.4,0.4,0.6c0.2-0.3,0.4-0.6,0.6-0.9l0.4-1.2l0.6-1.2l-0.2-1l-0.7-0.6l-0.9,0.2
		l-0.6,0.7l-0.5,1.1l0.2,1.7C192.8,175.5,193.1,175.7,193.3,175.9L193.3,175.9z"/>
	<path class="st0" d="M198.2,164.2l0.9-0.1l1,0.2l0.4,0.6l0.2,0.7l-0.3,0.7l-0.7,0.2l-0.7-0.3l-0.7-1.1l-0.4-0.3L198.2,164.2z"/>
	<path class="st0" d="M201.3,162.6l0.7-0.1l0.8,0.4l0.7,0.9l-0.3,0.7l-0.5,0.1l-0.3-0.5l-0.8-0.7L201.3,162.6z"/>
	<path class="st0" d="M180.9,171.1l0.8,1.4l0.9-0.3l0.9,0.3l0.9-0.7l0.6-1.1l0.9-0.7l0.8-0.9l0.1-1.2l-0.6-0.4l-0.6,0.1l-1.3,0.3
		l-0.8,0.5L183,168l-0.5,0.1l-0.6,0.5l-0.1,1.3L180.9,171.1z"/>
	<path class="st0" d="M176.6,147.2l-0.6-0.3l-0.2-0.8l-1,0.8l-0.5,0.9l-0.3,2.4l-0.3,4.4l-0.6,1.7l0.3,2.1l0.5,0.4l-0.2,1l-0.8,0.3
		l-1.1,0.6l-1,1.4v0.7l0.7,0.5l0.5-0.6l2-0.1l0.9-0.6l0.3-0.9l0.4,0.1l-0.1,1l0,2l0.2,1.7l0.6,0.4l1.3-0.7l1.3-1.3l0.2-1.5l1.2-0.4
		l1.1-0.9l0.2-2.2l1.3-0.6l1,0.1l-0.1,0.8l-0.3,0.7l1.9,0.2l0.1,0.6l-0.2,1.3l1.2-0.2l1.4,0.6l0.8,0.6l0.8,0.3l0.8-0.6l1.1-1.1
		l0.6-0.2l-0.3-0.5l-0.5-0.2l-0.2-1l-0.8-0.8l-0.3,0.8l-0.8-0.3l-0.5,0.1l-0.8,0.3l-0.6,0.1l-0.3-0.4l0.3-0.5l0.6-0.3l-0.2-1.6
		l-0.4-1.6l-1.4-1l-1-0.3l-1.1-1l-0.9-0.7l-0.5-1l-1.7-0.2l-0.6-0.6l-0.5-1.2l-0.6-0.5l-0.5,0.9l-0.2,0.8l-0.6,0l-0.5-1.1l-0.6-1.2
		l0.4-1L176.6,147.2z"/>
	<path class="st0" d="M177.1,145.2l-0.2,1.7l0.6,0.8h0.5l0.2,0.8l0.5,0.1l-0.4-1.8l-0.5-1.2L177.1,145.2z"/>
	<path class="st0" d="M26.5,221.1l-0.2,1l0.2,0.9l0.4,1.2l0.8,0.3l0.3,1.3l0.5,0.9l0.4,0.6l0.2,0.6l0.6,0.3l0.3,0.5l0.8,0.9l0.6,0.5
		l0.2,0.7l0.6,0.4l-0.1-0.5l-0.5-0.8l-0.3-0.8l-0.1-0.7l-0.6-0.2l-0.2-0.5l0.3-0.6l-0.3-1.1l-0.6-0.2l-0.4,0.1v-0.6l0.3-0.3l0.1-1.9
		l0.3-0.7l0.5-0.6l-0.4-0.3l-0.9,0.2l-0.8-0.4L26.5,221.1z"/>
	<path class="st0" d="M190.8,114.4l0.9-0.4l0.6-0.4l0.4,0.4l0.4,0.4l0.5-0.3l0.7-0.5l0.6,0.2l0.1,0.7l-0.6,0.4l-0.4,0.2l-0.7,0.2
		l-0.1,0.8l-0.6-0.3l-0.5-0.5l-0.5-0.4L190.8,114.4z"/>
	<path class="st0" d="M201.6,117.1l-0.2,1.1l0.3,1l0.5,0.3l0.5-0.5l0.1-0.7l0.6-0.8l-0.4-0.2l-0.8-0.4L201.6,117.1z"/>
	<path class="st0" d="M199.2,114.3l0.1,0.6l-0.3,0.5l-0.7,0.4l-1.7,0.7l0.6-0.9l0.7-0.8l0.6-0.4L199.2,114.3z"/>
	<path class="st0" d="M197.5,117.7l0.5-0.2l0.4,0.1v0.9l-0.6,0.2l-0.3,1.4l-0.8,0.9l-1.4,0.9l0.1-1.4l0.4-0.6l0.8-0.5l0.3-0.9
		L197.5,117.7z"/>
	<path class="st0" d="M171.7,127.4l-0.2,1.2l0.2,0.8l-0.2,0.8l0.2,0.6l0.3,0.4l0.6-0.1l0.2-0.8V129l-0.2-1.9h-0.7L171.7,127.4z"/>
	<path class="st0" d="M221.8,168.6l0.5,1.2l0.6,0.3l1-0.2l-0.5-0.5L223,169l-0.6-0.4L221.8,168.6z"/>
	<path class="st0" d="M239.6,168.6l-0.2,0.8l0.2,0.6l0.4,0.3l0.5,0.7l0.7,0.6l1.2-0.8l-0.3-0.4l-0.7,0.2l-0.9-0.3l-0.3-1.1
		L239.6,168.6z"/>
	<path class="st0" d="M170.3,111.1c0.2-0.1,0.4-0.2,0.5-0.4l0.8,0.2l0.5-0.2l0.4,0.3v0.6l-0.4,0.3l-0.6-0.2l-0.8-0.2
		C170.5,111.4,170.4,111.3,170.3,111.1L170.3,111.1z"/>
	<path class="st0" d="M140.9,125.2l1-0.2l0.5-0.8l0.7-0.5l0.4-1l0.8-0.1h0.6l0.3-0.8h-0.5l-0.4,0.3l-0.5-0.2l-0.5-0.2l-0.2-1
		l-0.2-1.6l-0.4-0.5l-0.4-0.8l-0.8-0.7l-1-0.6l-0.6-0.3l-0.2-0.7l-0.4-0.7l-0.3,0.3l-0.4-0.2v-1h-0.8l-0.3-0.8h-0.7l-0.5,0.7
		l-0.3,0.6v0.9l0.3,0.7l0,0.5l-0.3-0.1l-0.3-0.4l-0.5-0.1l0.4,1.3v0.9l-0.4,0.3l-0.5,0.8l-0.8,0.3l-0.6,0.2l-0.5-0.2l-0.6,0.4v0.9
		l0.5,0.9l0.5-0.1l0.9-0.4l0.3,0.5l0.4,0.6l0.5,0.3l0.6-0.5l0.4,0.3l0.2,0.6l0.9,0.4l0.8,0.6l1,0.4l1.3,0.2L140.9,125.2z"/>
	<path class="st0" d="M140.9,115.9l0.8,0.7l0.6,0.7l0.2-0.9l-0.1-0.5l-0.9-0.2L140.9,115.9z"/>
	<path class="st0" d="M142.8,117c0-0.3,0-0.7,0-1l0.6-0.6h0.7l0.8,0.5v1.1l-0.5,0.7l-0.5,0.3c0-0.2,0-0.5-0.1-0.7
		c-0.1-0.1-0.2-0.3-0.3-0.4c-0.1,0.2-0.2,0.4-0.4,0.5C143,117.4,142.9,117.2,142.8,117L142.8,117z"/>
	<path class="st0" d="M128.6,120.8l0.3-0.3l1.2-0.7l0.2,0.5l-0.1,0.8l-0.5,0.5l-0.2,1.2l-0.9,0.3l-0.2-0.9L128.6,120.8z"/>
	<path class="st0" d="M123.3,123.2c0.2-0.1,0.3-0.2,0.5-0.3c0.1-0.2,0.2-0.3,0.3-0.5c0.2,0,0.3,0,0.5-0.1l0.3,0.8l-0.3,0.7l-0.6,0.2
		l-0.6-0.4C123.4,123.6,123.4,123.4,123.3,123.2L123.3,123.2z"/>
	<path class="st0" d="M114.4,121.4l1.3,0.3l0.2-0.3h1.3l1.2,0.5l0.5,0.3l2.8-0.1l0.7-0.6l0.7-0.6l1.2-0.3l0.2-0.8l0.3-0.4l-0.5-0.7
		l-0.8,0.3l-0.2-0.3l0.2-0.5l0.2-1.5h-0.8l-0.6,0.4l-1.1,0.9l-0.6,0.1l0.1-1.4l-0.8-0.7l-0.8-0.9l-0.1-0.5l0.6-0.4l-0.2-1l0.2-0.3
		l0.9,0.2l0.3,0.5l-0.2,0.7l-0.4,0.2l0.1,0.6l0.6,0.5l0.7,0.2l0.7-0.3l-0.1-0.7l-0.3-0.6l0.4-0.3l0.4-0.4l0.7-0.4l0.6,0.2l0.4,0.9
		l0.6,0.4l0.1-0.7l0.2-0.8l0.4-0.5l0.5,0.2l-0.2,0.8l0.2,1.2l0.5,0.2l0.4-0.5l0.3-2.2l-0.4-1.7h-0.6l-0.5,0.4l-0.7-0.2l-0.2-1.4
		l-0.7,0.2l-0.5-0.2l-0.8-0.8l-0.9-0.7l-0.7-0.5l-1.3-0.3l-1.2-0.5l-0.4-0.9l-1-0.4l-0.4-1.7l-0.6-0.7l-0.8-0.4l0-1l0.5-0.7l0.4-0.7
		l-0.4-0.9l-0.6-0.7l-0.5-0.5l-0.3-0.9l-0.4-1.1l-0.5-0.8l-0.4-0.5l-0.2-1.3L113,92l-1-0.4l-0.2-0.6l-1.2-0.2l-0.5-0.7l-1.3-0.7
		l-0.4,0.2l-0.3,0.5l-0.7-0.4l-0.9-0.5l-0.8-0.2l-0.6,0.2l-0.5,0.9l0.5,1.7l0.6,2.1l0.4,1.4l0.7,1l0.5,0.7l0.2,0.4l-0.3,0.4
		l-0.7,0.6l-0.7,0.5l-0.6-0.2l-0.7-0.6l-0.3-1.3l-0.7-1.4l-0.3-1.9l-1-0.3l-0.4-0.7l-1.2-0.5l-0.7-0.5l-0.9-0.5l-1.1-0.1l-0.9,0.3
		l0.7,0.6l0.9,0l0.2,0.9l0.7,0.5l0.3,0.5l-0.3,0.5l-0.7-0.3l-1.3-0.5l-1.2,0.4l-0.5,0.7l-0.5,0.2l-0.5-0.2L94.1,95L94,95.6l-1.2-0.2
		L92.3,95l0.3-0.5l1.4-0.4l0.8-0.6l0.2-0.6L94,92.4l-1.7-0.6l-1.3-0.5L89.6,91l-1.1,0.3l-0.6,0.8l0.2,0.8l-0.2,0.5l-1.3-0.2
		l-0.9,0.5L85,93.8l-0.6-0.3l0.6-0.7l0.6-0.7l0.6-0.3l0.2-1.3L86,89.7l-0.4-0.5l-0.9-0.5l-1.6,0.5l-2.9,0.9L78,91l-2,0.6l-0.8,0.5
		L74,92.9l-1.5,0.8l-0.3,0.5l0.3,0.5l0.8,0.2l0.2,0.4l-0.4,0.4L71.9,96l-0.8,0.8l-0.7,0.7l-0.2,0.7l0.4,0.5l1.9,0.1l1-0.1l0.7,0
		l0.2,0.5l-1.1,0.2l-0.4,0.5l0.6,0.3l1.3-0.2l0.9-0.4l0.9,0.4l2.5-0.5l1.7-0.5l0.9,0.1l0.2,0.5l-1.2,0.3l-0.6,0.6l-1.6,0.2l-0.1,0.5
		l0.5,0.5l-0.5,0.2l-1.1-0.7l-2.5,0.4l-1.6,0.6l-0.5,0.6l0.6,1l0.9,0.7l0.6,0.7l0.2,0.6l1,0.3l0.3,0.5l1.3-0.6l1-0.4l1.5,0.6
		l1.4-0.2l1.4-0.1l1.6-0.2l1.1-0.4l0.9-0.3l1,0.5l1.4,0.2l0.7,0.5l1.4,0.3l1.2,0.5l0.8,1l0.7,0.3l0.7,0l-0.1,0.5l-0.8,0.5l-0.6-0.2
		l-0.3-0.7l-0.4,0l-0.3,0.9l-0.7,0.3l-2.2-0.3l-3-0.6l-0.9-0.1l-2.9,0.5l-2.7,0.5l-1.9,0.7l-0.9,0.3l-0.7,0.7l0.2,1.7l0.7,1.2
		l0.9,0.9l0.6,0.4l0.3,1.2l1,0.7L81,118l1.1,0.4l1.5-0.4H86l1,0.6l0.5,1l0.3,1.1l-0.5,1.2l0.3,0.9l0.7,1.1l0.5,0.5l0.3,0.8l1.3-0.2
		l2.4-0.2l1.6-0.2l0.6-0.5l0.5,0.2l0,1.1l0.9-0.5l0.3-0.7l0.4-0.4l2.6-0.1l1.7-0.7l1.2-0.9l0.6-1l1.8-0.3l1.4-0.3l0.9-0.9l0.6-1.2
		l0.7-1.4l0.7-0.6l0.7,0.3l0.4,1l-0.4,1.2l0.7,0.5l1-0.5l0.9,0.3l0.4,0.5h1.2l0.4,0.4l-0.1,0.6L114.4,121.4z"/>
	<path class="st0" d="M62.2,99.6l0.7,0.4H64l1.2-0.4l0.6-0.5l0.2-2.2l0.5-0.6l0.3-0.8l1.5-0.2l1.1-0.6l0.3-1l0.7-0.9l0.8-0.4
		l1.1-0.4l1.3-0.5l1.1-0.7l1.3-0.4l0.9-0.4l1.4-0.6l0.9-0.3l1.5-0.4l1.1-0.4l0.1-0.4l-0.7-0.7L80,86.5l-1.7-1.2L77,84.5l-1.3-0.8
		l-2.1-0.5l-2.4,0.6l-0.1,0.9l-0.4,0.3l-0.7,0l-0.2-1.4l-0.6,0.3L68.9,84h-0.6l-0.5-0.5l-2-0.6l-1.7-0.7l-0.8-0.6l-0.9-0.2L60.7,82
		l-5.6,0.4l-1.8,0.2L53,83l0.5,1l0.4,0.8l0.5,0.7l0.3,0.2l0.8,0.1l0.1,0.5l-0.9,0.9l-0.4,0.8l-0.9,0.7L53,89.9l-0.6,0.3v0.5l0.6,0.2
		l0.3,0.4l-0.1,0.4L51.9,92l-0.2,0.3l0.3,0.6l0,0.5l-0.9,0.8L50.4,95l-0.6,0.8l-0.2,0.8l0.2,0.3l1.7,0.2l0.6,0.5l1.5,0.4l1.2,0.4
		l0.8,0.5l0.8,0.9l0.4,0.8l0.4,0.8l0.5,0.4l1-0.1l1.1-0.7l0.8-0.1l0.6-0.4l0.6-0.5L62.2,99.6z"/>
	<path class="st0" d="M108.6,88.1l0.5-0.9l0.9-0.5l3.9-0.3l1.2,0.8l0.6,0.2l0.2,0.8l-0.3,1l-0.6,0.9l-0.9,0.8l-0.8,0.6l-0.4-0.3
		l-0.7-0.7l-0.7-0.5l-0.5-0.8l-0.7-0.4l-0.8-0.5L108.6,88.1z"/>
	<path class="st0" d="M121.8,92.4l0.4-0.9l0.6-0.8l0.6-0.2l0.8,0.3l0.8,0.8l0.9,0.8l0.5,0.4l0.6,0.1l0.8-0.3l1.5-0.3l0.2-0.5
		l0.7-0.5l-0.2-0.6l-0.4-0.6h-1l0.3-0.5l0.8-0.2l-0.1-0.6l-0.5-0.2l-0.6,0.2l-0.9,0.3l-1-0.3l-1.3-0.8l0.6-0.6l0.9-0.1l0.8,0.2
		l0.5,0.6l0.5-0.3l-0.1-0.8l-0.9-0.2l-0.3-0.6l0.2-0.5l1.2-0.2l1,0.3l0.5,0l-0.2-0.6l0.4-0.3l0.7,0.3l0.9,0.7l0.6,0.3l0.4,0.2
		l0.7-0.2l1.1,0.1l0.5-0.1l1.4-0.3l0.7-0.3h1.5l0.8,0.5l0.1,1l-1.6,0.3l-0.3,0.6l0.1,0.2l1,0.1l-0.1,0.3l-1.3,0.2l-1.3,1.1l-0.8,0.6
		l-0.3,0.6l0.1,0.5l0.8-0.2l0.7-0.5l1.8,0.1l0.3,0.6l0.2,1l0.3,0.7l0.6-0.2l0.6-0.3l0.6,0.1l0.5,0.5l0.1,0.6l-0.3,0.6l-0.9,0.3
		l0.3,0.6l0.1,0.6l-0.4,0.4l0.1,0.5l0.3,0.5l-0.8,0.3l-0.9,0.4l-0.8,0.5l-0.9,0.1l-1.7-0.3l-0.3-1.2l-0.6,0.2l-0.2,0.8l0.5,0.5
		l0.7,0.5l-0.3,0.6l-1.4,0.6l-1.5-0.6l-1-1.3l-1.7-1.5l-1.5-1.4l-1.2-0.2l-0.6-0.6l-0.5-0.2l-0.5,0.4l-1-0.3l-0.5-1l-1.4-0.6
		l-0.7-0.5L121.8,92.4z"/>
	<path class="st0" d="M132.5,85.4l0.5,0.5l0.7-0.1l1-0.2l1.3-0.1l0.8-0.4l0.6-0.5l-0.3-0.5l-1.5,0.4l-1.4,0.3l-0.9,0.4L132.5,85.4z"
		/>
	<path class="st0" d="M58.4,70.3l0.5-1.1l0.9-0.8l1.4-0.2l1.6-0.2l0.5-0.8l0.3-0.8l1.6-0.3l1.1-1l1-0.9l1-1.2l0.7-0.4l0.6-0.8
		l0.7-0.4l1.6-0.3h2.4l1,0.2l1.1,0.3l0.8-0.2l0.8-0.2v-0.6l-1-0.2l0.2-0.6l1.3-0.4l1.1,0.4l1.1,0.7l0.8,0.5l-0.3,0.6l-1,0.1
		l-0.7,0.3L79,62.5L78.9,63l0.3,0.5l0.5,0.4l0.7,0.1l-0.2,0.6l-0.6-0.3L79,64.3l-0.2,0.3l0.4,0.3l0.6,0.3l0.3,0.7l-0.6,0.8l-1.1,0.4
		l-1.2,0l-0.6,0.2l0,0.6l0.2,0.6l-0.4,0.5l-1,0.4l-0.6-0.3l-1-0.6L73.9,67l0.7-1.4l-0.3-0.7l-0.6,0.6l-1.2,0.2v1.1l-0.6,0.5L71,67.2
		l-0.1,0.3l0.1,0.7l0.6,0.3l-0.1,0.7l-0.8,0.2l-0.1,0.9L70,70.6l-1-1.3l-0.3-0.2l-0.5,0.5l0.3,0.4l0.2,1.5L68.2,72l-0.5,0.3h-1.5
		l-0.3-1.1l-0.3-0.1l-0.4-1l-0.7,0.1l-0.3,1l-0.8,0.6l-0.6-0.4l-0.8-0.3l-0.6,0l-0.9,0.5l-0.8,0.8l-0.5-0.4l0.3-0.8l-0.2-0.6
		L58.4,70.3z"/>
	<path class="st0" d="M69.8,74.2l1.1,0.2l1,0.3l1-0.8l0.8-1.1l0.6-0.9l1-0.9l-0.6-0.5l-1.2,0.7l-0.5,0.4l-0.8,0L71,72.8l-1,0.8
		L69.8,74.2z"/>
	<path class="st0" d="M75,76.6l1-1.3l4.3-0.1l1.2-0.6l1.1-0.3l-0.2-0.8l-0.9,0.1l-1.7,0.6l-3,0.1l-0.5-0.5l0.9-0.7l2.9-0.1l1.1-0.2
		l-0.2-0.6l-2.7-0.2l-0.3-1l0.4-0.6l1.2-0.2l1.7,0.1h1.1l1,0.1l-0.2-0.6l-0.7-0.4H81l-0.3-0.5l0.5-0.6l2-0.5h1.6l0.8,0.3l0.6,1.4
		l0.5,0.6l1.2-0.1l0.7-0.5l1.3,0l1,0.6l0.5,1l1,0.2l0.7,0.3l-0.6,0.5l-0.6,0.5l0.5,0.3l1.1-0.5l0.6,0.4l0.5,1.6l0.6,0.3l1.8-0.3
		l1.7,0.2l1.5,0.2l1.6,0.2l0.9-0.4l-0.2-1.1l-0.8-0.7l-1.5-0.4l-1.1-0.5l1-0.6l0.9-0.5l-0.3-0.9l-0.8-0.5l-1.2-0.3l-0.8-0.3l0.1-0.7
		l0.7-0.5l1.2-0.5l0.8-1.2l0.6-0.6l1.3-0.4l0.7,0.2l0.2,0.7L103,67l0.4,0.7l0.4,0.9l0.7,0.3l0.2,0.5l-0.4,0.6l-0.6,0.6l0.2,0.6
		l1.2-0.2l0.7,0.4l-0.2,0.7l-0.6,0.3l0.3,0.6l0.6,0l0.7-0.9l1,0l0.3,0.6l0.3,0.8l0.7-0.3l-0.2-1l0.2-0.9l1.2-0.3l1.5,0.4l1,0.8
		l0.5,1.3l-0.5,1.1l-0.6,1.4l-0.5,1.1l-0.7,1l-2.3,0.4l-0.5,0.4l-1.5-0.3l-0.4-0.6c0,0-0.8,0.2-0.7,0.3c0.1,0-0.2,0.6-0.2,0.6h-1.4
		l-0.4-0.8h-1.2l-1,0.6l-0.6,0.2l-0.1,0.4h-0.5l-0.7-0.3l-0.6,0.3l-1,0.3l-0.6,0.5l-0.9,0.6L94.1,81l-1.7,0.8l-1.9,0.2l-3.3-0.2
		l-1.5-0.8l-0.3-0.6l0.4-0.6l2.2-0.5l1.3-0.7l1.4-0.3l3.2-0.1l1.1-0.7l0.9-0.6l-0.2-0.8L95,76.4L94.1,77l-2.2,0.4L91.2,77l-0.5-0.5
		L90,77.1l-0.8,0.3l-2.4,0.3L86.7,77l0.4-1l0.6-0.3l-0.4-0.3l-1.1-0.1l-0.3,0.2l-0.2,0.8l-0.8,0.3l0,0.8L84.2,78l-0.8,0.3l-0.7-0.1
		l-0.3-1h-0.9l-0.4,0.5L81,78.4l-0.5,0l-0.9-0.7l-0.8-0.9L78,77.1l-1.1,0l-1-0.1L75,76.6z"/>
	<path class="st0" d="M115.2,77.3l0.3-1l0.8-0.8l0.6-0.2l0.6,0.2l0.8,0.8l0.4,0.6l-0.5,0.7l-0.7,0.3l-1.1,0.1l-0.7-0.3L115.2,77.3z"
		/>
	<path class="st0" d="M84,65.2l-0.1,0.5l0.5,0.2l1.8,0.2l1.3-0.4l-0.1-0.6l-0.7-0.3L85,64.9L84,65.2z"/>
	<path class="st0" d="M83.2,56.4l0.7-0.8l1.3-0.3l0.8,0.9l1.2,0.8l-0.3,0.8l-1.1,0.5l-1-0.6l-1-0.8L83.2,56.4z"/>
	<path class="st0" d="M88.5,57.2l0.8,2.2L90,60l1,0.6l1.1,0.4l1.9-0.4l2.2-0.4l1.4-0.5l0.7-0.6v-1.2l-0.8-0.1l-1,0.2l-0.6-0.7
		l0.2-0.6l1.1-0.1l1.8-0.4l0.9-0.4L99.7,55l-1.3-0.2L96.5,55L96,55.3l-0.5-0.4l-1.2,0.2L91,56l-0.8,0.5l-1.3,0.2L88.5,57.2z"/>
	<path class="st0" d="M88.9,53.4l-0.2-0.6l0.6-0.6l1.7-0.7l1-0.4l0.7,0.1l1.1-0.2l1.1-0.7l0.8-0.4l0.9-0.3l0.5-0.3l0.6,0.3l0.9,0.4
		l0.7,0.7l0.7,0.3l0.7,0.2l0.3,0.6l-0.1,1l-0.5,0.4l-1.5,0l-1.3,0.3l-1.2-0.3l-0.6-0.4l-0.7-0.2l-0.6,0.3l-0.5,0.8h-0.7l-0.5-0.6
		l-0.8-0.3l-1.4,0.2L89.9,53l-0.6,0.4L88.9,53.4z"/>
	<path class="st0" d="M120.4,72.7l0.9-0.7l2.1-0.5l-0.7,0.7l-0.7,0.5l-1.6,0.3L120.4,72.7z"/>
	<path class="st0" d="M118.9,72.3l-0.5-0.3l0.6-0.4l1.3-0.4l2.2-0.4v0.4l-1.2,0.4l-1.1,0.3L118.9,72.3z"/>
	<path class="st0" d="M120.3,70.7H117l-0.3-0.6l1.3-0.4l1.9-0.2l0.9-0.3l0.8,0.2l0.5,0.4l-0.5,0.6L120.3,70.7z"/>
	<path class="st0" d="M119.9,68.6l0.2-0.6l-0.5-0.3l-0.9-0.5l-1-0.5l-0.4-0.4l-1.1,0.4l-0.1,0.8l0.7,0.9l0.5,0.6L119.9,68.6z"/>
	<path class="st0" d="M111.4,57.9h0.8l0.8,0.4l0.8,0.7l0.5,0.8l0.3,0.8l0.5,0.2l0.7,0.5l0.4,0.7l-0.3,0.6l-0.8,0.2l-0.7-0.5
		l-0.9-0.3l-0.4-0.7l-0.5-0.8l-0.3-1.3l-0.4-0.8l-0.5-0.4L111.4,57.9z"/>
	<path class="st0" d="M122.3,73.6l-0.5,0.5l-0.2,0.6l0.5,0.4l0.5-0.6h1l1.3-0.1l0.5-0.4l0.4,0.4l1.4-0.3l0.7,0.3l0.6-0.3l0.7,0.1
		l1.2-0.4l1-0.1v0.6l-0.8,0.6l-0.3,0.5l-1.3,0.3l-0.3,0.7l1,0.1l-0.1,0.4l-0.3,0.6l0.7,0.9l0.7,0.2l1.4-0.2l0.4-0.5l0.4,0.3l1.5-0.1
		l2.1-0.1l-0.2-0.7l0.5,0l0.8,0.3l-0.2-0.7l-0.8-0.3l-0.3-0.5l0.3-0.8l0.7-0.7l0.3-0.1l0.4,0.4l0.4,0.7l0.1-1.3l-0.4-0.6l-0.9-0.2
		l0.1-0.6l0.5-0.4l-0.2-1l0.5-0.8l-0.1-0.8l-0.4-0.4l-0.4-0.6l0.4-0.9l-0.4-0.4l-1.4-0.4l-0.7-0.8l-1.2,0.4l-0.4,0.5l0.2,0.6
		l-0.4,0.4l-0.6-0.1l-0.4-0.6l-0.9-0.8l-1.6-0.2l-1,0.5l-1,0.5l-0.2,0.5l0.8,0.4h1.9l0.2,0.4l-1.1,0.4l-0.2,0.5h1.3l0.3,0.3
		l-0.3,0.4l0.2,0.7l0.6,0.4l-0.5,0.3l-0.9-0.2l-0.5-0.6l-1.1-0.7l-0.9-0.9l-0.8-0.8l-0.5-0.5l-0.8-0.3l-0.8,0.4l-0.5,1l0.4,0.3
		l1,0.2l-0.6,1.1l0.6,0.4l0.5,0.2l0,0.4l0.3,0.5l-0.1,0.4l-0.6-0.1l-0.5-0.5l-1.1-0.2l-0.3,0.4l-0.1,0.7L122.3,73.6z"/>
	<path class="st0" d="M141.2,77.9l0.6,0.6l1,0.2l0.5,0.6l1.2,0.3l1.2,0.3l0.6,0.4l0.8,0.3l3.3-0.2l0.2-1.4l-0.5-2.5l-0.7-0.8l-1-0.9
		l-0.5-0.4l-1.2-0.4l-1.6,0.4l-1.2,0.4l-0.8,1.1l-0.4,0.7l-0.8,0.4L141.2,77.9z"/>
	<path class="st0" d="M122.5,57.3l0.3,0.5l0.8,0.4l0.7,0.1l0.9-0.4l0.8-0.1l0.6,0.3l0.5-0.4l-0.7-0.6l-1.4-0.4l-2.1,0.1L122.5,57.3z
		"/>
	<path class="st0" d="M114.9,51.2l0.5-0.3l1.3,0.2l0.9,0.4h1.7l0.5-0.3l-0.2-0.6l-1.1-0.2l-0.3-0.4l1.4-0.2l0.2-0.7l-0.2-0.3h-1
		l-0.9,0.3l-0.3-0.5L118,48l-0.2-0.7l-0.7-0.3l-1,0.3l-0.5,0.8l-0.7,0.7l-0.2-0.4l0.4-0.9l0.2-0.6l-0.7-0.5l-1.1,0.5l-0.6-0.1
		l-0.6-1.1l0.2-0.7l0.8-0.7l2.5-0.4l1.7-0.4l1.2,0.4l1.5,0.7l0.7,0.8l0.7,1l-0.2,0.9l0.2,0.5l0.7,0.2l0.5-0.8l1.2-0.9l0.9,0.1
		l0.8,0.7l0.9,0.3l-0.1,0.6l-0.2,0.4l0.3,0.5l0.7,0.2l1.7-0.3l0.5,0.6c0.2,0.1,0.4,0.1,0.7,0.2c0,0.2,0,0.4,0,0.6
		c0.1,0.1,0.2,0.2,0.3,0.4c0.2,0,0.5,0.1,0.7,0.1c0.1,0.2,0.1,0.5,0.2,0.7c-0.2,0.3-0.4,0.5-0.6,0.8c0.1,0.3,0.2,0.6,0.3,1
		c0.3,0.3,0.5,0.5,0.8,0.8c0.2,0.2,0.5,0.5,0.7,0.7c0.2,0.3,0.3,0.6,0.5,0.8c-0.1,0.4-0.2,0.9-0.2,1.3c-0.3,0.1-0.7,0.2-1,0.3
		l-1.3,0.2l-1.3-0.4l-0.8-0.4l-0.4-0.3l-0.4-1.3l-0.4-0.7l-0.8-0.2l-1.2-0.5l-0.8-0.2l-0.8-0.1l-1.6,0.2l-0.3-0.6l-0.2-0.2h-1.3
		l-1.1,0.4l-1.5,0.6l-1.2-0.2l-0.8-0.5l-0.5-0.6l-0.3-0.6L114.9,51.2z"/>
	<path class="st0" d="M130.1,36.6l-0.3,1.3l0.3,0.6h0.6l1.3-0.1l0.4,0.4l0.3,0.9l0.7,0.2l0.6,0.3l0.4-0.6l-0.2-0.7l-0.3-2l-0.5-0.5
		l-1.7-0.2l-0.4-0.4l-0.7,0.3L130.1,36.6z"/>
	<path class="st0" d="M158.1,59.1v1.4l0.4,0.6l0.9,0.4l1,0.7l1.2-0.2l0.8-0.8l-0.1-0.9l-0.4-0.5l-1.1-0.8l-1.6-0.3L158.1,59.1z"/>
	<path class="st0" d="M158.1,62l-0.1,0.5l0.5,0.3l0.6-0.2l-0.3-0.5H158.1z"/>
	<path class="st0" d="M137.9,55.2c0,0.2-0.1,0.4-0.1,0.5l1,0.2l0.6,0.6l0.3,0.9l0.7-0.2l0.3-0.6l0.7-0.3l0.5,0.4l1.1-0.2l1.4-0.5
		l1.3-0.3l0.4-0.7l-0.5-0.7l-0.8-0.6l0.1-0.5l0.7-0.2l0.7-0.2l-0.5-0.7l-1.9-0.8l-1,0.3l-0.9-0.3l-0.4-0.8l-0.5-0.4l-1.5-0.4
		l-0.6-0.4l-1.3-0.4l-1-0.3l-1.2,0.6v0.8l0.5,0.5l0.1,0.7l-0.5,0.2l0.2,0.6l0.4,0.4l0.4,0.6l1.1,1l1.3,0.1l0.7,0.3
		c0.1,0.1,0.2,0.2,0.3,0.3c0,0.1,0,0.2-0.1,0.3h-1C138.5,55.1,138.2,55.1,137.9,55.2L137.9,55.2z"/>
	<path class="st0" d="M142.2,58.8l0.6-0.8l1.5-0.3l0.7,0.3l0.9-0.1l0.6-0.2l1.4,0.3l1.5,0.2l0.9-0.4l1,0.4l0.3,0.6l-0.8,0.4
		l-0.5,1.1h-1.9l-1-0.3l-1.8,0.2l-2.7-0.1l-0.6-0.6L142.2,58.8z"/>
	<path class="st0" d="M140.4,64.4l0.3,0.6l0.8,0.1l-0.2,0.6l-0.6-0.1h-0.6l0.3,0.5l1,0.2l0.7,0.4l0.7,0.4l0.5,0.1l-0.2,0.9l0.5,0.3
		l1.9,0.2l-0.1,0.5l-0.1,0.5l0.9-0.1l0.5-0.4l1.2-0.1l1.8,0.3l1.1-0.5l1-0.1l0.7,0.8l0.7,0.9l0.6,1.1l1.1,0.8l0.4,0.2v1.4l-0.2,0.8
		l-0.7,0.6l-0.3,1.1l0.1,0.7l0.9,0.4l-0.2,0.9l0.4,1.4l1.4,0.7l0.8-0.2l0.6-0.8l0.8-0.2l0.3,1.1l0.7,0.3l1.5,0.6h0.9l1.3-0.3
		l0.3-0.5l0.4-0.7l0.7,0.2l0.4-0.5l0.5-0.3l0.7,0.8v0.8l-0.3,0.4l0.1,0.6h2.4l2.3-0.2l0.9-0.3l0.7,0.5l1-0.5l0.3,0.5l1.1-0.2
		l0.4-0.8l0.6,0.2l0.3,0.6l0.3,0l0.2-0.7l0.8,0.2l0.3,0.4l1.9,0l1.8-0.5l0.3-0.9l-0.3-0.7l0.3-0.3l0.7,0.4l0.5,0.6l0.2,0.9l0.7,0.4
		l2.1,0.1l0.9,0.3l0.8-0.3l0.6-0.4l2.4,0.2l0.9-0.5v-1.1l0.3-0.3l1.4,0l1-0.3l-0.4-0.7l-0.6-0.1l-1,0.3l-0.7-0.1l-0.1-0.5l0.9-0.5
		l1-0.4l0.4-0.6l-0.3-1.1l-1.3-0.1l-0.3-0.9l-1.2-0.4l-0.8,0.3l-1.1-0.3L189,73l-2.4-0.5l-1.9,0.5l-0.9,0.4l-1.7-0.2l-0.7-0.6
		l-0.9,0.4l-1.3,0.6l-2.2,0.4l-1.8,0.5l-0.7,0.4l0.2,0.4l-0.7,0.4l-1.1,0.1l-0.2-0.6l-1.5-0.4l-0.9-0.8l-0.6,0.6l-0.5,0.2l-0.3-0.5
		l-0.5,0.2l-0.6,0.3l-0.9-0.1l-1-1.1l-0.7,0.7l0.3,0.7l-0.2,0.3l-0.5-0.2l-0.7-0.8l-0.4-1.9l-1.3-0.3l-0.4-0.8l-0.5-0.4l-0.8,0.6
		l-1-0.1l-0.5,0l-1,0.1l0.1-0.6l0.5-0.3l-0.2-0.5l-1.1-0.2l-0.1-0.5l0.6-0.2l0.6,0.2l2.1,0.1l1.2,0.2l1.9-0.2l-0.2-0.7l-1.9-0.3
		l-1.2-0.5l-2.1,0l-0.7-0.3l-0.7-0.3l0.2-0.4l1.2,0l0.7,0.5l0.7-0.1l-0.2-0.6l-1.3-0.7l-1.2-0.2l-1.3,0.2l-0.9,0.4l-1.4,0.2
		l-0.7,0.1l-0.5-0.2l-0.9,0.1l-0.6,0.9l-0.5,0.1l0-0.5l0.5-0.6l0.6-0.8l-0.3-0.6l-1-0.9l-0.9-0.4l-0.9,0.4l-0.7-0.2l-0.6-0.5
		l-1.8-0.1l-1.1-0.6l-2.2,0.2l-1,0.5L140.4,64.4z"/>
	<path class="st0" d="M160.2,65.5l0.7-0.3h0.8l0.5,0.4l-0.2,1l-0.1,0.8l-0.4,0.4l-0.6-0.6l-0.5-0.5l-0.5-0.7L160.2,65.5z"/>
	<path class="st0" d="M163.4,65.2l0.2,0.9l-0.4,0.8l0.2,0.5l0.9,0.5l1-0.2v-0.7l0.5-0.5v-0.9l0.4-0.2l0.3,0.6l0.4,0.5l0.2,1.7
		l2.3,0.2V68l-0.2-0.5l0.6-0.6v0.9l0.8,0.1l0.4,0.6l0.7,0.2l0.1-0.7l0.6-0.4v-0.5L173,67l0.4,0.3l-0.2,0.7l0.4,0.7l2.3,0.2l0.7,0.3
		l2-0.2l-0.7-0.6l-0.7-0.4l0.1-0.6l0.6-0.3l0.3,0.6l1.2,0.1l0.2-1.1l0.6-0.2l0.4,0.2l0.2,0.8l1.9,0.7l0.2-0.6l-0.3-0.5l-0.5-0.3
		l0.2-1l0.6,0.4l0.5,0.5l0.3,1l0.5,0.4h1.8l0.1-0.4l-0.2-0.6l-0.8-0.7l-0.1-0.6l0.4-0.1l0.7,0.3l0.6,0.4l0.3,0.3l0.4,0.9l1.3-0.3
		l0.8-0.1l0.8,0.5l0.6,0.7l-0.3,0.7l-0.5,0.6l0.2,0.3l1.3-0.4l2.1-0.5l1-0.6l1-0.2l0.8-0.8l0.7-0.8l0.6,0.3l0.3,0.6l0.6-0.2l0.5-0.8
		l0.8-0.4v-1.6l-0.6-0.9h-0.5l-0.9,0.6l-0.5,0.7l-0.5,0.1l-0.5-0.4l-1.3-0.3l0.2-0.7l1-1l-0.7-0.5l-1.3-0.3l-0.7,0.3l-0.6,0.6
		l-0.8,0l-0.1-0.6l-1.8-0.4l-1.5,0.2l-0.5,0.5l-1,0l-0.8-1l0.6-0.3l1.9,0.2l-0.8-0.7l-0.5-1v-0.7l0.7,0.7l1,0.7l1.5,0.7l2.3,0.5
		l1.6-0.3l1.3,0.2l0.7-0.5l0.9,0.1l1-0.5l0.7-0.7l0.6-1l-0.5-0.3l-0.3-1.2l-1-0.4l0.3-0.8l1.4-0.2l3.2,0.6l1-0.6l0.9-0.4l0.8,0.2
		l0.5,0.1l0.6-0.8l-0.6-0.3h-1.4l-1.6-0.2l-0.2-0.4l0.5-0.6l3.3,0.3l0.6-0.1l0.9-0.9l-0.3-0.5l-2.7-0.4l-1.4-0.5l0.2-0.6l1.3-0.2
		l0.6,0.4l2.3-0.1l1.2-0.6v-1l-0.3-0.9l-1.3-0.4l-2,0.3l-1.1-0.1l0.2-0.4l1.2-0.2l-0.5-0.6l-1.6-0.1l-1.7,0.4l-2,0.3l-0.6,0.8
		l-0.8,0.8l-0.5-0.1v-0.6l0.4-0.4l0.8-0.9l0-0.5l-0.1-0.3l0.8-0.1l1.2,0.1l3.3-0.1l-1.3-0.5h-2.9l-1-0.5l0.7-0.3h1.1l1.9,0.3h2.2
		l1,0.7l1.4,0.5l1.2,0.3l1.1-0.3l-0.8-0.8l0.7-0.7l-0.7-0.1h-3.7l-0.8-0.2h-3.8l-1.1-0.3l-0.6-0.3l0.4-0.5l1.5,0.2l0.1-0.6l0.7-0.2
		l0.9,0.9l1-0.1l1.3,0.2l-0.6-0.7l-1.1-0.4h-1l-0.9-0.4l0.4-0.5l1.3,0.1l1.4,0.2l1.1,0.6l1.4,0.6l1.4,0l0.2-0.9l0.9,0.2l1.8-0.1
		l0.4-0.7l0.6,0.4l1.5-0.2l0.4-0.6l-0.8-1.3l-2.3-0.5l-2,0.1l-0.2-0.5l1-0.6h1.7l0.8,0.2l2.2,0.5l0.6,1l1.6,0.3l2.6-0.5l1.7-1.3
		l-1.3-0.2l0.1-0.7l0.9-0.3l1-0.3l0.3-0.8l-0.6-0.3l-1.4,0.3l-1.5,0.3l-1.1,0l-0.5-0.3l0.3-0.1l-0.4-0.6l-0.2-0.6h0.6l0.8,0.6
		l0.8,0.3l1.3-0.6l1.3-0.3l1.5,0.2l0.6-0.2l-0.2-0.8l-0.8-0.3l-0.4-1.1l-0.5-0.7l0.3-0.5l0.8,0.6l0.8,1.3l1.3-0.1l1-0.8l0.7-1.3
		l1.4-1.3l1.5-1l1.5-0.9l0.7-0.8l1.1-0.5l1.4-0.8l0.9-1.2l1-0.8l1.5-0.4l1.7-0.8l1.2-0.8l0.6-0.8l-0.5-1l-2,0.4l-3.1,0.9l-3.2,0.9
		l-2.1,0.9l-2.4,0.7l-1.5,0.5l-1.4,0.7l-0.7,0.1l-0.2-0.7l1.3-0.8l2-0.7l1.9-0.6l1.6-0.6l1.7-0.6l0.9-0.4l0.6-0.1l-0.3-0.5h-2.4
		l-1.7,0.4l-1.1-0.1l-0.6-0.9l-0.6-0.6l0.6-0.4l1.1,0.8l0.9,0.3l1.9-0.5l3.4-0.1l2.1,0.1l0.6-1l0.7-0.7h1.6l1,0.4l1,0l-0.2-0.8
		l1.3-0.1l1.2-0.8l1.6-0.7l1.2-1.1l1.1-0.2l0.6-0.6l0.3-0.8l1-0.3l1.1-0.7l0.4-1.3l-0.5-1.2l-1.3-0.8L248,8.2l-1.3,0.5L246,9.6
		l-0.5-0.4l0.2-0.9l0.6-0.6l-0.9-0.9l-1.3-0.8l-0.3-0.4l0.4-0.3h0.6L244.6,4h-1.1l-1,0.5l-0.5,0.3l-0.8-0.3l-0.4-0.8l-0.3-0.9
		l-0.8,0.3l-0.4,1L239,4.5L238.6,4L238,3.8l-1.5,0.6l-1.2,0.5l-0.6,0.5L233,6l-0.5,0.6l-1.2,0l-1.9,0.4l-0.7-0.2l0.5-0.8l1.8-0.4
		l1.5-0.5l1.7-0.7l1.1-0.8l0.2-0.7l-1.8-0.3l-0.9,0.1l-1.4-0.3l-0.8,0.3l-0.8-0.8h-0.8l-0.5,0.6L227.7,2l-0.3-0.6h-0.7l-0.6,0.3
		l-0.6-0.3L225,0l-2.5,0.3l-1.8,0.4l-0.2,0.6l0.6,0.8l0.5,0.5l0.1,0.6l-1-0.3l-0.9-0.7L219,1.3l0.3-1L218.9,0l-2.8,0.4l-1.6,0.9
		l-0.9,1L213.6,3l0.9,0.9l1,0.8l0.8,0.3l0.3,0.6l-0.3,0.3l-1.1-0.3l-1.2-0.5l-1.4-1l-0.6-1.2l-0.6-1L211,1.5l-0.9-0.4l-1-0.1
		l-1.4,0.3L206,0.7l-0.8-0.2L204,0.7l-0.7-0.3l-1.9,0.4l0.2,0.8l0.5,1.1l1.2,0.2l0.6,0.6l0.6,0.7l0.6,0.5l0.3,1.1l0.8,0.5l0.7,0.3
		l0.3,0.5l-0.6,0.7L205.7,8L205.3,7l-0.9-0.6l-0.8-0.2l-0.2-0.9l-0.6-0.7l-0.6-0.8l-1-0.5l-0.9-0.7l-0.6,0.1l-1,1l-0.5-0.2V3.1
		l0.6-0.5l-0.2-0.5l-0.7,0.6l-0.6-0.3l-0.8,0.4L196,2.7L195.4,2l-1.1-0.1l-1,0.5l-0.8,0.5l-0.2,0.3l0.5,0.6l0.5,0.6l0.1,1.5L193,6.2
		l-0.6-1.1l-0.7-0.5l-1.3-0.4L189,4.1l-0.4,0.3l0.3,0.7l0.7,0.5l0.7,0.6l0.6,0.5l0.6,0.5l-0.1,0.7l-0.8,0.4l-0.7-0.5l-0.7-0.8
		l-1-0.5l-1.6-0.5l-0.5,0.4l0,0.8l0.6,0.5l0.7,0.4l0.5,0.4l-0.3,0.2L187,8.6l-1.4-0.1l-0.8,0.7L185,10l0.4,0.6l1.2,0.6l0.8,0.6
		l1.2,0.6l1.7,0.7l0.6,0.8l0.9,0.5l1.5,0.3l0.7,0.3v0.6l-0.6,0.3l-0.5-0.7l-1.8-0.1l-1.4-0.9l-1.5-0.6l-1.2-0.7l-1.2-0.8l-1-0.8
		l-0.7-0.1l-0.3,0.5l0.8,1l0.5,0.6l0,0.8l-1.6,0l0.3-1l-0.7-0.7l-0.6-1l-1-1l-2-0.3l-1.1-0.5L178,9.1l-0.8-0.4l-1.9,0.4l-0.1,0.5
		l0.8,0.6l0.4,1.2l-1,0.5l-3,0.2l-0.3,0.5l0.5,0.9l1.7,0.2l1.3,0.5l1.3,0.2l1.2,0.3l0.1,0.3l-0.8,0.6l-0.6-0.5l-1.1-0.2v0.6l0.1,0.4
		l-0.4,0l-0.8-0.7l-1-0.7l-2,0l-0.4,0.7l0.3,0.5l-0.3,0.3l-0.5-0.4l-0.4-0.6l-0.1-0.7l-0.7-0.3l-1.2-0.2l-1.8,0.3l-1.4,0.8l-0.2,0.7
		l0.4,1l-0.2,0.2l-0.5-0.8h-0.7l0.2,0.9l-0.2,0.6l-0.9-0.5l-0.6-0.8l-2.4,0.3l-1.6,0.8l-0.2,0.7l-1.2,0.1l-0.6,0.6l-0.5,1.1l0.2,0.8
		l0.6-0.1l0.6-0.3l0.5,0.2l0.7-0.3l0.6-0.8l0.8-0.3l1.2-0.2l0.7,0.5l1,0.4l-0.8,0.7l-2.4,1.1l0.6,0.6l1.3,0.3l1.7-1l1.6-0.8l1.5-0.4
		l1.4-0.2l1.1,0.5l-0.2,0.4l-2.7,0.2l-1.6,1l-1.7,0.9l0.3,0.5l1.1,0.6l-0.1,0.6l-1.4-0.3l-0.7,0l-0.5,0.5l0.1,1.2l1.4,0.6l1.5-0.1
		L166,26l3.6-0.1l2-0.5l1.7-0.4l1.7-1.2l1.8-0.7l1.6,0.1L178,24l-1.7,0.5l-1.3,0.8l-0.4,0.6l-1.3,0.3l-1.2,0.6l-2.2,0.3l-2-0.3
		l-2.2,0.2l-1.5,0.6l-0.1,0.7l1.5,0.8l2.4,1.1l2,0.6l0.8-0.4l0.8-1.4l1-0.7l0.7-1.1l0.8-0.6l1.5-0.6l2.2-0.2l3-0.6l2.5-0.4l1.5-0.3
		l0.9,0.3l-0.9,0.4l-2.7,0.5l-2.4,0.6l-2.5,0.1l-1.7,0.7l-1.3,1.4l-1.3,1.4l-0.4,0.9l0.7,0.5l1.4,0.2l1.1-0.7l0.3,0.6l1.6,0.3
		l2.6-0.1l1.3-0.5l0-1.6l0.6-0.5l0.9-0.4l0.5,0.1l-0.4,0.6l-0.3,0.4l0.6,0.2l0.9-0.6l1.7-0.5l1-0.4l0.7,0.3l-0.4,0.6l-1,0.6
		l-1.5,0.3l-1,0.5l0,0.8l1.6-0.3l2.5-0.3l2.4-0.6l2.1-1l1.9-0.8l1.3-1.4l-0.3-0.8l0.4-0.7l-0.3-0.8l0.4-0.5l1,0.8l0.6-0.4l1.1-1.4
		l1.3-0.7l1.4-0.6l1.1-0.4l1.1-0.1l-0.3,0.8l-2.3,0.8l-1.2,1l-1.1,1l-0.5,0.9l-0.9,0.4l-0.2,1.4l1,0l1.4-0.4l1.6-0.2l1.3,0.2l2,0.1
		v0.6l-2.1,0.3l-2.8,0.1l-2.7,0.8l-1.5,0.6l-1,0.4l-0.2,0.6l0.8-0.1l1.4-0.3l1.7,0.1l1.4,0.2l-0.2,0.5l-2.4,0.3l-4.2,0.3l-0.5,0.6
		l-3.4,0.6l-4.7,0.8l0.2,0.6l1.4,1.6l1.9,1.3l1.6,0.3l-0.4,0.6l0,1.8l1.5,0l0.9,0.4l1.4-0.5l1.1,0.1l0.1,0.7l-1.9,0.3l-0.4,0.3
		l-1.6-0.2l-1.1-0.4l-0.4,0.4l-0.7-0.4l-0.2-0.8l-0.7-0.5l-0.4-1.2l-1.5-1l-1.4-0.9l-1.4-1.2l-0.7-0.5l-1.4-0.5l-2.7,0.2l-1.4-0.2
		l-0.8-0.5l-1.6,0.1l-0.7,0.6l-0.1,1l0.5,1.2l1.4,0.1l1.4,0.5l0.7,0.5l-0.3,0.3l-0.8-0.3l-2.1-0.4l-0.2,1.3l0.3,0.8l1.4,0.3l1.6,0.2
		l0.9,0.6l0.7,1.2l0.7,0.6l0.5,0.2l0.3,1.3l0.3,0.6l1,0.5l0.5,0.5l0.5,0.5l0,0.4l-0.7,0l-0.6-0.2l-0.7-0.6l-0.8-0.2l-0.6,0.6
		l0.2,0.5l1,0.3l1.3,0.4l2.1,0.1l2,0.2h1.1l0.7-0.4l0.7-0.7l0.6-0.2l0.2,0.3l-0.4,0.4l-0.2,1.2l-1.5,0.2l-1.5,0l-0.8-0.3l-0.3,0.2
		l0.2,0.5l1.2,0.4l0.6-0.2l0.2,0.3l0,0.7l0.3,0.4l-0.1,0.4l-0.9-0.2l-0.7-0.8l-1.1-0.3l-1-0.7l-1.2-0.5l-3-0.2l-0.5-0.3l-0.7-0.1
		l-0.6,0.4l-2.6,0.4l-1.1,0.2l-0.9,0.9l-0.3,1.1l-1,0.5l-0.4,0.8v1.3l0.4,0.5v0.8l1,0l0.7-0.3l0.9-0.5l0.9-0.5l0.4-0.5l0.5-0.2
		l0.2,0.9l-0.4,0.3l-0.6,0.7l0,0.5l1.1-0.3l1.4-0.7l0.7-1l0.3-0.9l0.5-1l0.6-0.2l-0.2,1.9l-0.3,0.7l0.2,0.6l-0.5,0.3l0.2,0.8
		l-1.1,0.1l-0.9,0.3l-0.3,0.5l0.5,0.2l0.4,0.3l0.2,1.7l0.9,0.3l0.5-0.4l0.8-0.2l0.1,0.5l-0.7,0.2l-0.3,0.4l0.4,0.3l2.5,0l0.9-0.5
		l0.8-0.9l1.4-1.6l0.4-1.2l0.7-0.6l0.5,0.2l-0.2,1.4l-0.8,1.3l-1.3,1.4l-1.5,1.3l-0.3,0.7l-2.1,0l-0.7,0.4l-1-0.3l-1.6-0.3l-0.9-0.7
		l-0.4-0.7l-0.4-1.1l-0.9-0.8l-1.2-0.5l-1.5-0.3l-1.9,0.4l-1,0.2l-0.1,1.2l0.5,0.5l1.1,0.8l0.1,1.1l0.9,0.2l1.1-0.4l0.3,0.4
		l-0.4,0.4l0.1,0.6l0.9,0.3l-0.1,0.5l-0.6,0.2l-0.5-0.3l-0.8-0.2l-0.6,0.4l-2.5-0.1l-1.2,0.9l-1.7,0.7L163.4,65.2z"/>
	<path class="st0" d="M125.6,66.8l1.2-0.4l0.7-0.5l1.3-0.2l-0.2,0.6l-1.3,0.3l-1.6,0.9L125.6,66.8z"/>
	<path class="st0" d="M146.9,72l-0.2,0.5l0.8,0.7l0.6-0.7l-0.3-0.2l-0.1-0.7l-0.5,0.1L146.9,72z"/>
	<path class="st0" d="M139.8,75.3l0.3-0.5l1.2-0.2l0.4-0.9l0.7,0.3l0.3,0.7l-0.5,0.4l-0.7-0.2l-0.7,0.6l-0.7,0.3L139.8,75.3z"/>
	<path class="st0" d="M120.9,53.6l-0.4,0.3l-0.5,0.5l0.4,0.4l0.4-0.6l0.2-0.3L120.9,53.6z"/>
	<path class="st0" d="M139.6,90.3l-0.2,0.6l0.5,0.4l0.4,0.2l0.6-0.5l-0.3-0.6l-0.7-0.4L139.6,90.3z"/>
	<path class="st0" d="M128.4,105.6v0.9l0.8,0.7l0.3-0.8l-0.5-0.7L128.4,105.6z"/>
	<path class="st0" d="M114.6,124.7l0.2,0.5l0.8,0.5l0.6-0.2l-0.3-0.8l-0.8-0.3h-0.5L114.6,124.7z"/>
	<path class="st0" d="M179.3,144.6l0.5,0.9l0.5,0.5l0.2,1.1l0.9,0.2l0.7,0.8l0.8-0.1l-0.1-0.5l-0.7-0.2l-0.5-0.2l-0.3-0.5l0.3-0.5
		l-1-1l-0.6-0.3L179.3,144.6z"/>
	<path class="st0" d="M196.9,123.6l0.7,0.3v0.6l-0.3,0.8h-0.6v-0.5l0.5-0.5l-0.5-0.5L196.9,123.6z"/>
	<path class="st0" d="M195.9,126.5l-0.2,0.9l0.6,0.2l0.3-0.7l-0.3-0.4H195.9z"/>
	<path class="st0" d="M143.7,80.9l0.2,0.7l1-0.2l-0.2-0.5l-0.4-0.2L143.7,80.9z"/>
	<path class="st0" d="M173.3,47.5l0.3-0.6l1.1-0.4h1.8l-0.4,0.7l-1.6,0.2l-1.3,0.6V47.5z"/>
	<path class="st0" d="M148.2,23.7l0.4-0.7l0.6-0.4l0.8,0.4l0.5,0.3l0.6-0.8l0.9,0.3l0.8,0.6l1.2,0.3l1.2,0.7l0.6,0.6l0.3,1.5
		l0.7,0.6l0.4,1.3l0.6,0.3l0.3,1l0.6,0.3l0.7,0.3l0.2,1.7l2.4,0.3l0.5,0.3l0.4-0.4h1.4l0.2,3.4l0.6,0.3l0.7,0.6h1.2l0.3-0.5
		l-0.3-0.8l-0.7-0.5l-0.1-0.9l0.5-0.7l1.5,0.1l1,0.3l0.2,1.5l-0.2,0.8l-1.1,0.1l-0.1,0.7l0.6,0.3l0.9-0.2l1.1,0.2l0.2,1l-0.4,0.6
		l0.2,0.3h0.7l-0.3,1.6l-0.6,0.8l-0.3,0.4l0.2,0.6l0.8-0.3l1.5-0.9l0.6-0.1l0.8,0.4l0.2,1.6l0.8-0.2l0.2-1.1l0.6-0.2l0.3,0.8
		l0.5,0.8l0.3,0.6l0.9,0.4v0.6l-0.9,0.3l-2,0.8l-1.4,0.6l-0.8,0.2l-0.1,0.7h-0.8l-0.4-0.5l-0.2,1.2l-0.7,1l-0.5,0.7l-0.3,0.7
		l-0.8-0.4l-0.5-1l0.1-0.7l0.4-0.7l0-0.6l-0.5-0.1l-0.6,0.4l-0.2,1.7l0.3,1.4l0.8,0.7l-0.3,0.6l-0.6,0.2l-0.6-0.6l-0.5-0.6l-0.6,0.2
		l0,0.8l0.6,0.7l-0.4,1.6l-0.5,0.6l-0.8-0.3l-1.1-1.7l-1.1-1.1l-0.6-0.7l-0.3,0.5l0.4,0.9l0.8,1.1l0.6,1l-1-0.3l-0.6-0.9l-0.7-0.1
		l-1.1,0.3l0.1,0.4l0.6,0.1l0.1,0.4l-0.5,0.5l-3.4-0.3l-1.5-0.6l-1.5-0.8l-0.9-0.9l0.3-0.5l3.1-0.2l-0.4-0.5l-2.1-0.3l-1-0.3
		l-0.7,0.4l-0.8,0l-0.9-1.1l0.1-0.5l0.3,0.1l0.9,0.4l0.6-0.2l-0.4-0.6l-0.8-0.2l-1.5-0.1l-0.8-0.8l-0.1-0.6l0.8-0.3l1-0.3l0.9-0.8
		l0.6,0.1l0.8,0.2l0.8-0.3l1.9,0.1l1.7-0.1l2.6-0.1l0.3-0.6l-0.6-0.3l-1.8,0.1l-1.8,0.3l-1.9,0l-0.5-0.7l1.1,0l0.8,0.2l1-0.2
		l1.5-0.3l-0.2-0.6l-1.8,0.3h-1.8l0.2-0.5l-0.2-0.6l-0.7,0.3l-0.7,0.3l-0.7-0.3l0.1,0.9h-0.8L151,43l-0.6,0.6l-0.8,1.1l-0.8-0.1
		v-0.8l0.3-0.6l-0.6-0.1l-0.7-0.2l-0.7,0.7l-1.2,0.7l-0.8-0.2l-0.2-0.8l-1-0.3l-0.3-0.8l0.7-0.6l1.6-0.2l1.9-0.6l0.4-0.8l-0.4-0.6
		l-1.2,0.7l-1.7,0.4l-1.3,0.1l-1.1-0.8l-1.1-1.3l0.4-0.4l-0.2-0.5l-0.5-0.5l-0.5-0.9l0.3-0.9l1.3,0.7l1.5,0.7l1.6,0.2l0.8-0.2l1,0.3
		l0.1-0.6l-0.4-0.3l0.1-0.5l0.8-0.4l-0.1-0.6l-0.6-0.2l-0.6,0.8l-1.6,0.6l-0.7-0.4l-0.3-0.7l-1.1,0.2l-1.7-1l0.4-0.4l1.2-0.4l1,0.6
		l1-0.1l-0.6-0.9l-1-0.3l0.1-0.9l1-0.3l0.6-0.1l-0.4-0.6l-1.5,0.1l-0.3-0.6l0.8-0.2l2.1,0.3l0.2,1l1,0.5l1.9,0.4l1-0.1l-0.3-0.7
		l-2.1-0.2l-0.4-0.5l0.3-0.3l1-0.2l-0.3-0.6l-1.5,0.1l-0.4-0.7l-0.7-0.1l-0.7,0.4l-0.3-0.7l0.3-1.2l1-0.9l0.9-0.2l0.9,0.3l0.2,0.7
		l0.7-0.1l0.6-0.6l-0.2-0.3l-0.8-0.3l0.4-0.4l1.4,0.2l0.8,0.4l1-0.3l0.4-0.7l-0.4-0.6l-1.1-0.3l-1.5,0.2l-1-0.3L148.2,23.7z"/>
</g>
</svg>
