<?xml version="1.0" encoding="utf-8"?>
<!-- Generator: Adobe Illustrator 27.1.1, SVG Export Plug-In . SVG Version: 6.00 Build 0)  -->
<svg version="1.1" id="Layer_1" xmlns="http://www.w3.org/2000/svg" xmlns:xlink="http://www.w3.org/1999/xlink" x="0px" y="0px"
	 viewBox="0 0 280 280" style="enable-background:new 0 0 280 280;" xml:space="preserve">
<style type="text/css">
	.st0{fill:#FFFFFF;}
</style>
<g>
	<path class="st0" d="M27.4,157.9c3.2-3.4,6.8-6.4,10.5-9.2c3.7-2.8,7.5-5.5,11.5-7.8c3.9-2.3,7.9-4.6,12.3-6
		c-3.4,4.7-4.9,10-5.6,15.6c-0.2,1.2,0,2.4,0,3.9c0.8-0.7,1.4-1.2,2.1-1.8c3.3-2.9,7.1-5.2,11.4-6.2c3.3-0.8,6.6-0.6,9.8,0.5
		c0.4,0.1,0.7,0.4,1.2,0.7c-0.5,0.5-0.8,0.9-1.2,1.3c-6.1,6.1-11.2,13.1-14.9,20.9c-2,4.2-3.4,8.6-4.5,13.2c-1.1,4.9-1.5,9.8-1,14.7
		c0.9,9.2,4.1,17.5,10.9,24.1c3.7,3.6,8.1,6,13.2,7.3c3.9,0.9,7.7,1.2,11.6,0.5c2.2-0.4,4.4-1.1,6.5-2c4.4-1.8,8.2-4.4,11.9-7.3
		c3.4-2.6,6.4-5.6,9.3-8.8c2.2-2.5,4.4-5,6.1-7.8c1.4-2.2,2.9-4.3,4.5-6.6c0.3-0.2,0.8,0.1,1.2,0.5c2.6,2.4,5.2,4.9,7.8,7.2
		c3.3,2.9,6.8,5.8,10.1,8.7c1,0.9,2,1.8,3.1,2.7c0.6,0.5,0.7,0.9,0.3,1.7c-3.1,6-6.3,11.9-10.2,17.5c-2.5,3.6-5.1,7.2-8.1,10.4
		c-2.6,2.8-5.2,5.6-8,8.2c-1.9,1.8-4.2,3.2-6.3,4.9c-2.5,2.1-5.4,3.8-8.2,5.3c-4.3,2.3-8.7,4.2-13.4,5.5c-2.7,0.8-5.5,1.4-8.3,1.9
		c-2.3,0.4-4.7,0.6-7.1,0.7c-3.2,0.2-6.4,0.4-9.6,0.3c-1.1,0-2.4,0.3-3.5-0.4c-0.1-0.1-0.4,0-0.6,0c-0.9-0.1-1.8-0.2-2.7-0.3
		c-3-0.3-6-1-8.9-1.9c-3.1-1-6.2-2.1-9.2-3.6c-2.5-1.3-5.1-2.6-7.4-4.1c-5-3.2-9.3-7-12.8-11.8c-1.5-2.2-3.4-4.1-5.1-6.1
		c-0.2-0.3-0.5-0.5-0.8-0.7c-1.5-0.7-2.9,0-3,1.7c-0.1,1.4,0,2.9,0.2,4.4c0.3,1.8,0.8,3.5,1.2,5.3c0.1,0.3,0,0.6-0.1,1.1
		c-0.4-0.2-0.7-0.4-0.9-0.6c-1.8-2-3.7-4-5.3-6.2c-1.8-2.4-3.4-5-5.1-7.6c-0.7-1.1-1.3-2.3-1.9-3.5c-1.6-3.2-2.9-6.4-3.8-9.9
		c-0.3-1.1-0.8-2.2-1.1-3.4c-0.4-1.7-0.7-3.4-1.1-5c-0.7-2.8-0.6-5.7-0.8-8.5c-0.3-3.8-0.4-7.5,0.1-11.3c0.1-0.9,0.1-1.7,0.1-2.6
		c0-2.4,0.4-4.8,0.9-7.2c0.3-1.4,0.4-2.8,0.6-4.2c0.2-1.1,0.5-2.1,0.8-3.1c0.8-2.9,1.7-5.7,2.5-8.6c0.2-0.7,0.3-1.3,0.4-2
		c0.2-1.1-0.2-1.9-1.2-2.3c-0.3-0.1-0.7-0.1-1-0.1c-1.3,0.2-2.4,1-3.3,2c-1.2,1.2-2.3,2.4-3.7,3.8c0-0.6-0.2-0.9-0.1-1.3
		c0.3-1.4,0.8-2.9,0.9-4.3c0.1-1.9,0.9-3.6,1.3-5.4c0.3-1.3,0.8-2.5,1.3-3.7c2.2-5.2,5.1-10.1,8.5-14.7c2.6-3.5,5.5-6.6,8.6-9.5
		c2.2-2,4.5-3.8,6.8-5.6c0.7-0.6,0.8-0.5,1.8-0.5c1.1,2.2,1.3,4.4,0.6,6.8c-0.4,1.4-0.5,2.9-0.7,4.3c-0.3,1.8-0.7,3.6-0.9,5.4
		c-0.3,2.4-0.5,4.8-0.7,7.3C27.4,155.8,27.4,156.9,27.4,157.9z"/>
	<path class="st0" d="M228.5,256.5c2.2,2.4,5.1,3.7,8,4.9c2.9,1.1,6,1.6,9.1,2c3.2,0.4,6.3-0.1,9.6-0.9c-1.1,2-2.5,3.3-3.9,4.6
		c-2.4,2.1-5.2,3.8-8,5.3c-2.9,1.5-6,2.5-9.1,3.4c-4.3,1.2-8.7,1.7-13.2,1.8c-1.8,0-3.7,0-5.5-0.2c-3.4-0.5-6.7-1.4-9.8-2.8
		c-5-2.2-9.2-5.5-12.7-9.6c-1.6-1.8-2.8-4-4-6.1c-0.8-1.3-1.5-2.7-2.2-4.1c-0.4-0.8-0.7-1.6-0.9-2.5c-0.4-1.2-0.6-2.5-0.9-3.7
		c-0.4-1.6-0.6-3.2-0.6-4.8c0-0.2,0-0.4-0.1-0.6c-2.2,0.7-5.8,7.7-5.6,13.7c0.2,5.3,1.7,10.1,5.5,14.3c-0.5,0-0.8,0.1-1.1,0
		c-5-1.9-9.1-4.9-12.5-9.1c-1.8-2.2-3.2-4.6-4.3-7.2c-0.7-1.7-1.3-3.6-1.5-5.5c-0.5-3.2-0.1-6.4-0.3-9.6c0-0.9,0.3-1.9,0.3-2.8
		c0.1-3.3,0.2-6.5,0.2-9.8c0-0.9-0.3-1.8-0.5-2.6c-0.3-1.1-0.7-2.1-1-3.2c-0.7-2.4-2.2-4.4-3.8-6.2c-3-3.2-6.4-5.9-9.7-8.7
		c-4-3.3-8-6.5-12-9.8c-2.7-2.2-5.4-4.3-8-6.6c-2.7-2.4-5.1-5.1-6.4-8.5c-0.7-1.7-1.3-3.3-1.5-5.2c-0.1-0.9-0.2-1.9-0.2-2.8
		c0-2-0.3-3.9-0.7-5.8c-0.4-1.8-1.4-3.3-2.7-4.6c-1.7-1.6-3.4-3-5.2-4.4c-2.6-2.1-5.1-4.1-6.7-7.1c-0.6-1.1-1.1-2.3-1.2-3.6
		c-0.1-1.8-0.2-3.6,0.2-5.4c0.2-1,0.5-1.7,1.2-2.8c0.1,0.7,0.3,1.1,0.3,1.4c-0.1,2.9,1.5,4.9,3.5,6.7c2.7,2.4,5.9,3.3,9.4,3.5
		c1.9,0.1,3.8,0.2,5.6,0.7c1.7,0.4,3.4,0.7,4.8,1.9c1.6,1.4,2.4,3.2,2.8,5.3c0.4,2.1,0.6,4.2,1.3,6.2c0.6,1.8,1.5,3.7,3.9,4
		c1.4,0.2,2.8,0.2,4.3,0.3c2.6,0.2,5.2,0.2,7.7,1c2.4,0.7,4.5,1.8,6.5,3.4c4,3.3,8,6.5,11.9,9.8c2.6,2.2,5.2,4.4,7.8,6.5
		c4.4,3.7,8.9,7.3,13.4,10.9c1.9,1.6,4.1,2.8,6.5,3.3c3.9,0.9,7.6,0.2,10.8-2.4c1.1-0.9,2-2,3-3c1.2-1.4,1.7-3.2,2.1-5
		c0.5-2.1,0.7-4.3-0.3-6.4c-0.1-0.2,0-0.4,0-0.6c0-0.1,0.1-0.3,0.2-0.5c1.4,0.6,2.4,1.5,3.4,2.5c3.3,3.2,5.6,7,6.7,11.5
		c0.7,2.7,1.3,5.5,1.2,8.4c-0.3,4.8-1.5,9.3-4.5,13.2c-0.8,1-1.8,1.8-2.7,2.8c0.8,0.6,1.8,0.9,2.8,0.9c1.9,0,3.9,0,5.8-0.3
		c2.4-0.4,4.9-0.8,7.2-1.6c3.8-1.4,7.3-3.4,9.9-6.5c1.4-1.7,2.4-3.7,3.1-5.9c0.6-2,0.9-4,0.6-6c-0.5-3.1-1.8-5.8-3.7-8.3
		c-1.7-2.4-4.1-4-6.5-5.5c-0.9-0.5-1.9-0.7-2.9-1.1c-0.2-0.1-0.4-0.3-0.9-0.6c0.6-0.1,0.9-0.3,1.2-0.3c2.8,0,5.7-0.2,8.5,0.5
		c2.1,0.5,4.3,0.8,6.3,1.4c2.2,0.7,4.4,1.7,6.5,2.7c3.6,1.9,6.7,4.3,9.5,7.2c3.8,4,6.5,8.7,7.9,14.1c0.8,3,1.2,6.1,0.9,9.2
		c-0.3,3-1.1,5.9-2.3,8.7c-1.4,3.4-3.4,6.4-5.8,9.2c-2.2,2.6-4.7,4.9-7.5,6.7c-3.1,2.1-6.5,3.8-10.2,4.9c-2.9,0.9-5.8,1.5-8.7,1.7
		c-2.5,0.1-5,0.3-7.4,0.3C229.6,256.8,229,256.6,228.5,256.5z"/>
	<path class="st0" d="M31.9,147.9c-0.1-0.3-0.3-0.5-0.3-0.7c0.1-0.8,0.2-1.6,0.3-2.4c0.4-2.1,0.6-4.2,1.1-6.3
		c0.4-1.7,0.7-3.4,0.5-5.1c-0.2-2.3-1.2-4.3-2.9-6c-1.8-1.7-3.9-2.4-6.2-2.9c-3.6-0.8-7.1-0.7-10.7,0c-1.5,0.3-3,0.4-4.8,0.6
		c0.3-0.4,0.4-0.7,0.6-0.9c2.1-2.1,4.5-3.8,7-5.3c3.9-2.3,7.8-4.6,11.8-6.7c3-1.6,6.1-3.1,8.8-5.2c1.1-0.8,2-1.8,2.8-2.9
		c0.6-0.7,0.4-1.7,0.1-2.6c-0.7-2-1.9-3.7-3.2-5.3c-2.3-2.9-5.3-5.2-8.3-7.3c-0.5-0.3-1.1-0.5-1.6-0.8c-0.2-0.1-0.2-0.4-0.4-0.8
		c6.9-0.1,13.6,0.1,20.5,1.8c-0.7-1.6-1.5-3.1-2-4.6c-0.6-1.6-1-3.2-1.1-4.9C44,77.9,44,76.1,44,74.4c0-1.7,0.2-3.4,0.4-5.1
		c0.6-0.3,0.9-0.1,1.2,0.5c1.9,4,4.8,7.2,8,10c2.6,2.3,5.5,4.2,8.5,6c3.2,1.8,6.4,3.7,9.5,5.6c4.5,2.7,8.9,5.4,12.4,9.3
		c1.1,1.2,2,2.5,3.1,4c-0.1-0.6,0-1-0.1-1.3c-1.6-3.2-3.4-6.4-6-9c-2.3-2.3-4.7-4.6-7.5-6.3c-0.9-0.5-1.1-1.5-1.4-2.4
		c-1.3-4.6-0.9-9.3-1-13.9c0-2.2,0.5-4.3,0.7-6.4c0.2-1.9,0.7-3.7,1.4-5.5c0.7-1.8,1.3-3.6,2.2-5.3c0.2-0.5,0.5-1,1.4-0.7
		c0,0.5,0,1,0,1.4C77,60.5,78.8,65.4,81.4,70c3.3,6,8,10.8,12.8,15.5c3,2.9,6,5.7,9.1,8.4c3.8,3.3,7.4,6.7,10.8,10.3
		c1.9,2,3.5,4.3,5.2,6.5c0.5,0.7,1,1.4,1.6,2.4c-0.9-3-2.4-5.4-4-7.8c-1.8-2.7-3.9-5.1-6-7.6c-1.1-1.3-2.3-2.6-3.5-3.7
		c-3.1-2.9-6.2-5.6-9.3-8.5c-1.8-1.7-3.5-3.6-5.3-5.5c-0.3-0.3-0.6-0.7-1-1c-1.6-1.2-2-3-2.2-4.9c-0.4-2.7-0.2-5.4,0-8.1
		c0.2-2.5,1-4.9,1.9-7.3c0.2-0.5,0.4-1,0.6-1.5c0.2-0.3,0.3-1,1-0.6c0.1,1.4,0.4,2.8,0.4,4.2c0.1,2.4,0.9,4.6,1.8,6.8
		c1.8,4.4,4.4,8.2,7.5,11.8c2.4,2.9,5,5.6,7.7,8.2c3.6,3.4,7.1,6.8,10.8,10.1c5.1,4.7,9.4,9.9,12.5,16.1c1.3,2.6,2.2,5.3,2.7,8.3
		c0.4,2.2,0.2,4.5,0.2,6.7c0,0.9,0.2,1.3,0.9,1.6c1.5,0.7,2.8,1.6,3.7,3c0.7,1.1,1.2,2.2,1.1,3.5c0,0.2,0.1,0.4,0.2,0.7
		c3.9-1.4,6.3-4.4,8.4-7.8c0.1,0,0.2,0.1,0.3,0.1c0.1,0.8,0.3,1.5,0.3,2.3c0.2,3.1-0.5,6.1-1.1,9.1c-0.7,3.4-2,6.5-3.6,9.5
		c-1,2-2.4,3.7-3.8,5.5c-1.5,1.9-3.4,3.2-5.3,4.6c-0.4,0.3-0.9,0.3-1.5,0.5c0.3-1.4,0.6-2.5,0.8-3.7c0.1-0.5,0.1-1.1,0-1.7
		c-0.3-1.3-0.6-2.7-1.1-4c-0.7-1.7-1.9-3.2-3.8-3.7c-0.3-0.1-0.6-0.4-0.9-0.6c-1.9-0.8-3.9-1.1-5.8-1.6c-2.8-0.7-5.6-0.7-8.4-0.6
		c-0.3,0-0.7,0-1.1,0c0.7-1.3,1.3-2.5,1.8-3.8c0.5-1.2,1-2.5,1.4-3.7c0.5-1.8-0.6-3.4-2.5-4.1c-2.3-0.9-4.7-1.3-7.2-1.3
		c-3.1,0.1-6.1,0.1-9.1,0.4c-4.8,0.4-9.5,1.3-14.1,2.6c-0.1,0-0.1,0.2-0.3,0.4c0.3,0,0.6,0.1,0.9,0c2.9-0.1,5.8,0.3,8.7,1
		c0.5,0.1,1.1,0.2,1.6,0.3c0.9,0.1,1.1,0.4,0.8,1.3c-0.8,2.3-1.8,4.5-2.5,6.8c-0.5,1.7-0.6,3.6-0.3,5.3c0.4,2.4,2.6,3.4,4.6,1.9
		c0.6-0.5,1.3-0.8,2.2-1.3c0,0.4,0.1,0.6,0.1,0.9c-0.7,2.2-1.2,4.5-1.2,6.9c0,0.9,0,1.8,0,2.7c0,1.3,0.7,2.1,1.4,2.9
		c0.6,0.6,1.5,0.6,2.4,0.6c1.5-0.1,3-0.2,4.6-0.3c-0.2,1.1-0.9,1.8-1.5,2.6c-2,3.1-4.9,5.1-8,6.9c-2.3,1.3-4.7,2.3-7.2,3.1
		c-1.9,0.7-3.9,1-5.9,1.4c-0.5,0.1-1,0-1.6-0.1c4.8-3.8,7.4-6.9,8.4-10c-3.3,0.9-6.5,1.7-10.1,1.2c0.4-0.5,0.6-0.8,1-1.1
		c3.1-2.8,4.9-6.3,5.6-10.3c1-5.7-1.2-11.5-6.7-14.6c-3.6-2-7.4-2.8-11.5-2.6c-3.3,0.2-6.4,0.9-9.4,2.5c-0.2,0.1-0.4,0.2-0.7,0.3
		c0-1.4,1.9-5.2,3.8-7.5c1.7-2.3,3.6-4.3,5.8-6.2c2.1-1.9,4.5-3.2,6.9-4.6c0-0.1-0.1-0.2-0.1-0.3c-4-1-8.1-2-12.3-3.1
		c0.3-0.3,0.5-0.7,0.8-0.9c1.7-1.4,3.8-2.3,5.8-3.1c2.6-1,5.1-2,7.8-2.7c2.8-0.7,5.7-1,8.7-1.6c-1-0.2-1.8-0.4-2.7-0.4
		c-2.9,0-5.8,0-8.6,0.3c-2.9,0.4-5.7,1.2-8.5,1.9c-1.4,0.3-2.7,0.8-4.1,1.4c-4.2,1.8-8.3,3.9-11.5,7.3c-0.3,0.3-0.5,0.6-0.9,1
		c4.3,0.3,8.3,1.2,12.4,2.4c-0.2,0.2-0.4,0.5-0.6,0.6c-4.9,1.2-9.5,3.3-13.9,5.6c-2.8,1.5-5.4,3.4-8.2,5c-2.8,1.6-5.2,3.7-7.7,5.6
		C33.6,146,33,146.9,31.9,147.9z M120.2,126.4c-0.4-0.9-0.7-1.6-1-2.3c-2.1-4.2-5.2-7.4-9.2-9.7c-0.7-0.4-1.4-0.9-2.2-0.4
		c0.2,0.6,0.4,1.3,0.6,1.9c0.8,2.1,1.5,4.2,2.8,6.1C113.4,124.9,116.2,126.6,120.2,126.4z"/>
	<path class="st0" d="M45.3,56.3c-1.6,2.8-2.7,5.8-3.4,8.9c-0.5,1.9-0.7,3.9-1,5.9c-0.2,2.2-0.1,4.3-0.1,6.5c0,2.2,0.6,4.4,0.8,6.5
		c0,0.2-0.1,0.5-0.2,0.9c-0.6-0.6-0.9-1.1-1.3-1.5c-2.2-2.2-3.7-4.8-4.9-7.6c-1-2.5-1.8-5-2.6-7.5c-0.4-1.4-0.6-2.9-0.8-4.4
		c-0.6-4.4-0.3-8.8-0.3-13.2c0-1.6,0.3-3.3,0.6-4.9c0.5-2.3,1.1-4.6,1.8-6.9c1.7-5.4,4.3-10.3,7.8-14.7c1.5-1.9,3-4,4.8-5.6
		c3.3-3.1,6.8-6,10.8-8.3C59.6,9,62,7.9,64.5,6.9c2.6-1,5.3-1.9,8-2.5C74,4.1,75.6,4,77.1,3.6c3.3-0.8,6.6-0.5,9.9-1.1
		c1.4-0.2,2.8,0.1,4.2,0.2c1.5,0.1,2.9,0.2,4.4,0.3c4.6,0.4,9.2,1.3,13.6,2.6c5.2,1.6,10,3.8,14.4,6.9c5.9,4.1,10.6,9.3,14.2,15.6
		c2,3.5,3.4,7.2,4.6,10.9c0.7,2.2,0.9,4.5,1.4,6.8c0.4,2.1,0.6,4.2,0.6,6.3c0,2.9-0.1,5.7-0.5,8.6c-0.3,2.4-0.8,4.7-1.4,6.9
		c-0.6,2.2-1.1,4.5-2.2,6.7c-0.9,1.9-1.4,4-2.3,5.9c-2.2,4.8-4.8,9.4-8,13.6c-0.7,1-1.5,1.9-2.3,2.9c-0.4-0.2-0.7-0.4-0.9-0.6
		c-3.6-3.3-7.3-6.6-10.9-10c-3.3-3.2-6.7-6.4-9.4-10.2c-0.7-0.9-1.4-1.8-2.1-2.7c-0.5-0.6-0.4-1.2-0.1-1.8c1.1-2,2.3-3.9,3.2-6
		c0.8-1.8,1.2-3.7,1.7-5.6c0.3-1,0.5-2.1,0.6-3.2c0.2-1.1,0.3-2.1,0.3-3.2c0-1.9,0-3.8-0.1-5.7c0-0.7-0.4-1.3-0.5-2
		c-0.5-2.4-1.1-4.7-2.2-6.8c-1.6-3.3-3.8-5.9-6.8-7.9c-2.1-1.4-4.3-2.5-6.9-2.7c-1.5-0.1-3-0.6-4.4-0.6c-4.1,0-7.7,1.5-11,3.9
		c-3.9,2.8-6.4,6.7-8,11.1c-1.1,3-1.3,6.3-1.1,9.5c0.1,1.9,0.1,3.9,0.9,5.8c0.1,0.3,0.1,0.7,0,0.9c-0.7,1.2-0.6,2.5-0.9,3.7
		c-0.2,1.2-0.4,2.4-0.6,3.7c-0.1,0.8-0.1,1.7-0.3,2.6c-0.3,1.4-0.2,2.9-0.2,4.4c0,1.9,0,3.9,0,5.8c0,0.8,0.3,1.6,0.4,2.3
		c0.1,0.5,0.1,1.1,0.1,1.9c-5.9-2.7-10.4-6.7-14.4-11.2C50,67.6,47.4,62.1,45.3,56.3z"/>
	<path class="st0" d="M279.9,123.5c-2-0.3-4-0.6-6.1-0.7c-2.1-0.1-4.3-0.1-6.4,0c-2.1,0.1-4.2,0.4-6.3,0.8c-2.1,0.4-4.2,0.9-6.2,1.5
		c-2,0.5-4,1.1-5.9,1.7c-2,0.7-3.9,1.4-5.8,2.3c-1.9,0.9-3.7,2-5.5,3c-2.3-1.7-4.9-2.9-7.7-3.7c-2.8-0.8-5.7-1.4-8.7-1.3
		c-3.2,0.1-6.4,0.4-9.4,1.6c-1.4,0.5-2.8,0.9-4.2,1.5c-3.2,1.4-6.2,3.2-8.8,5.7c-3.7,3.6-6.7,7.7-9.8,11.8c-3.1,4.2-5.9,8.5-8.5,13
		c-2.8,4.8-5.4,9.6-7.7,14.7c-0.6,1.3-1.2,2.6-1.8,3.9c-0.2,0.4-0.6,0.7-0.9,1c-2.9-2.4-5.8-4.6-8.6-6.9c-1.7-1.3-3.4-2.7-5.1-4
		c-1.3-1-2.9-1.7-4.4-2.3c-1.4-0.6-1.4-0.8-0.5-2c2.1-2.7,4-5.4,6.2-8c2.3-2.8,4.7-5.5,7.2-8.1c2.2-2.4,4.6-4.7,7-6.9
		c2.3-2.1,4.8-4,7.1-6c3.1-2.6,6.4-4.9,9.9-7.1c3.9-2.5,7.9-4.7,12.2-6.4c1.3-0.5,2.6-1.2,3.9-1.7c3.5-1.1,6.9-2.3,10.5-2.8
		c1.6-0.2,3.1-0.5,4.7-1c-0.4-0.1-0.7-0.2-1.1-0.2c-2.8,0-5.5,0.3-8.3,0.7c-3.3,0.5-6.5,1.4-9.6,2.3c-2.4,0.7-4.6,1.8-6.9,2.7
		c-1.9,0.8-3.8,1.5-5.6,2.5c-2.3,1.2-4.5,2.5-6.7,3.8c-3.2,1.9-6.2,4.1-9,6.5c-2.7,2.3-5.5,4.6-7.7,7.5c-0.3,0.4-0.6,0.9-1,1.4
		c-0.1-0.1-0.3-0.2-0.4-0.2c-0.1-0.3-0.3-0.7-0.2-0.9c0.9-2.2,1.7-4.5,2.7-6.7c1.8-3.9,4.2-7.6,6.6-11.1c2.1-3.1,4.4-5.9,6.9-8.6
		c1.4-1.5,2.8-2.9,4.3-4.3c2.7-2.6,5.7-4.7,8.7-6.8c0.4-0.3,0.9-0.3,1.7-0.6c-1.1,1.7-2,3-2.8,4.4c-0.8,1.4-1.4,2.8-2,4.2
		c-0.3,0.7-0.3,1.5,0.4,2.1c0.7,0.6,1.3,0.6,2.2,0.3c1.7-0.7,3.2-1.8,4.6-2.9c3.8-3,7.5-6.2,11.4-9.1c2.4-1.8,5.1-3.4,7.9-4.4
		c2.3-0.9,4.8-1.3,7.1-1.9c0.3-0.1,0.7,0.1,1.5,0.3c-1.3,0.7-2.2,1.2-3.2,1.8c-2.2,1.4-4.4,2.7-5.9,4.9c-0.3,0.5-0.6,0.9-0.8,1.5
		c-0.6,1.5,0.2,2.8,1.8,2.8c0.6,0,1.2-0.1,1.8-0.3c1.4-0.4,2.8-1,4.2-1.4c2.3-0.7,4.6-1.3,6.9-1.9c3.2-0.9,6.5-0.9,9.7-1.2
		c1.6-0.1,3.2,0.1,4.9,0.3c3.6,0.4,7,1.2,10.4,2.3c4.7,1.6,9.1,3.7,13.3,6.3c4.4,2.8,8.3,6,11.8,9.7c0.1,0.1,0.2,0.2,0.3,0.4
		C280,123.3,280,123.4,279.9,123.5z"/>
</g>
</svg>
