<svg xmlns="http://www.w3.org/2000/svg" id="burgCOA23" width="500" height="500" viewBox="0 0 200 200">
        <defs><clipPath id="round_burgCOA23"><path d="m 185,100 a 85,85 0 0 1 -85,85 85,85 0 0 1 -85,-85 85,85 0 0 1 85,-85 85,85 0 0 1 85,85"/></clipPath><clipPath id="divisionClip_burgCOA23"><path d="M0,80 100,-15 200,80 200,120 100,25 0,120z M0,160 100,65 200,160 200,200 100,105 0,200z M0,240 100,145 200,240 0,240z"/></clipPath><radialGradient id="backlight_burgCOA23" cx="100%" cy="100%" r="150%"><stop stop-color="#fff" stop-opacity=".3" offset="0"/><stop stop-color="#fff" stop-opacity=".15" offset=".25"/><stop stop-color="#000" stop-opacity="0" offset="1"/></radialGradient></defs>
        <g clip-path="url(#round_burgCOA23)"><rect x="0" y="0" width="200" height="200" fill="#fafafa"/><g clip-path="url(#divisionClip_burgCOA23)"><rect x="0" y="0" width="200" height="200" fill="#377cd7"/></g></g>
        <path d="m 185,100 a 85,85 0 0 1 -85,85 85,85 0 0 1 -85,-85 85,85 0 0 1 85,-85 85,85 0 0 1 85,85" fill="url(#backlight_burgCOA23)" stroke="#333"/></svg>