<svg xmlns="http://www.w3.org/2000/svg" id="burgCOA5" width="500" height="500" viewBox="0 0 200 200">
        <defs><clipPath id="noldor_burgCOA5"><path d="m 55,75 h 2 c 3,-25 38,-10 3,20 15,50 30,75 40,105 10,-30 25,-55 40,-105 -35,-30 0,-45 3,-20 h 2 C 150,30 110,20 100,0 90,20 50,30 55,75 Z"/></clipPath><clipPath id="divisionClip_burgCOA5"><rect x="100" y="0" width="100" height="100"/><rect x="0" y="100" width="100" height="100"/></clipPath><radialGradient id="backlight_burgCOA5" cx="100%" cy="100%" r="150%"><stop stop-color="#fff" stop-opacity=".3" offset="0"/><stop stop-color="#fff" stop-opacity=".15" offset=".25"/><stop stop-color="#000" stop-opacity="0" offset="1"/></radialGradient></defs>
        <g clip-path="url(#noldor_burgCOA5)"><rect x="0" y="0" width="200" height="200" fill="#fafafa"/><g clip-path="url(#divisionClip_burgCOA5)"><rect x="0" y="0" width="200" height="200" fill="#d7374a"/></g><g fill="#377cd7" stroke="none"><rect x="75" y="0" width="50" height="200"/></g></g>
        <path d="m 55,75 h 2 c 3,-25 38,-10 3,20 15,50 30,75 40,105 10,-30 25,-55 40,-105 -35,-30 0,-45 3,-20 h 2 C 150,30 110,20 100,0 90,20 50,30 55,75 Z" fill="url(#backlight_burgCOA5)" stroke="#333"/></svg>