<svg xmlns="http://www.w3.org/2000/svg" id="burgCOA17" width="500" height="500" viewBox="0 0 200 200">
        <defs><clipPath id="easterling_burgCOA17"><path d="M 160,185 C 120,170 80,170 40,185 V 15 c 40,15 80,15 120,0 z"/></clipPath><g id="mullet8_burgCOA17"><polygon points="100 60 105.85 85.88 128.28 71.72 114.12 94.15 140 100 114.12 105.85 128.28 128.28 105.85 114.12 100 140 94.15 114.12 71.72 128.28 85.88 105.85 60 100 85.88 94.15 71.72 71.72 94.15 85.88"/></g><radialGradient id="backlight_burgCOA17" cx="100%" cy="100%" r="150%"><stop stop-color="#fff" stop-opacity=".3" offset="0"/><stop stop-color="#fff" stop-opacity=".15" offset=".25"/><stop stop-color="#000" stop-opacity="0" offset="1"/></radialGradient></defs>
        <g clip-path="url(#easterling_burgCOA17)"><rect x="0" y="0" width="200" height="200" fill="#fafafa"/><g fill="#333333" stroke="none"><path d="M 160,185 C 120,170 80,170 40,185 V 15 c 40,15 80,15 120,0 z" fill="none" stroke="#333333" stroke-width="5%" transform="scale(.85)" transform-origin="center"/></g><g fill="#333333" stroke="#000"><use href="#mullet8_burgCOA17" transform="translate(11.99999999999999 11.99999999999999) scale(0.8800000000000001)"/></g></g>
        <path d="M 160,185 C 120,170 80,170 40,185 V 15 c 40,15 80,15 120,0 z" fill="url(#backlight_burgCOA17)" stroke="#333"/></svg>