<svg xmlns="http://www.w3.org/2000/svg" id="burgCOA3" width="500" height="500" viewBox="0 5 200 200">
        <defs><clipPath id="ironHills_burgCOA3"><path d="m 30,25 60,-10 10,10 10,-10 60,10 -5,125 -65,50 -65,-50 z"/></clipPath><clipPath id="divisionClip_burgCOA3"><rect x="100" y="0" width="100" height="200"/></clipPath><g id="lozenge_burgCOA3">
    <polygon points="100 60 135 100 100 140 65 100"/>
  </g><g id="inescutcheon_burgCOA3"><path transform="translate(66 66) scale(.34)" d="m 30,25 60,-10 10,10 10,-10 60,10 -5,125 -65,50 -65,-50 z"/></g><radialGradient id="backlight_burgCOA3" cx="100%" cy="100%" r="150%"><stop stop-color="#fff" stop-opacity=".3" offset="0"/><stop stop-color="#fff" stop-opacity=".15" offset=".25"/><stop stop-color="#000" stop-opacity="0" offset="1"/></radialGradient></defs>
        <g clip-path="url(#ironHills_burgCOA3)"><rect x="0" y="0" width="200" height="200" fill="#522d5b"/><g clip-path="url(#divisionClip_burgCOA3)"><rect x="0" y="0" width="200" height="200" fill="#fafafa"/></g><g fill="#ffe066" stroke="#000"><use href="#lozenge_burgCOA3" transform="translate(-7.4999999999999964 30.000000000000004) scale(0.7)"/></g><g fill="#522d5b" stroke="#000"><use href="#inescutcheon_burgCOA3" transform="translate(67.5 30.000000000000004) scale(0.7)"/></g></g>
        <path d="m 30,25 60,-10 10,10 10,-10 60,10 -5,125 -65,50 -65,-50 z" fill="url(#backlight_burgCOA3)" stroke="#333"/></svg>