<svg xmlns="http://www.w3.org/2000/svg" id="burgCOA19" width="500" height="500" viewBox="0 0 200 200">
        <defs><clipPath id="fantasy1_burgCOA19"><path d="M 100,5 C 85,30 40,35 15,40 c 40,35 20,90 40,115 15,25 40,30 45,45 5,-15 30,-20 45,-45 20,-25 0,-80 40,-115 C 160,35 115,30 100,5 Z"/></clipPath><g id="lozengeFaceted_burgCOA19"><polygon points="100 55 130 100 100 145 70 100"/><g fill="#000" stroke="none"><polygon points="100 100 130 100 100 55" opacity=".2"/><polygon points="100 100 70 100 100 145" opacity=".2"/><polygon points="100 100 130 100 100 145" opacity=".3"/></g></g><radialGradient id="backlight_burgCOA19" cx="100%" cy="100%" r="150%"><stop stop-color="#fff" stop-opacity=".3" offset="0"/><stop stop-color="#fff" stop-opacity=".15" offset=".25"/><stop stop-color="#000" stop-opacity="0" offset="1"/></radialGradient></defs>
        <g clip-path="url(#fantasy1_burgCOA19)"><rect x="0" y="0" width="200" height="200" fill="#ffe066"/><g fill="#d7374a" stroke="none"><polygon points="0,0 30,0 100,70 170,0 200,0 200,30 122,109 122,200 78,200 78,109 0,30"/></g><g fill="#ffe066" stroke="#000"><use href="#lozengeFaceted_burgCOA19" transform="translate(23 23) scale(0.4)"/><use href="#lozengeFaceted_burgCOA19" transform="translate(97 23) scale(0.4)"/><use href="#lozengeFaceted_burgCOA19" transform="translate(60 60) scale(0.4)"/><use href="#lozengeFaceted_burgCOA19" transform="translate(60 110) scale(0.4)"/></g></g>
        <path d="M 100,5 C 85,30 40,35 15,40 c 40,35 20,90 40,115 15,25 40,30 45,45 5,-15 30,-20 45,-45 20,-25 0,-80 40,-115 C 160,35 115,30 100,5 Z" fill="url(#backlight_burgCOA19)" stroke="#333"/></svg>