<svg xmlns="http://www.w3.org/2000/svg" id="burgCOA9" width="500" height="500" viewBox="0 0 200 200">
        <defs><clipPath id="fantasy1_burgCOA9"><path d="M 100,5 C 85,30 40,35 15,40 c 40,35 20,90 40,115 15,25 40,30 45,45 5,-15 30,-20 45,-45 20,-25 0,-80 40,-115 C 160,35 115,30 100,5 Z"/></clipPath><clipPath id="divisionClip_burgCOA9"><rect x="100" y="0" width="100" height="100"/><rect x="0" y="100" width="100" height="100"/></clipPath><g id="compassRose_burgCOA9" stroke-width=".5"><path d="M100 60l6 28 14-8-8 15 28 5-28 6 8 14-14-8-6 28-6-28-14 8 8-14-28-6 28-6-8-14 14 8z"/><path fill="#000" fill-opacity=".5" stroke="#000" stroke-opacity=".2" d="M100 61v39l7-6 5 1c2.7-5 5.3-10 8-15-4.3 4.3-8.7 9.7-13 14-2.3-10.7-4.7-22.3-7-33zm0 39l7 7c10.7-2.3 21.3-4.7 32-7zm0 0l-7 7c2.3 10.7 4.7 21.3 7 32zm0 0l-7-7-32 7zm-7-7l1-5-14-8zm0 14c-1.7-.3-3.3-.7-5-1-2.7 4.7-5.3 9.3-8 14l13-13zm14 0c-.3 1.7-.7 3.3-1 5 4.7 2.7 9.3 5.3 14 8z"/></g><radialGradient id="backlight_burgCOA9" cx="100%" cy="100%" r="150%"><stop stop-color="#fff" stop-opacity=".3" offset="0"/><stop stop-color="#fff" stop-opacity=".15" offset=".25"/><stop stop-color="#000" stop-opacity="0" offset="1"/></radialGradient></defs>
        <g clip-path="url(#fantasy1_burgCOA9)"><rect x="0" y="0" width="200" height="200" fill="#ffe066"/><g fill="#377cd7" stroke="#000"><use href="#compassRose_burgCOA9" transform="translate(-20.000000000000018 -20.000000000000018) scale(1.2000000000000002)"/></g><g clip-path="url(#divisionClip_burgCOA9)"><rect x="0" y="0" width="200" height="200" fill="#377cd7"/><g fill="#ffe066" stroke="#000"><use href="#compassRose_burgCOA9" transform="translate(-20.000000000000018 -20.000000000000018) scale(1.2000000000000002)"/></g></g></g>
        <path d="M 100,5 C 85,30 40,35 15,40 c 40,35 20,90 40,115 15,25 40,30 45,45 5,-15 30,-20 45,-45 20,-25 0,-80 40,-115 C 160,35 115,30 100,5 Z" fill="url(#backlight_burgCOA9)" stroke="#333"/></svg>