<svg xmlns="http://www.w3.org/2000/svg" xmlns:xlink="http://www.w3.org/1999/xlink" xmlns:dc="http://purl.org/dc/elements/1.1/" xmlns:rdf="http://www.w3.org/1999/02/22-rdf-syntax-ns#" width="1152" height="1374" viewBox="0 0 200 200">
  <defs>
    <clipPath id="shield_149701246">
      <path d="M 25,15 100,200 175,15 Z"/>
    </clipPath>
    <linearGradient id="luster" x1="0%" y1="100%" x2="95%" y2="10%">
      <stop stop-color="#000" stop-opacity=".3" offset="0"/>
      <stop stop-color="#ccc" stop-opacity="0" offset=".8"/>
      <stop stop-color="#fff" stop-opacity=".2" offset="1"/>
    </linearGradient>
    <g id="crescent" stroke-width=".5" author="Azgaar" license="https://creativecommons.org/publicdomain/zero/1.0">
      <path d="M84 65c-32 15-24 68 16 68s48-53 16-68c18 20 2 41-16 41S67 85 84 65z"/>
      <path fill="none" d="M84 65c-26 15-14 56 16 56s42-41 16-56"/>
    </g>
  </defs>
  <g clip-path="url(#shield_149701246)">
    <rect class="field" x="0" y="0" width="200" height="200" fill="#d7374a"/>
    <g class="ordinary" i="0" fill="#ffe066" stroke="none" stroke-width="1">
      <path d="M 0,21 79,100 0,179 0,200 21,200 100,121 179,200 200,200 200,179 121,100 200,21 200,0 179,0 100,79 21,0 0,0 Z"/>
    </g>
    <g class="charge" i="0" charge="crescent" fill="#fafafa" stroke="#000">
      <use xlink:href="#crescent" transform="translate(46 46) scale(0.54)"/>
    </g>
  </g>
  <path class="grad" d="M 25,15 100,200 175,15 Z" fill="url(#luster)" stroke="#333333" stroke-width="1" style="pointer-events: none;"/>
</svg>