<svg xmlns="http://www.w3.org/2000/svg" xmlns:xlink="http://www.w3.org/1999/xlink" xmlns:dc="http://purl.org/dc/elements/1.1/" xmlns:rdf="http://www.w3.org/1999/02/22-rdf-syntax-ns#" width="1152" height="1374" viewBox="0 0 200 200">
  <defs>
    <clipPath id="shield_864888032">
      <path d="M 25,15 100,200 175,15 Z"/>
    </clipPath>
    <clipPath id="division_864888032">
      <rect x="15" y="115" width="200" height="200" transform="translate(-70 -70) rotate(225.001 100 100)"/>
      <path d="m 2.5,95 v 10 H 0 v 10 h 202.5 v -15 h 5 v -5 h -10 v 10 h -10 v -5 h 5 v -5 h -10 v 10 h -10 v -5 h 5 v -5 h -10 v 10 h -10 v -5 h 5 v -5 h -10 v 10 h -10 v -5 h 5 v -5 h -10 v 10 h -10 v -5 h 5 v -5 h -10 v 10 h -10 v -5 h 5 v -5 h -10 v 10 h -10 v -5 h 5 v -5 h -10 v 10 h -10 v -5 h 5 v -5 h -10 v 10 h -10 v -5 h 5 v -5 h -10 v 10 h -10 v -5 h 5 v -5 h -10 v 10 h -10 v -5 h 5 v -5 h -10 v 10 h -10 v -5 h 5 v -5 h -10 v 10 h -10 v -5 h 5 v -5 z" transform="translate(-70.7 -70.7) rotate(225 100 100) scale(1 1)"/>
      <path d="m 2.5,95 v 10 H 0 v 10 h 202.5 v -15 h 5 v -5 h -10 v 10 h -10 v -5 h 5 v -5 h -10 v 10 h -10 v -5 h 5 v -5 h -10 v 10 h -10 v -5 h 5 v -5 h -10 v 10 h -10 v -5 h 5 v -5 h -10 v 10 h -10 v -5 h 5 v -5 h -10 v 10 h -10 v -5 h 5 v -5 h -10 v 10 h -10 v -5 h 5 v -5 h -10 v 10 h -10 v -5 h 5 v -5 h -10 v 10 h -10 v -5 h 5 v -5 h -10 v 10 h -10 v -5 h 5 v -5 h -10 v 10 h -10 v -5 h 5 v -5 h -10 v 10 h -10 v -5 h 5 v -5 h -10 v 10 h -10 v -5 h 5 v -5 z" transform="translate(270.7 -70.7) rotate(-225 -100 100) scale(-1 1)"/>
    </clipPath>
    <linearGradient id="luster" x1="0%" y1="100%" x2="95%" y2="10%">
      <stop stop-color="#000" stop-opacity=".3" offset="0"/>
      <stop stop-color="#ccc" stop-opacity="0" offset=".8"/>
      <stop stop-color="#fff" stop-opacity=".2" offset="1"/>
    </linearGradient>
    <g id="anvil" stroke-width=".5" source="http://wappenwiki.org/images/e/e1/Dwight_D._Eisenhower.svg" license="https://creativecommons.org/licenses/by-nc-sa/3.0">
      <path d="m 111,116 6,5 v 9 c 0,0 0,1 -1,1 h -11 v -1 c -1,-1 -5.1,-4 -10,-4 -5,0 -10,3 -11,4 0,1 -0.5,1 -0.5,1 h -10 c -0.5,0 -1,-1 -1,-1 v -9 l 5.1,-5 7.9,-3 c 1.2,-2 1,-3 1,-6 0,-11 -12,-15 -22,-16 C 63,91 62,89.4 62,87.9 v -6.2 c 0,-0.9 0.5,-1.5 1.6,-1.5 H 108 c 1,0 2,0.6 2,1.5 v 0.6 c 0,1 0,1.5 1,1.5 h 2 c 1,0 1,0 1,0.5 v 1 c 4,0 26,0 26,0.6 0,5.6 -7,13 -18,14 -10,2.1 -19,3.1 -19,10.1 0,4 4,4 8,6 z"/>
      <g fill="#000" stroke="none">
        <path d="m 107,87 c 0,-2.2 -1,-3.6 -3,-3.6 H 86 v 16.5 c -0.6,-1.6 -0.6,-3 -0.6,-4 v -13 H 104 c 3,0.1 3,2 3,4.1 z"/>
        <path d="m113 96c0-3-1-8.3 3-8.7l20-.5-20 1c-3 .2-3 5.2-3 8.2z"/>
        <path d="m105 127c-8-5-14-4-22 0 7-5 16-5 22 0z"/>
        <path d="m 79,118 c 2.8,-2 6.5,-4 7.2,-7 h 0.4 c -0.3,3 -5,6 -7.6,7 z"/>
        <path d="m 110,118 c -4,-2 -6,-4 -7,-7 h 0 c 0,3 3,6 7,7 z"/>
      </g>
    </g>
  </defs>
  <g clip-path="url(#shield_864888032)">
    <rect class="field" x="0" y="0" width="200" height="200" fill="#333333"/>
    <g class="division" clip-path="url(#division_864888032)">
      <rect x="0" y="0" width="200" height="200" fill="#fafafa"/>
    </g>
    <g class="charge" i="0" charge="anvil" fill="#333333" stroke="#000">
      <use xlink:href="#anvil" transform="translate(40 -10) scale(0.6)"/>
    </g>
  </g>
  <path class="grad" d="M 25,15 100,200 175,15 Z" fill="url(#luster)" stroke="#333333" stroke-width="1" style="pointer-events: none;"/>
</svg>