<svg xmlns="http://www.w3.org/2000/svg" xmlns:xlink="http://www.w3.org/1999/xlink" xmlns:dc="http://purl.org/dc/elements/1.1/" xmlns:rdf="http://www.w3.org/1999/02/22-rdf-syntax-ns#" width="1152" height="1374" viewBox="0 0 200 200">
  <defs>
    <clipPath id="shield_650596237">
      <path d="M 25,15 100,200 175,15 Z"/>
    </clipPath>
    <linearGradient id="luster" x1="0%" y1="100%" x2="95%" y2="10%">
      <stop stop-color="#000" stop-opacity=".3" offset="0"/>
      <stop stop-color="#ccc" stop-opacity="0" offset=".8"/>
      <stop stop-color="#fff" stop-opacity=".2" offset="1"/>
    </linearGradient>
    <g id="fleurDeLis" author="Azgaar" license="https://creativecommons.org/publicdomain/zero/1.0">
      <path d="M104.2 113.2c.1-5.4 1.5-10.5 4-15.3 6.6-13.8 26.6-13.5 22.2 3.4-1.6 6.2-7.2 9.9-13.7 10.5.5-1.6 3.1-7.4 1-8.6-3.4.1-7.6 6-8.6 8.7-.1.4-.1.9-.3 1.3"/>
      <path d="M95.8 113.2c-.1-5.4-1.5-10.5-4-15.3-6.5-13.8-26.6-13.4-22.2 3.5 1.6 6.2 7.2 9.9 13.7 10.5-.5-1.6-3.1-7.4-1-8.6 3.4.1 7.6 6 8.6 8.7.1.4.1.9.3 1.3"/>
      <path d="M99.6 60.5C92.7 68 88 76.6 90 86.7c1.1 5.6 3.8 10.7 5.7 16.1 1.2 3.4 1.5 6.9 1.3 10.4h5.9c-.3-3.6.4-7 1.3-10.4 1.8-5.4 4.5-10.5 5.7-16.1 2.1-10.4-2.9-18.3-9.5-26.2l-.4-.5z"/>
      <path d="M92 117.4c-1.7 3.4-8.5 9.7-12.2 11.5-.9.5 4.5-.3 6.9-.7 3.2-.5 7.4-3 7.3-2.1 0 4 1.5 10.7 5.6 13.8l.4.3.4-.3c4-3.4 5.6-9.5 5.6-13.8-.1-.9 4.1 1.6 7.3 2.1 2.4.4 7.9 1.1 6.9.7-3.6-1.8-10.5-8.1-12.2-11.5z"/>
      <rect width="28" height="5" x="86.4" y="112.6"/>
    </g>
  </defs>
  <g clip-path="url(#shield_650596237)">
    <rect class="field" x="0" y="0" width="200" height="200" fill="#522d5b"/>
    <g class="ordinary" i="0" transform="translate(0 -15)" fill="#fafafa" stroke="none" stroke-width="1">
      <path d="m 200,105 h -80 c 0,0 -0.1,-20.1 -20,-20 -19.9,0.1 -20,20 -20,20 H 0 v 10 h 200 z" transform="translate(0 -14.5)"/>
      <path d="m 200,105 h -80 c 0,0 -0.1,-20.1 -20,-20 -19.9,0.1 -20,20 -20,20 H 0 v 10 h 200 z" transform="rotate(180 100 100) translate(0 -14.5)"/>
      <path d="m 200,105 h -80 c 0,0 -0.1,-20.1 -20,-20 -19.9,0.1 -20,20 -20,20 H 0 v 10 h 200 z" transform="rotate(-90 100 100) translate(0 -14.5)"/>
      <path d="m 200,105 h -80 c 0,0 -0.1,-20.1 -20,-20 -19.9,0.1 -20,20 -20,20 H 0 v 10 h 200 z" transform="rotate(-270 100 100) translate(0 -14.5)"/>
    </g>
    <g class="ordinary" i="1" transform="translate(62 135) scale(0.38)" fill="#fafafa" stroke="none" stroke-width="1">
      <rect x="75" y="0" width="50" height="200"/>
    </g>
    <g class="charge" i="0" charge="fleurDeLis" fill="#522d5b" transform="translate(0 -15)" stroke="#ffffff">
      <use xlink:href="#fleurDeLis" transform="translate(49 49) scale(0.51)"/>
    </g>
  </g>
  <path class="grad" d="M 25,15 100,200 175,15 Z" fill="url(#luster)" stroke="#333333" stroke-width="1" style="pointer-events: none;"/>
</svg>