<svg xmlns="http://www.w3.org/2000/svg" xmlns:xlink="http://www.w3.org/1999/xlink" xmlns:dc="http://purl.org/dc/elements/1.1/" xmlns:rdf="http://www.w3.org/1999/02/22-rdf-syntax-ns#" width="1152" height="1488" viewBox="0 0 200 200">
  <defs>
    <clipPath id="shield_769359515">
      <path d="M 25,15 100,200 175,15 Z"/>
    </clipPath>
    <linearGradient id="luster" x1="0%" y1="100%" x2="95%" y2="10%">
      <stop stop-color="#000" stop-opacity=".3" offset="0"/>
      <stop stop-color="#ccc" stop-opacity="0" offset=".8"/>
      <stop stop-color="#fff" stop-opacity=".2" offset="1"/>
    </linearGradient>
    <g id="cinquefoil" stroke-width=".5" source="http://wappenwiki.org" license="https://creativecommons.org/licenses/by-nc-sa/3.0">
      <path d="M99.9 61.1c-1.9 0-5 4.5-10.2 6-5.1 1.4-5.2 3.9-5.2 5.2 0 6.2 10.6 9.8 10.6 16.1 0 1-.5 2-1.2 2.5-.8.3-2 .3-3.1-.3-6.1-3.2-4.3-13.2-10.3-16.3-1.2-.6-3.8-1.8-7.7 1.5-4 3.2-9.9 3.4-10.9 4.8-.9 1.5 1.9 6.2.8 10.8-1.2 4.7 1.2 6.1 2.4 6.7 6 3.1 14.8-3.3 20.9-.1 1.1.5 1.8 1.4 1.8 2.2 0 .7-.7 1.6-1.8 2.2-6.1 3.1-14.9-3.3-20.9-.2-1.2.6-3.6 2-2.4 6.7 1.1 4.7-1.7 9.4-.8 10.8 1 1.5 6.9 1.6 10.9 4.9 3.9 3.2 6.5 2.1 7.7 1.4 6-3.1 4.2-13.1 10.3-16.2 1.1-.6 2.3-.7 3.1-.3.7.4 1.2 1.4 1.2 2.5 0 6.3-10.6 9.9-10.6 16.1 0 1.2.1 3.8 5.2 5.2 5.2 1.4 8.3 6 10.2 6 1.9 0 5-4.6 10.1-6 5.1-1.4 5.3-4 5.3-5.2 0-6.2-10.6-9.8-10.6-16.1 0-1.1.5-2.1 1.2-2.5.7-.4 2-.3 3.1.3 6.1 3.1 4.3 13.1 10.3 16.2 1.2.6 3.7 1.8 7.7-1.4 3.9-3.3 9.9-3.4 10.8-4.9 1-1.5-1.9-6.1-.7-10.8 1.2-4.7-1.2-6.1-2.4-6.7-6-3.1-14.8 3.3-21 .2-1-.6-1.7-1.5-1.8-2.2.1-.8.8-1.7 1.8-2.2 6.2-3.2 15 3.2 21 .1 1.2-.6 3.6-2 2.4-6.7-1.2-4.6 1.7-9.3.7-10.8-.9-1.4-6.9-1.6-10.8-4.8-4-3.3-6.5-2.1-7.7-1.5-6 3.1-4.2 13.1-10.3 16.3-1.1.6-2.4.6-3.1.3-.7-.5-1.2-1.5-1.2-2.5 0-6.3 10.6-9.9 10.6-16.1 0-1.3-.1-3.8-5.3-5.2-5.1-1.5-8.2-6-10.1-6zM100 91a9 9 0 010 0 9 9 0 019 9 9 9 0 01-9 9 9 9 0 01-9-9 9 9 0 019-9z"/>
      <g fill="#000">
        <path d="M99.8 125l.5-14.4h-.7z"/>
        <path d="M75.7 112.5l13.9-7.4.3.5z"/>
        <path d="M89.6 95.2l-13.9-7.4 14.2 6.9z"/>
        <path d="M99.9 75.4l.3 14.4h-.7z"/>
        <path d="M124 87.8l-13.9 7.4-.3-.6z"/>
        <path d="M109.8 105.7l.3-.5 13.9 7.3z"/>
      </g>
    </g>
    <pattern id="chequy-argent-gules" width="0.25" height="0.25" viewBox="0 0 50 50" fill="#d7374a">
      <rect width="50" height="50"/>
      <rect width="25" height="25" fill="#fafafa"/>
      <rect x="25" y="25" width="25" height="25" fill="#fafafa"/>
    </pattern>
  </defs>
  <g clip-path="url(#shield_769359515)">
    <rect class="field" x="0" y="0" width="200" height="200" fill="url(#chequy-argent-gules)"/>
    <g class="charge" i="0" charge="cinquefoil" fill="#333333" transform="translate(0 -15)" stroke="#000">
      <use xlink:href="#cinquefoil" transform="translate(10 10) scale(0.9)"/>
    </g>
  </g>
  <path class="grad" d="M 25,15 100,200 175,15 Z" fill="url(#luster)" stroke="#333333" stroke-width="1" style="pointer-events: none;"/>
</svg>