<?xml version="1.0" encoding="utf-8"?>
<!-- Generator: Adobe Illustrator 27.1.1, SVG Export Plug-In . SVG Version: 6.00 Build 0)  -->
<svg version="1.1" id="Layer_1" xmlns="http://www.w3.org/2000/svg" xmlns:xlink="http://www.w3.org/1999/xlink" x="0px" y="0px"
	 viewBox="0 0 280 280" style="enable-background:new 0 0 280 280;" xml:space="preserve">
<style type="text/css">
	.st0{fill-rule:evenodd;clip-rule:evenodd;fill:#BC9554;}
</style>
<g>
	<g>
		<path class="st0" d="M201,78.4c-33.9-33.9-88.8-33.9-122.7,0c-33.9,33.9-33.9,88.8,0,122.7c33.9,33.9,88.8,33.9,122.7,0
			C234.9,167.3,234.9,112.3,201,78.4z M198.9,199c-32.7,32.7-85.8,32.7-118.5,0c-32.7-32.7-32.7-85.8,0-118.5
			c32.7-32.7,85.8-32.7,118.5,0C231.7,113.3,231.7,166.3,198.9,199z"/>
		<path class="st0" d="M196.6,82.9c-31.4-31.4-82.4-31.4-113.9,0c-31.4,31.4-31.4,82.4,0,113.9c31.4,31.4,82.4,31.4,113.9,0
			C228,165.3,228,114.3,196.6,82.9z M191.4,191.5c-28.6,28.6-74.9,28.6-103.5,0C59.3,163,59.3,116.6,87.9,88
			c28.6-28.6,74.9-28.6,103.5,0C220,116.6,220,163,191.4,191.5z"/>
		<path class="st0" d="M137.4,160.4c5.3,0.5,9.1-1.3,13.4-3.7c5.8,3.2,5.2,7.6,2.5,12.4c-1.4,2.4-3.1,4.2-3.1,8.7
			c-0.8-3.5,0-6.4,1.7-9.5c2-3.5,3.2-7.2-1.1-9.8C149,159.4,143.9,161.9,137.4,160.4 M161,131.8l9.6,4.2l-10.9-2.9
			c-0.1-3.1-3-6.7-4.9-7.8C158.7,126.5,159.7,128.6,161,131.8z M124.1,166.3c0.3,5,0.3,7.5-3.6,11c-0.4-1-0.9-2.8-1.7-3.4
			c-0.7-0.1-4.3-0.8-6.6,0.8c1.2-2,5.1-2.6,7.2-2.3c0.9,0.6,1.3,1.1,1.7,2.1c1.7-2.2,1.5-5.1,1.4-8c-0.4-7.8,0.6-10.8,8.2-11.9
			c4-0.5,8.8-0.8,11.7-2c-3.6,2.4-8.2,2.8-11.8,3.4C124,157,123.8,159.8,124.1,166.3z M129.2,110.4c3.8,8.2,20.4,9.2,15.8,20.8
			C144.4,118.9,131.6,121.3,129.2,110.4z M117.8,100.7c-1.1,4.4-0.8,10.1-0.5,12.4l3.6-3.2c1.3,7.8,3.8,14.4,10.9,18.1
			c-6.4-2.5-10.7-6.8-12.4-13.5l-3.5,3.2C114.7,113,114.8,105.7,117.8,100.7z M138,89.3c-3.4,2.3-5.4,4.3-6.5,7.3l3.9,1.5
			c-3.1,5,0,9.3,4.4,11.9c-5.2-1.5-9.7-5-7.6-11l-3.5-1.2C129.1,94.4,133.7,89.8,138,89.3z M153.4,99.7c6.4-4.9,10.2,2.3,16.8-1.3
			C168.4,107.2,158.1,98.9,153.4,99.7z M150.6,87.4c0,0-0.9,1.2-1.7,1.4c-0.8,0.2-3.7-2-3.7-2S148.5,86.9,150.6,87.4z M150.5,154.7
			c8.4,3.2,10.8,8.5,9.3,16.3c0,0-1.3-2-3.7-3.5c0,1.9-5.1,6.4-3.9,13.1c2,2.3,12.9-0.3,13.3-0.2c3.5,0.5,4.3,3,4.3,3
			s-1.2-0.5-2.7-0.2c3.1,1.5,4.1,4.9,4.1,4.9s-1-1.1-4.2-1.4c0.6,1.1,0.3,2.1,0.3,2.1s-1.1-0.9-3.1-0.9c-1.9,0-16.6,0-16.6,0
			s-2.8-2.2-3.6-4.5c-2-0.1-3.7-0.1-3.7-0.1s0.6-1.8,1.8-3.3c-2.1-1.1-3.9-3.3-4.9-7.1c5.1,2.6,9.7-4.1,3.1-7.7
			c-1.9-1-8.1-0.7-12.8-0.9c0.1-4.4,1.3-4.6,5.8-5.2c3.4-0.5,6.7-0.7,10.1-1.5C146,157,148.4,156.1,150.5,154.7z M126,130.6
			c0.3,5.1,0.3,11-1.3,12.9c-3,3.5-15.8,4.9-16.6,11.1c-9.1,1.6-11.2-5.7-8.4-7.8c3.3-2.5,9.3-1.2,9.6-8.1c-1.9,1.9-4.6,3.2-7.6,2.9
			c8.4-7.9,7.4-15.3,6-19c3.9-7.3,1.5-11.7-1.8-15c-4.2-4.1-8.8-5.2-6.5-10.7c-6,5.4-1.7,10.1,2.7,13.2c1.5,1,2.6,2.2,2.5,4.1
			c-1-1.4-3.4-3.2-6.1-4.5c-3.5-1.7-7.5-5.6-5.4-9.9c-4,3.7-2.6,8.5-0.7,10.7c2.7,3.2,8.8,3.1,8.5,6.4c-4.1-3-12.8-0.8-11.7-10.1
			c-3.2,4.2-1.5,9.1,1,10.9c3.4,2.4,9.5,2.7,13.7,5.6c5,9.8-12,14.3-12.3,25.3c-3.5-0.8-5.2-3.8-4.9-7.4c-3,7-0.5,11.3,6.1,12.5
			c0.8,1.5,1.9,2.9,3.4,4c-2,0.3-4.9,0.3-8.5-1.1c3.8,5.1,9.6,5.3,15,3.9c1.8,0.4,3.8,0.4,6,0.2c0.6,4.1,1.3,7.4-3.1,8.1
			c-6.3,1-11-1.4-11-1.4s2.1,7,10.8,6.8c-3.3,1.3-7.1,0.1-7.1,0.1s-1.3,0.5-2.6,1.7c-1.3,1.2-1.7,2.1-1.7,2.1l3.4-0.5
			c-3,2.9-4.6,9.1-4.6,9.1s2.4-2,6.7-0.1c-2,1.4-2.9,4.2-2.9,4.2s1.7,0,3.7,0.1c0.8,2.3,3.6,4.5,3.6,4.5s14.6,0,16.6,0
			c1.9,0,3.1,0.9,3.1,0.9s0.3-1-0.3-2.1c3.2,0.2,4.2,1.4,4.2,1.4s-1-3.4-4.1-4.9c1.5-0.3,2.7,0.2,2.7,0.2s-0.8-2.5-4.3-3
			c-0.4-0.1-11.3,2.6-13.3,0.2c-0.4-1.9-0.5-4.3,0.4-7c1.9-5.5,9.6-4.6,9.6-4.6c0.6,1.6,0.7,2.1,0.1,3.8c0,0,4.7-1,6.7-6.1
			c2-5.1-0.8-8.4,1.2-13.9c2-5.5,16.8-1.4,24.7-8.6c3-2.7,4.6-6.3,5.6-9.6c-2.4-2.9-8.8-2.1-12.6-0.6c1.1-2.1,3.1-2.9,4.4-3.2
			c-1.2-0.9-1.4-2.3-1.1-3.1c1,1.3,2.9,2.4,4.4,3c4.3,0.1,8.6,2.5,9.1,8.1c1.6-0.1,3-1,3.3-2.8c1.3,0.3,2.8,0.7,4.3,1.2
			c3.2,1.1,4.7,2,4.7,2s3.5-8.4,11.1-18.1c0,0.1,0.1,0.1,0.1,0.2c1.2,1.8,4.2,2,6.3-0.1c0,0-1.2,0.2-1.6-0.1
			c-0.4-0.2-1.9-2.2,0.3-4.6c2.2-2.4,4.6-1.9,4.6-1.9s-1-1.6-2.6-2.1c-1.6-0.5-3.4,0.6-3.4,0.6c-0.9-2.4,1.7-4.3,3.8-3.4
			c-0.5-2.8-4.5-3.5-6.8-1c-1.6-2.3,1.1-4,1.1-4c-3.7-0.3-6.5,2.4-5.6,5.9c0.2,0.9,0.5,1.7,0.8,2.4l-10.3,13.3
			c-1.5-0.2-6.5-2.7-8.3-3.2c-0.6-1.2-1.6-2.9-3.4-4.6c5.9-5.4,10.2-2.7,10.2-2.7s0.3-3.2-3-3.9c2.2-1.1,4.4-1.6,7-1.5
			c1.9-5.1,5.7-11.7,8-13.7c1.7,3.4,6.1,1.6,6.4-0.2c-3.2,0.4-4-2.9-2.3-4.7c2.2-2.5,4.7-1.9,4.7-1.9s-1-1.7-2.7-2.2
			c-1.6-0.5-3.6,0.6-3.6,0.6c-0.9-2.5,1.8-4.5,4-3.5c-0.5-2.9-4.7-3.6-7.1-1.1c-1.6-2.4,1.1-4.2,1.1-4.2c-3.8-0.3-6.5,2.5-5.6,6.1
			c0.3,1.4,1,2.8,1.4,3.6c-2.9,3.4-6.9,7.4-9.6,12.4l-12.5,3.8c0.3,0.7,0.6,1.4,0.8,2.2c0.8,3.3,0.3,5.6-0.4,8.5
			c-1.3-0.8-2.4-1.5-4.3-2.2c0.1,3.3-1.4,6-2.5,7.5c1.4-4.1,0.9-7.9-1.2-10.9c3.8,1.3,6.6,2.8,6.6,2.8s2-9.5-7.4-12.2
			c-3.8-1.1-6-2.2-7.2-3.2c1.6,0.7,3.9,1.5,6.5,2.2c0.9-0.6,2-1,3.3-1c3.7,0.1,6.3,1.4,6.3,1.4s0.1-2.7-1.6-3.9
			c1.3-1.5,0.7-3.4,0.7-3.4s-1.2,1.7-4.5,2.7c-3.3,1.1-7-2.1-3.7-6.7c1.8-2.5,4.4-2.3,6.6-1.9c0.5,0.7,1,1.8,1.4,2.9
			c0,0,0.8-0.9,1.2-2.6c0.6,0,1.1-0.2,1.4-0.7c1.3-2.2,2-6,2-6l-7.9-1.7c0,0-2.6-3.1-8.3-2.5c-3.4,0.4-5.1,2-5.9,3.2
			c-0.7-0.6-1.8-2.3-3.7-2.5l-5.5-1.5c0,0,0.3,2,1.5,3.9l-4.8-1.5c-4.8,2.3-13.9,8.3-14.7,13.9c0,0,2.8-0.6,5.6-1.1
			c-1.5,1.8-3,4.3-3.7,8c-1.6,8.3,4.3,17.4,4.3,17.4s0.5-1.4,1.2-3.3c0.8,1.8,2.1,3.5,3.9,4.7c6.7,4.6,11.9,5.3,11.9,5.3
			c1.4-3.2,1.7-7.4,0.9-10.8c2.2,4,2.8,8.6,0.6,13.5C131.8,132.9,129.3,132.2,126,130.6z"/>
	</g>
	<g>
		<path class="st0" d="M37.5,149.8c2.3-2.7,1.8-6.8-1.1-8.8c5.1,1.2,7.6,8.8,8.3,14.2c7.9-13.6,2.6-24.1-10.8-32.4
			c-2-1.3-4.1-2.4-6.3-3.5c-3.6-1.9-6.9-4.8-8.9-8.2c-5.2-8.8-3-18.3,3.7-28.3C8,92,1.4,107.4,11,120.5c3.4,4.6,8.2,7.5,13.7,10.3
			c1.6,0.8,3.2,1.6,4.8,2.4c-3.5,2.7-5.6,7.2-4.6,11.7c0.5,2,1.5,3.8,3.1,5.1C30.7,152.4,34.9,152.8,37.5,149.8z M29.6,148
			c-5.1-4.4-1.6-13.3,5.6-14.6c-6-3.7-13.3-6.1-18.8-10.9c-10.5-9.2-10.4-24.3,1-34.1c-6,7.6-5,19.7,1.1,26.9
			c2.3,2.7,5.1,4.8,7.8,6.2c10,5.3,21.3,11.8,18.9,27.5c-2.8-15-15.5-11.7-14.9-5.4c1.2-1.4,3.3-1.5,4.7-0.3
			c1.4,1.2,1.5,3.3,0.3,4.7C33.8,150,31.3,149.5,29.6,148z"/>
		<path class="st0" d="M19.4,139.7c2.7-0.5,4.5-3.1,4-5.8c-0.5-2.7-3.1-4.5-5.8-4s-4.5,3.1-4,5.8C14.1,138.4,16.7,140.2,19.4,139.7z
			 M15.8,135.3c-0.3-1.5,0.7-3,2.3-3.3c1.5-0.3,3,0.7,3.3,2.3c0.3,1.5-0.7,3-2.3,3.3C17.5,137.8,16,136.8,15.8,135.3z"/>
		<path class="st0" d="M10.1,131.8c2.3-0.4,3.9-2.7,3.5-5c-0.4-2.3-2.7-3.9-5-3.4c-2.3,0.4-3.9,2.7-3.5,5
			C5.5,130.7,7.7,132.3,10.1,131.8z M7.2,128c-0.2-1.2,0.6-2.3,1.7-2.5c1.2-0.2,2.3,0.6,2.5,1.7c0.2,1.2-0.6,2.3-1.7,2.5
			C8.5,129.9,7.4,129.2,7.2,128z"/>
		<path class="st0" d="M4.1,122.5c1.9-0.3,3.1-2.1,2.7-4c-0.3-1.9-2.1-3.1-4-2.7c-1.9,0.3-3.1,2.1-2.7,4
			C0.4,121.7,2.2,122.9,4.1,122.5z M2,119.4c-0.1-0.8,0.4-1.6,1.2-1.7c0.8-0.1,1.6,0.4,1.7,1.2c0.1,0.8-0.4,1.6-1.2,1.7
			C2.9,120.8,2.1,120.2,2,119.4z"/>
		<path class="st0" d="M30.5,147.1c1.2,1,2.9,1.6,4.1,0.2c0.8-0.9,0.7-2.2-0.2-2.9c-0.1-0.1-0.2-0.2-0.3-0.2
			C35.2,146.6,32.7,148.1,30.5,147.1 M44.2,142.2c-2.6-8-9.3-6.9-11.2-4.5C37.4,135.8,41.8,138.3,44.2,142.2z M11,101.6
			c-1.2,3.3-1.3,6.8,0,10.6c2.7,7.7,7.9,11.2,13.7,14.1C16.7,121.5,9.7,112.1,11,101.6z"/>
		<path class="st0" d="M36.6,74.4c7.8-2.5,5.2-11.3-1.9-11c-12.2,0.2-24.1,13.7-22.9,25.8C20.4,78.1,26.5,77.7,36.6,74.4z
			 M34.6,66.1c4.1-0.2,6.4,4.1,1.4,5.8c-1.3,0.4-3.2,0.9-5.8,1.7c-4,1.3-9.3,2.8-16.1,9.5C17.1,73.5,25.8,66.2,34.6,66.1z"/>
		<path class="st0" d="M18,78.1c5.8-6.5,12.6-9,16.6-10.4C27.8,67.9,21.8,71.9,18,78.1"/>
		<path class="st0" d="M47.8,118.6c3.2-2.5,5.7-6.7,4.1-11.1c-0.8-2.3-2.6-4.2-4.8-5.1c-4.1-1.7-8.6,0.3-10,4.5
			c-0.5,1.6-0.6,3.3-0.1,4.9c-1.8-0.3-3.7-1.4-5-2.6c-1.3-1.2-2.5-2.8-3-4.5c-1.9-6.1,2.5-12.5,7.7-14.8c1.7-0.8,3.6-1.1,5.5-0.6
			c1.3,0.3,2.7,1.1,3.4,2.3c1.6,2.6,0.6,6.2-1.6,7.9c6.9,4.4,15.6-2.9,13.1-11.3c7.4-0.7,12.4-7.1,12.3-13.6
			c-0.2-6.8-6-12-12.1-13.9c1.1,1.6,1.7,3.3,1.8,4.8c0.6,1.3,0.6,2.8-0.2,4.1c-0.8,1.4-2.1,2.2-3.6,2.4c-1.1,0.6-2.5,1.1-4.2,1.5
			c-6.6,1.2-13.1,1-19.2,4.1c-4.4,2.3-8.2,5.9-10.8,10.7c-3.3,5.9-4.1,13.2-1.4,19.8c1.2,2.9,3.1,5.5,5.5,7.6
			C31.4,120.9,41.3,123.8,47.8,118.6z M50.2,76.2c3.5-0.5,9.3-1.9,11-5.5c0.9-2,1.1-4,0.4-5.9c11.7,7,3.4,23.1-8.9,20.4
			c5.5,5,0.9,13.9-5,12.6c4-7.9-4.4-13.9-12.2-10.4c-2.9,1.3-5.3,3.4-7,6c0.5-1.5,1.2-3,2.1-4.4c2.2-3.6,5-6.4,8.5-8.6
			C42.6,78.4,46.4,77.2,50.2,76.2z M26.9,113.7c-10.7-9.2-7.8-28.6,10.2-35c-3.3,2.1-6.1,4.9-8.5,8.9c-3.9,6.4-4.9,13.9-0.8,20.3
			c2.8,4.6,8.7,8.1,13.1,5.8c-1.5-1.5-2.1-3.8-1.4-5.8c1-2.8,4-4.2,6.8-3c1.6,0.6,2.7,2,3.3,3.5c1.1,3.2-1.1,6.4-3.4,8.3
			C40.6,120.9,32.1,118.2,26.9,113.7z"/>
		<path class="st0" d="M34.5,86.3c2.7-1.3,5.7-1.8,8.6-1c2.4,0.6,4.6,2,5.9,4.2c1.3,2.2,1.5,4.6,0.9,6.9C54.8,91,46,77.7,34.5,86.3"
			/>
		<path class="st0" d="M40,117.3c3.4,0.1,6.9-2,8.1-4.9c1.8-4.4-2.8-8.5-6.1-5.7c3.9,0.3,5.2,3.5,3.9,6.1
			C45,114.6,42.9,116.4,40,117.3"/>
		<path class="st0" d="M47.2,61.7c2.2-1.7,2.5-4.8,0.8-7c-1.7-2.2-4.8-2.5-7-0.8c-2.2,1.7-2.5,4.8-0.8,7
			C41.9,63,45.1,63.4,47.2,61.7z M41.9,59.5c-1-1.2-0.8-3,0.5-4c1.2-1,3-0.8,4,0.5c1,1.2,0.8,3-0.5,4C44.7,60.9,42.9,60.7,41.9,59.5
			z"/>
		<path class="st0" d="M35.1,60.5c1.9-1.5,2.2-4.2,0.7-6.1c-1.5-1.9-4.2-2.2-6.1-0.7c-1.9,1.5-2.2,4.2-0.7,6.1
			C30.5,61.6,33.2,61.9,35.1,60.5z M30.7,58.4c-0.7-0.9-0.6-2.3,0.4-3c0.9-0.7,2.3-0.6,3,0.4c0.7,0.9,0.6,2.3-0.4,3
			C32.8,59.5,31.5,59.3,30.7,58.4z"/>
		<path class="st0" d="M24.6,62.2c1.5-1.2,1.8-3.3,0.6-4.8c-1.2-1.5-3.3-1.8-4.8-0.6c-1.5,1.2-1.8,3.3-0.6,4.8
			C20.9,63.1,23.1,63.4,24.6,62.2z M21.3,60.4c-0.5-0.6-0.4-1.6,0.2-2.1c0.6-0.5,1.6-0.4,2.1,0.2c0.5,0.6,0.4,1.6-0.2,2.1
			C22.7,61.2,21.8,61.1,21.3,60.4z"/>
		<path class="st0" d="M41.3,164.2c2.4,0.1,4.8,0.7,6.8,1.8c-0.2-0.1-0.5-0.2-0.7-0.4c-15.3-12-29.5-3.6-24.8,9.5
			c-7.3-2.5-8.4-9.9-4.2-14.9c-9.9,4.4-18.8-7.2-10-15c-0.3,1.7,0.1,3.3,1.1,4.7c2.2,3.1,6.8,2.4,10.2,2.4c10.1,0,21.3,2.9,29.1,14
			c-0.1-0.1-0.3-0.2-0.4-0.3c1.2,0.7,2.3,1.6,3.2,2.7c1.2,1.4,2,3.1,2.4,4.9c0-0.2,0-0.4,0-0.6C51.4,159,34.3,149,16.3,150.5
			c-2,0.2-4.1-0.5-4.9-1.7c-0.6-0.9-1-2-0.8-3.2l3.9-5.4c-4.3,0.4-9.2,4.3-10.9,8.5c-3.1,7.5,3.2,15.5,11.4,14.7
			c-1.9,3.2-2.2,14,11.4,15.4C19.4,164.4,31.7,158.2,41.3,164.2z"/>
		<path class="st0" d="M34.4,158.5c-7.2-1.2-15.9,3.9-13.5,12.9C16.1,165.5,23.8,154.6,34.4,158.5 M20.1,158.3
			c-1.5,0.9-3.3,1.7-5.1,1.8c-6.2,0.5-11.5-5.9-7.6-11.7C4.9,156.3,13.6,160.3,20.1,158.3z"/>
		<path class="st0" d="M18.7,151c2.6-2.2,3-6,0.9-8.7c-2.2-2.6-6-3-8.7-0.9c-2.6,2.2-3,6-0.9,8.7C12.2,152.8,16.1,153.2,18.7,151z
			 M11.7,148.8c-1.4-1.7-1.1-4.3,0.6-5.7c1.7-1.4,4.3-1.1,5.7,0.6c1.4,1.7,1.1,4.3-0.6,5.7C15.7,150.8,13.1,150.5,11.7,148.8z"/>
		<path class="st0" d="M12.4,145c-0.4,0.6-0.5,1.3-0.4,2c0.3,1.5,1.8,2.5,3.3,2.1c1.2-0.2,2-1.2,2.2-2.4c-0.4,0.6-1,1.1-1.8,1.3
			c-1.5,0.3-3-0.7-3.3-2.1C12.4,145.6,12.4,145.3,12.4,145"/>
		<path class="st0" d="M61.1,215.9c1-3.8,0.4-8.6-3.4-11.1c-2-1.3-4.5-1.7-6.8-1.1c-4.2,1.1-6.5,5.3-5.1,9.4
			c0.5,1.6,1.5,2.9,2.8,3.9c-1.6,0.9-3.7,1.1-5.4,0.9c-1.7-0.2-3.6-0.7-5-1.7c-5.1-3.6-5.5-11.2-2.9-16c0.9-1.6,2.2-3,3.9-3.7
			c1.2-0.5,2.7-0.7,4-0.2c2.8,1.1,4.1,4.4,3.4,7c8-0.7,10.4-11.5,3.4-16.5c5.3-5,5.4-12.8,1.4-17.8c-4.1-5.2-11.8-5.7-17.6-3.6
			c1.8,0.6,3.3,1.5,4.3,2.7c1.2,0.7,2.1,1.8,2.3,3.3c0.2,1.5-0.3,3-1.4,4c-0.5,1.2-1.3,2.4-2.4,3.6c-4.4,4.8-9.6,8.6-12.4,14.6
			c-2.1,4.4-2.9,9.4-2,14.7c0.9,6.5,4.6,12.7,10.7,16.1c2.7,1.5,5.7,2.4,8.8,2.6C49.8,227.5,59.1,223.9,61.1,215.9z M37.8,181.7
			c2.4-2.5,6.1-7,5.3-10.8c-0.4-2.1-1.5-3.8-3.2-4.8c13.2-1.5,16.3,15.8,5.2,21.1c7.2,0.6,8.9,10.3,3.6,12.7
			c-1.6-8.5-11.7-8.2-15.6-0.9c-1.5,2.7-2.1,5.8-1.8,8.8c-0.5-1.5-0.8-3-1-4.7c-0.4-4.1,0-7.9,1.5-11.7
			C33.2,187.9,35.4,184.7,37.8,181.7z M41.9,224.5c-13.7-0.8-23-17.6-12.8-33.2c-1.3,3.6-1.8,7.5-1.4,11.9
			c0.8,7.3,4.4,13.7,11.4,16.2c4.9,1.9,11.5,1.1,13.6-3.2c-2-0.3-3.9-1.7-4.5-3.7c-0.9-2.7,0.6-5.6,3.5-6.4c1.6-0.4,3.3-0.1,4.6,0.8
			c2.8,1.8,3,5.6,2.3,8.4C56.9,222,48.6,224.9,41.9,224.5z"/>
		<path class="st0" d="M37.2,178.9c3.8-0.6,6.4-4.2,5.8-8c-0.6-3.8-4.2-6.4-8-5.8c-3.8,0.6-6.4,4.2-5.8,8
			C29.9,176.9,33.4,179.5,37.2,178.9z M31.7,172.7c-0.4-2.5,1.3-4.8,3.8-5.2c2.5-0.4,4.8,1.3,5.2,3.8c0.4,2.5-1.3,4.8-3.8,5.2
			C34.4,176.9,32.1,175.2,31.7,172.7z"/>
		<path class="st0" d="M42.1,187.1c1.9-0.6,3.9-1.5,5.4-3.1c5.1-5.1,3.6-15-4.2-16.4C51.8,171.9,48.7,182.9,42.1,187.1"/>
		<path class="st0" d="M31.6,198.8c1.3-2.6,3.3-4.7,6-5.9c2.2-1,4.8-1.2,7.1-0.3c2.3,0.9,3.9,2.7,4.8,4.8
			C50.2,190.4,35.4,185.3,31.6,198.8"/>
		<path class="st0" d="M37,169c0.8,0.1,1.5,0.6,2,1.2c1,1.4,0.7,3.4-0.7,4.4c-1.1,0.8-2.6,0.8-3.6,0c0.8,0.1,1.7,0,2.4-0.5
			c1.4-1,1.7-3,0.7-4.4C37.5,169.5,37.3,169.2,37,169"/>
		<path class="st0" d="M20.5,187.9c-4.9-7.7-8.8-11.5-8.1-22.9c-7.8,6.4-7.7,21.2,0.4,28.2C17.5,197.6,24.3,193.9,20.5,187.9z
			 M14.4,191.7c-5.9-5.1-7.5-14.4-3.9-21.7c0.7,7.8,3.4,11.8,5.3,14.8c1.3,2,2.3,3.3,2.9,4.3C21.1,193,17,194.2,14.4,191.7z"/>
		<path class="st0" d="M10.1,175.1c0.1,7.1,3.2,12.5,5.1,15.6C10.8,186.7,9.1,181,10.1,175.1"/>
		<path class="st0" d="M61.2,70.8c1.9-3.5,0.6-7.8-2.8-9.7c-3.5-1.9-7.8-0.6-9.7,2.8c-1.9,3.5-0.6,7.8,2.8,9.7
			C54.9,75.5,59.3,74.3,61.2,70.8z M52.7,71.4c-2.3-1.2-3.1-4.1-1.9-6.3c1.2-2.3,4.1-3.1,6.3-1.9c2.3,1.2,3.1,4.1,1.9,6.3
			C57.8,71.8,54.9,72.7,52.7,71.4z"/>
		<path class="st0" d="M50.3,83.2c1.9,0.7,4.1,1.2,6.3,0.9c7.4-1,12.3-9.9,6.8-15.9C67.7,77,58.3,84,50.3,83.2"/>
		<path class="st0" d="M57.4,65.4c0.5,0.6,0.9,1.4,0.8,2.2c0,1.8-1.5,3.2-3.3,3.1c-1.4,0-2.6-1-3-2.2c0.6,0.6,1.4,1,2.3,1.1
			c1.8,0,3.2-1.4,3.3-3.1C57.6,66.1,57.5,65.7,57.4,65.4"/>
		<path class="st0" d="M70.1,206.2c0.6-9.6-9.3-19.8-18.9-19.6c8.2,7.4,8.2,12.3,10.1,20.4C62.9,213.3,69.9,211.8,70.1,206.2z
			 M63.4,206.7c-0.3-1.1-0.5-2.5-1-4.6c-0.8-3.2-1.6-7.5-6.5-13.3C63.2,191.7,68.5,199,68,206C67.9,209.2,64.4,210.8,63.4,206.7z"/>
		<path class="st0" d="M59.6,192.1c4.7,5,6.3,10.5,7.1,13.7C67,200.5,64.3,195.5,59.6,192.1"/>
		<path class="st0" d="M54.2,219.6c2.7-1.9,4.1-5.7,3.4-8.6c-1.2-4.5-7.2-4.9-8.1-0.9c3.2-2.1,6.1-0.4,6.6,2.4
			C56.5,214.5,56,217.1,54.2,219.6"/>
	</g>
	<g>
		<path class="st0" d="M130.2,37.5c2.7,2.3,6.8,1.8,8.8-1.1c-1.2,5.1-8.8,7.6-14.2,8.3c13.6,7.9,24.1,2.6,32.4-10.8
			c1.3-2,2.4-4.1,3.5-6.3c1.9-3.6,4.8-6.9,8.2-8.9c8.8-5.2,18.3-3,28.3,3.7C188,8,172.6,1.4,159.5,11c-4.6,3.4-7.5,8.2-10.3,13.7
			c-0.8,1.6-1.6,3.2-2.4,4.8c-2.7-3.5-7.2-5.6-11.7-4.6c-2,0.5-3.8,1.5-5.1,3.1C127.6,30.7,127.2,34.9,130.2,37.5z M132,29.6
			c4.4-5.1,13.3-1.6,14.6,5.6c3.7-6,6.1-13.3,10.9-18.8c9.2-10.5,24.3-10.4,34.1,1c-7.6-6-19.7-5-26.9,1.1c-2.7,2.3-4.8,5.1-6.2,7.8
			c-5.3,10-11.8,21.3-27.5,18.9c15-2.8,11.7-15.5,5.4-14.9c1.4,1.2,1.5,3.3,0.3,4.7c-1.2,1.4-3.3,1.5-4.7,0.3
			C130,33.8,130.5,31.3,132,29.6z"/>
		<path class="st0" d="M140.3,19.5c0.5,2.7,3.1,4.5,5.8,4c2.7-0.5,4.5-3.1,4-5.8c-0.5-2.7-3.1-4.5-5.8-4
			C141.6,14.1,139.8,16.7,140.3,19.5z M144.7,15.8c1.5-0.3,3,0.7,3.3,2.3c0.3,1.5-0.7,3-2.3,3.3c-1.5,0.3-3-0.7-3.3-2.3
			C142.2,17.5,143.2,16,144.7,15.8z"/>
		<path class="st0" d="M148.2,10.1c0.4,2.3,2.7,3.9,5,3.5c2.3-0.4,3.9-2.7,3.4-5c-0.4-2.3-2.7-3.9-5-3.5
			C149.3,5.5,147.7,7.7,148.2,10.1z M152,7.2c1.2-0.2,2.3,0.6,2.5,1.7c0.2,1.2-0.6,2.3-1.7,2.5c-1.2,0.2-2.3-0.6-2.5-1.7
			C150.1,8.5,150.8,7.4,152,7.2z"/>
		<path class="st0" d="M157.5,4.1c0.3,1.9,2.1,3.1,4,2.7c1.9-0.3,3.1-2.1,2.7-4c-0.3-1.9-2.1-3.1-4-2.7
			C158.3,0.4,157.1,2.2,157.5,4.1z M160.6,2c0.8-0.1,1.6,0.4,1.7,1.2c0.1,0.8-0.4,1.6-1.2,1.7c-0.8,0.1-1.6-0.4-1.7-1.2
			C159.2,2.9,159.8,2.1,160.6,2z"/>
		<path class="st0" d="M132.9,30.5c-1,1.2-1.6,2.9-0.2,4.1c0.9,0.8,2.2,0.7,2.9-0.2c0.1-0.1,0.2-0.2,0.2-0.3
			C133.4,35.2,131.9,32.7,132.9,30.5 M137.8,44.2c8-2.6,6.9-9.3,4.5-11.2C144.2,37.4,141.7,41.8,137.8,44.2z M178.4,11
			c-3.3-1.2-6.8-1.3-10.6,0c-7.7,2.7-11.2,7.9-14.1,13.7C158.5,16.7,167.9,9.7,178.4,11z"/>
		<path class="st0" d="M205.6,36.6c2.5,7.8,11.3,5.2,11-1.9c-0.2-12.2-13.7-24.1-25.8-22.9C201.9,20.4,202.3,26.5,205.6,36.6z
			 M213.9,34.6c0.2,4.1-4.1,6.4-5.8,1.4c-0.4-1.3-0.9-3.2-1.7-5.8c-1.3-4-2.8-9.3-9.5-16.1C206.5,17.1,213.8,25.8,213.9,34.6z"/>
		<path class="st0" d="M201.9,18c6.5,5.8,9,12.6,10.4,16.6C212.1,27.8,208.1,21.8,201.9,18"/>
		<path class="st0" d="M161.4,47.8c2.5,3.2,6.7,5.7,11.1,4.1c2.3-0.8,4.2-2.6,5.1-4.8c1.7-4.1-0.3-8.6-4.5-10
			c-1.6-0.5-3.3-0.6-4.9-0.1c0.3-1.8,1.4-3.7,2.6-5c1.2-1.3,2.8-2.5,4.5-3c6.1-1.9,12.5,2.5,14.8,7.7c0.8,1.7,1.1,3.6,0.6,5.5
			c-0.3,1.3-1.1,2.7-2.3,3.4c-2.6,1.6-6.2,0.6-7.9-1.6c-4.4,6.9,2.9,15.6,11.3,13.1c0.7,7.4,7.1,12.4,13.6,12.3
			c6.8-0.2,12-6,13.9-12.1c-1.6,1.1-3.3,1.7-4.8,1.8c-1.3,0.6-2.8,0.6-4.1-0.2c-1.4-0.8-2.2-2.1-2.4-3.6c-0.6-1.1-1.1-2.5-1.5-4.2
			c-1.2-6.6-1-13.1-4.1-19.2c-2.3-4.4-5.9-8.2-10.7-10.8c-5.9-3.3-13.2-4.1-19.8-1.4c-2.9,1.2-5.5,3.1-7.6,5.5
			C159.1,31.4,156.2,41.3,161.4,47.8z M203.8,50.2c0.5,3.5,1.9,9.3,5.5,11c2,0.9,4,1.1,5.9,0.4c-7,11.7-23.1,3.4-20.4-8.9
			c-5,5.5-13.9,0.9-12.6-5c7.9,4,13.9-4.4,10.4-12.2c-1.3-2.9-3.4-5.3-6-7c1.5,0.5,3,1.2,4.4,2.1c3.6,2.2,6.4,5,8.6,8.5
			C201.6,42.6,202.8,46.4,203.8,50.2z M166.3,26.9c9.2-10.7,28.6-7.8,35,10.2c-2.1-3.3-4.9-6.1-8.9-8.5c-6.4-3.9-13.9-4.9-20.3-0.8
			c-4.6,2.8-8.1,8.7-5.8,13.1c1.5-1.5,3.8-2.1,5.8-1.4c2.8,1,4.2,4,3,6.8c-0.6,1.6-2,2.7-3.5,3.3c-3.2,1.1-6.4-1.1-8.3-3.4
			C159.1,40.6,161.8,32.1,166.3,26.9z"/>
		<path class="st0" d="M193.7,34.5c1.3,2.7,1.8,5.7,1,8.6c-0.6,2.4-2,4.6-4.2,5.9c-2.2,1.3-4.6,1.5-6.9,0.9
			C189,54.8,202.3,46,193.7,34.5"/>
		<path class="st0" d="M162.7,40c-0.1,3.4,2,6.9,4.9,8.1c4.4,1.8,8.5-2.8,5.7-6.1c-0.3,3.9-3.5,5.2-6.1,3.9
			C165.4,45,163.6,42.9,162.7,40"/>
		<path class="st0" d="M218.3,47.2c1.7,2.2,4.8,2.5,7,0.8c2.2-1.7,2.5-4.8,0.8-7c-1.7-2.2-4.8-2.5-7-0.8
			C217,41.9,216.6,45.1,218.3,47.2z M220.5,41.9c1.2-1,3-0.8,4,0.5c1,1.2,0.8,3-0.5,4c-1.2,1-3,0.8-4-0.5
			C219.1,44.7,219.3,42.9,220.5,41.9z"/>
		<path class="st0" d="M219.5,35.1c1.5,1.9,4.2,2.2,6.1,0.7c1.9-1.5,2.2-4.2,0.7-6.1c-1.5-1.9-4.2-2.2-6.1-0.7
			C218.4,30.5,218.1,33.2,219.5,35.1z M221.6,30.7c0.9-0.7,2.3-0.6,3,0.4c0.7,0.9,0.6,2.3-0.4,3c-0.9,0.7-2.3,0.6-3-0.4
			C220.5,32.8,220.7,31.5,221.6,30.7z"/>
		<path class="st0" d="M217.8,24.6c1.2,1.5,3.3,1.8,4.8,0.6c1.5-1.2,1.8-3.3,0.6-4.8c-1.2-1.5-3.3-1.8-4.8-0.6
			C216.9,20.9,216.6,23.1,217.8,24.6z M219.6,21.3c0.6-0.5,1.6-0.4,2.1,0.2c0.5,0.6,0.4,1.6-0.2,2.1c-0.6,0.5-1.6,0.4-2.1-0.2
			C218.8,22.7,218.9,21.8,219.6,21.3z"/>
		<path class="st0" d="M115.8,41.3c-0.1,2.4-0.7,4.8-1.8,6.8c0.1-0.2,0.2-0.5,0.4-0.7c12-15.3,3.6-29.5-9.5-24.8
			c2.5-7.3,9.9-8.4,14.9-4.2c-4.4-9.9,7.2-18.8,15-10c-1.7-0.3-3.3,0.1-4.7,1.1c-3.1,2.2-2.4,6.8-2.4,10.2c0,10.1-2.9,21.3-14,29.1
			c0.1-0.1,0.2-0.3,0.3-0.4c-0.7,1.2-1.6,2.3-2.7,3.2c-1.4,1.2-3.1,2-4.9,2.4c0.2,0,0.4,0,0.6,0c14.3-2.6,24.3-19.7,22.8-37.8
			c-0.2-2,0.5-4.1,1.7-4.9c0.9-0.6,2-1,3.2-0.8l5.4,3.9c-0.4-4.3-4.3-9.2-8.5-10.9c-7.5-3.1-15.5,3.2-14.7,11.4
			c-3.2-1.9-14-2.2-15.4,11.4C115.6,19.4,121.8,31.7,115.8,41.3z"/>
		<path class="st0" d="M121.5,34.4c1.2-7.2-3.9-15.9-12.9-13.5C114.5,16.1,125.4,23.8,121.5,34.4 M121.7,20.1
			c-0.9-1.5-1.7-3.3-1.8-5.1c-0.5-6.2,5.9-11.5,11.7-7.6C123.7,4.9,119.7,13.6,121.7,20.1z"/>
		<path class="st0" d="M129,18.7c2.2,2.6,6,3,8.7,0.9c2.6-2.2,3-6,0.9-8.7c-2.2-2.6-6-3-8.7-0.9C127.2,12.2,126.8,16.1,129,18.7z
			 M131.2,11.7c1.7-1.4,4.3-1.1,5.7,0.6c1.4,1.7,1.1,4.3-0.6,5.7c-1.7,1.4-4.3,1.1-5.7-0.6C129.2,15.7,129.5,13.1,131.2,11.7z"/>
		<path class="st0" d="M135,12.4c-0.6-0.4-1.3-0.5-2-0.4c-1.5,0.3-2.5,1.8-2.1,3.3c0.2,1.2,1.2,2,2.4,2.2c-0.6-0.4-1.1-1-1.3-1.8
			c-0.3-1.5,0.7-3,2.1-3.3C134.4,12.4,134.7,12.4,135,12.4"/>
		<path class="st0" d="M64.1,61.1c3.8,1,8.6,0.4,11.1-3.4c1.3-2,1.7-4.5,1.1-6.8c-1.1-4.2-5.3-6.5-9.4-5.1c-1.6,0.5-2.9,1.5-3.9,2.8
			c-0.9-1.6-1.1-3.7-0.9-5.4c0.2-1.7,0.7-3.6,1.7-5c3.6-5.1,11.2-5.5,16-2.9c1.6,0.9,3,2.2,3.7,3.9c0.5,1.2,0.7,2.7,0.2,4
			c-1.1,2.8-4.4,4.1-7,3.4c0.7,8,11.5,10.4,16.5,3.4c5,5.3,12.8,5.4,17.8,1.4c5.2-4.1,5.7-11.8,3.6-17.6c-0.6,1.8-1.5,3.3-2.7,4.3
			c-0.7,1.2-1.8,2.1-3.3,2.3c-1.5,0.2-3-0.3-4-1.4c-1.2-0.5-2.4-1.3-3.6-2.4c-4.8-4.4-8.6-9.6-14.6-12.4c-4.4-2.1-9.4-2.9-14.7-2
			c-6.5,0.9-12.7,4.6-16.1,10.7c-1.5,2.7-2.4,5.7-2.6,8.8C52.5,49.8,56.1,59.1,64.1,61.1z M98.3,37.8c2.5,2.4,7,6.1,10.8,5.3
			c2.1-0.4,3.8-1.5,4.8-3.2c1.5,13.2-15.8,16.3-21.1,5.2c-0.6,7.2-10.3,8.9-12.7,3.6c8.5-1.6,8.2-11.7,0.9-15.6
			c-2.7-1.5-5.8-2.1-8.8-1.8c1.5-0.5,3-0.8,4.7-1c4.1-0.4,7.9,0,11.7,1.5C92.1,33.2,95.3,35.4,98.3,37.8z M55.5,41.9
			c0.8-13.7,17.6-23,33.2-12.8c-3.6-1.3-7.5-1.8-11.9-1.4c-7.3,0.8-13.7,4.4-16.2,11.4c-1.9,4.9-1.1,11.5,3.2,13.6
			c0.3-2,1.7-3.9,3.7-4.5c2.7-0.9,5.6,0.6,6.4,3.5c0.4,1.6,0.1,3.3-0.8,4.6c-1.8,2.8-5.6,3-8.4,2.3C58,56.9,55.1,48.6,55.5,41.9z"/>
		<path class="st0" d="M101.1,37.2c0.6,3.8,4.2,6.4,8,5.8c3.8-0.6,6.4-4.2,5.8-8c-0.6-3.8-4.2-6.4-8-5.8
			C103.1,29.9,100.5,33.4,101.1,37.2z M107.3,31.7c2.5-0.4,4.8,1.3,5.2,3.8c0.4,2.5-1.3,4.8-3.8,5.2c-2.5,0.4-4.8-1.3-5.2-3.8
			C103.1,34.4,104.8,32.1,107.3,31.7z"/>
		<path class="st0" d="M92.9,42.1c0.6,1.9,1.5,3.9,3.1,5.4c5.1,5.1,15,3.6,16.4-4.2C108.1,51.8,97.1,48.7,92.9,42.1"/>
		<path class="st0" d="M81.2,31.6c2.6,1.3,4.7,3.3,5.9,6c1,2.2,1.2,4.8,0.3,7.1c-0.9,2.3-2.7,3.9-4.8,4.8
			C89.6,50.2,94.7,35.4,81.2,31.6"/>
		<path class="st0" d="M111,37c-0.1,0.8-0.6,1.5-1.2,2c-1.4,1-3.4,0.7-4.4-0.7c-0.8-1.1-0.8-2.6,0-3.6c-0.1,0.8,0,1.7,0.5,2.4
			c1,1.4,3,1.7,4.4,0.7C110.5,37.5,110.8,37.3,111,37"/>
		<path class="st0" d="M92.1,20.5c7.7-4.9,11.5-8.8,22.9-8.1c-6.4-7.8-21.2-7.7-28.2,0.4C82.4,17.5,86.1,24.3,92.1,20.5z M88.3,14.4
			c5.1-5.9,14.4-7.5,21.7-3.9c-7.8,0.7-11.8,3.4-14.8,5.3c-2,1.3-3.3,2.3-4.3,2.9C87,21.1,85.8,17,88.3,14.4z"/>
		<path class="st0" d="M104.9,10.1c-7.1,0.1-12.5,3.2-15.6,5.1C93.3,10.8,99,9.1,104.9,10.1"/>
		<path class="st0" d="M209.2,61.2c3.5,1.9,7.8,0.6,9.7-2.8c1.9-3.5,0.6-7.8-2.8-9.7c-3.5-1.9-7.8-0.6-9.7,2.8
			C204.5,54.9,205.7,59.3,209.2,61.2z M208.6,52.7c1.2-2.3,4.1-3.1,6.3-1.9c2.3,1.2,3.1,4.1,1.9,6.3c-1.2,2.3-4.1,3.1-6.3,1.9
			C208.2,57.8,207.3,54.9,208.6,52.7z"/>
		<path class="st0" d="M196.8,50.3c-0.7,1.9-1.2,4.1-0.9,6.3c1,7.4,9.9,12.3,15.9,6.8C203,67.7,196,58.3,196.8,50.3"/>
		<path class="st0" d="M214.6,57.4c-0.6,0.5-1.4,0.9-2.2,0.8c-1.8,0-3.2-1.5-3.1-3.3c0-1.4,1-2.6,2.2-3c-0.6,0.6-1,1.4-1.1,2.3
			c0,1.8,1.4,3.2,3.1,3.3C213.9,57.6,214.3,57.5,214.6,57.4"/>
		<path class="st0" d="M73.8,70.1c9.6,0.6,19.8-9.3,19.6-18.9C86,59.5,81.1,59.4,73,61.3C66.7,62.9,68.2,69.9,73.8,70.1z M73.3,63.4
			c1.1-0.3,2.5-0.5,4.6-1c3.2-0.8,7.5-1.6,13.3-6.5C88.3,63.2,81,68.5,74,68C70.8,67.9,69.2,64.4,73.3,63.4z"/>
		<path class="st0" d="M87.9,59.6c-5,4.7-10.5,6.3-13.7,7.1C79.5,67,84.5,64.3,87.9,59.6"/>
		<path class="st0" d="M60.4,54.2c1.9,2.7,5.7,4.1,8.6,3.4c4.5-1.2,4.9-7.2,0.9-8.1c2.1,3.2,0.4,6.1-2.4,6.6
			C65.5,56.5,62.9,56,60.4,54.2"/>
	</g>
	<g>
		<path class="st0" d="M242.5,130.2c-2.3,2.7-1.8,6.8,1.1,8.8c-5.1-1.2-7.6-8.8-8.3-14.2c-7.9,13.6-2.6,24.1,10.8,32.4
			c2,1.3,4.1,2.4,6.3,3.5c3.6,1.9,6.9,4.8,8.9,8.2c5.2,8.8,3,18.3-3.7,28.3c14.4-9.3,21-24.7,11.4-37.8c-3.4-4.6-8.2-7.5-13.7-10.3
			c-1.6-0.8-3.2-1.6-4.8-2.4c3.5-2.7,5.6-7.2,4.6-11.7c-0.5-2-1.5-3.8-3.1-5.1C249.3,127.6,245.1,127.2,242.5,130.2z M250.4,132
			c5.1,4.4,1.6,13.3-5.6,14.6c6,3.7,13.3,6.1,18.8,10.9c10.5,9.2,10.4,24.3-1,34.1c6-7.6,5-19.7-1.1-26.9c-2.3-2.7-5.1-4.8-7.8-6.2
			c-10-5.3-21.3-11.8-18.9-27.5c2.8,15,15.5,11.7,14.9,5.4c-1.2,1.4-3.3,1.5-4.7,0.3c-1.4-1.2-1.5-3.3-0.3-4.7
			C246.2,130,248.7,130.5,250.4,132z"/>
		<path class="st0" d="M260.6,140.3c-2.7,0.5-4.5,3.1-4,5.8c0.5,2.7,3.1,4.5,5.8,4s4.5-3.1,4-5.8
			C265.9,141.6,263.3,139.8,260.6,140.3z M264.2,144.7c0.3,1.5-0.7,3-2.3,3.3c-1.5,0.3-3-0.7-3.3-2.3c-0.3-1.5,0.7-3,2.3-3.3
			C262.5,142.2,264,143.2,264.2,144.7z"/>
		<path class="st0" d="M269.9,148.2c-2.3,0.4-3.9,2.7-3.5,5c0.4,2.3,2.7,3.9,5,3.4c2.3-0.4,3.9-2.7,3.5-5
			C274.5,149.3,272.3,147.7,269.9,148.2z M272.8,152c0.2,1.2-0.6,2.3-1.7,2.5c-1.2,0.2-2.3-0.6-2.5-1.7c-0.2-1.2,0.6-2.3,1.7-2.5
			C271.5,150.1,272.6,150.8,272.8,152z"/>
		<path class="st0" d="M275.9,157.5c-1.9,0.3-3.1,2.1-2.7,4c0.3,1.9,2.1,3.1,4,2.7c1.9-0.3,3.1-2.1,2.7-4
			C279.6,158.3,277.8,157.1,275.9,157.5z M278,160.6c0.1,0.8-0.4,1.6-1.2,1.7c-0.8,0.1-1.6-0.4-1.7-1.2c-0.1-0.8,0.4-1.6,1.2-1.7
			C277.1,159.2,277.9,159.8,278,160.6z"/>
		<path class="st0" d="M249.5,132.9c-1.2-1-2.9-1.6-4.1-0.2c-0.8,0.9-0.7,2.2,0.2,2.9c0.1,0.1,0.2,0.2,0.3,0.2
			C244.8,133.4,247.3,131.9,249.5,132.9 M235.8,137.8c2.6,8,9.3,6.9,11.2,4.5C242.6,144.2,238.2,141.7,235.8,137.8z M269,178.4
			c1.2-3.3,1.3-6.8,0-10.6c-2.7-7.7-7.9-11.2-13.7-14.1C263.3,158.5,270.3,167.9,269,178.4z"/>
		<path class="st0" d="M243.4,205.6c-7.8,2.5-5.2,11.3,1.9,11c12.2-0.2,24.1-13.7,22.9-25.8C259.6,201.9,253.5,202.3,243.4,205.6z
			 M245.4,213.9c-4.1,0.2-6.4-4.1-1.4-5.8c1.3-0.4,3.2-0.9,5.8-1.7c4-1.3,9.3-2.8,16.1-9.5C262.9,206.5,254.2,213.8,245.4,213.9z"/>
		<path class="st0" d="M262,201.9c-5.8,6.5-12.6,9-16.6,10.4C252.2,212.1,258.2,208.1,262,201.9"/>
		<path class="st0" d="M232.2,161.4c-3.2,2.5-5.7,6.7-4.1,11.1c0.8,2.3,2.6,4.2,4.8,5.1c4.1,1.7,8.6-0.3,10-4.5
			c0.5-1.6,0.6-3.3,0.1-4.9c1.8,0.3,3.7,1.4,5,2.6c1.3,1.2,2.5,2.8,3,4.5c1.9,6.1-2.5,12.5-7.7,14.8c-1.7,0.8-3.6,1.1-5.5,0.6
			c-1.3-0.3-2.7-1.1-3.4-2.3c-1.6-2.6-0.6-6.2,1.6-7.9c-6.9-4.4-15.6,2.9-13.1,11.3c-7.4,0.7-12.4,7.1-12.3,13.6
			c0.2,6.8,6,12,12.1,13.9c-1.1-1.6-1.7-3.3-1.8-4.8c-0.6-1.3-0.6-2.8,0.2-4.1c0.8-1.4,2.1-2.2,3.6-2.4c1.1-0.6,2.5-1.1,4.2-1.5
			c6.6-1.2,13.1-1,19.2-4.1c4.4-2.3,8.2-5.9,10.8-10.7c3.3-5.9,4.1-13.2,1.4-19.8c-1.2-2.9-3.1-5.5-5.5-7.6
			C248.6,159.1,238.7,156.2,232.2,161.4z M229.8,203.8c-3.5,0.5-9.3,1.9-11,5.5c-0.9,2-1.1,4-0.4,5.9c-11.7-7-3.4-23.1,8.9-20.4
			c-5.5-5-0.9-13.9,5-12.6c-4,7.9,4.4,13.9,12.2,10.4c2.9-1.3,5.3-3.4,7-6c-0.5,1.5-1.2,3-2.1,4.4c-2.2,3.6-5,6.4-8.5,8.6
			C237.4,201.6,233.6,202.8,229.8,203.8z M253.1,166.3c10.7,9.2,7.8,28.6-10.2,35c3.3-2.1,6.1-4.9,8.5-8.9
			c3.9-6.4,4.9-13.9,0.8-20.3c-2.8-4.6-8.7-8.1-13.1-5.8c1.5,1.5,2.1,3.8,1.4,5.8c-1,2.8-4,4.2-6.8,3c-1.6-0.6-2.7-2-3.3-3.5
			c-1.1-3.2,1.1-6.4,3.4-8.3C239.4,159.1,247.9,161.8,253.1,166.3z"/>
		<path class="st0" d="M245.5,193.7c-2.7,1.3-5.7,1.8-8.6,1c-2.4-0.6-4.6-2-5.9-4.2c-1.3-2.2-1.5-4.6-0.9-6.9
			C225.2,189,234,202.3,245.5,193.7"/>
		<path class="st0" d="M240,162.7c-3.4-0.1-6.9,2-8.1,4.9c-1.8,4.4,2.8,8.5,6.1,5.7c-3.9-0.3-5.2-3.5-3.9-6.1
			C235,165.4,237.1,163.6,240,162.7"/>
		<path class="st0" d="M232.8,218.3c-2.2,1.7-2.5,4.8-0.8,7c1.7,2.2,4.8,2.5,7,0.8c2.2-1.7,2.5-4.8,0.8-7
			C238.1,217,234.9,216.6,232.8,218.3z M238.1,220.5c1,1.2,0.8,3-0.5,4c-1.2,1-3,0.8-4-0.5c-1-1.2-0.8-3,0.5-4
			C235.3,219.1,237.1,219.3,238.1,220.5z"/>
		<path class="st0" d="M244.9,219.5c-1.9,1.5-2.2,4.2-0.7,6.1c1.5,1.9,4.2,2.2,6.1,0.7c1.9-1.5,2.2-4.2,0.7-6.1
			C249.5,218.4,246.8,218.1,244.9,219.5z M249.3,221.6c0.7,0.9,0.6,2.3-0.4,3c-0.9,0.7-2.3,0.6-3-0.4c-0.7-0.9-0.6-2.3,0.4-3
			C247.2,220.5,248.5,220.7,249.3,221.6z"/>
		<path class="st0" d="M255.4,217.8c-1.5,1.2-1.8,3.3-0.6,4.8c1.2,1.5,3.3,1.8,4.8,0.6c1.5-1.2,1.8-3.3,0.6-4.8
			C259.1,216.9,256.9,216.6,255.4,217.8z M258.7,219.6c0.5,0.6,0.4,1.6-0.2,2.1c-0.6,0.5-1.6,0.4-2.1-0.2c-0.5-0.6-0.4-1.6,0.2-2.1
			C257.3,218.8,258.2,218.9,258.7,219.6z"/>
		<path class="st0" d="M238.7,115.8c-2.4-0.1-4.8-0.7-6.8-1.8c0.2,0.1,0.5,0.2,0.7,0.4c15.3,12,29.5,3.6,24.8-9.5
			c7.3,2.5,8.4,9.9,4.2,14.9c9.9-4.4,18.8,7.2,10,15c0.3-1.7-0.1-3.3-1.1-4.7c-2.2-3.1-6.8-2.4-10.2-2.4c-10.1,0-21.3-2.9-29.1-14
			c0.1,0.1,0.3,0.2,0.4,0.3c-1.2-0.7-2.3-1.6-3.2-2.7c-1.2-1.4-2-3.1-2.4-4.9c0,0.2,0,0.4,0,0.6c2.6,14.3,19.7,24.3,37.8,22.8
			c2-0.2,4.1,0.5,4.9,1.7c0.6,0.9,1,2,0.8,3.2l-3.9,5.4c4.3-0.4,9.2-4.3,10.9-8.5c3.1-7.5-3.2-15.5-11.4-14.7
			c1.9-3.2,2.2-14-11.4-15.4C260.6,115.6,248.3,121.8,238.7,115.8z"/>
		<path class="st0" d="M245.6,121.5c7.2,1.2,15.9-3.9,13.5-12.9C263.9,114.5,256.2,125.4,245.6,121.5 M259.9,121.7
			c1.5-0.9,3.3-1.7,5.1-1.8c6.2-0.5,11.5,5.9,7.6,11.7C275.1,123.7,266.4,119.7,259.9,121.7z"/>
		<path class="st0" d="M261.3,129c-2.6,2.2-3,6-0.9,8.7c2.2,2.6,6,3,8.7,0.9c2.6-2.2,3-6,0.9-8.7C267.8,127.2,263.9,126.8,261.3,129
			z M268.3,131.2c1.4,1.7,1.1,4.3-0.6,5.7c-1.7,1.4-4.3,1.1-5.7-0.6c-1.4-1.7-1.1-4.3,0.6-5.7C264.3,129.2,266.9,129.5,268.3,131.2z
			"/>
		<path class="st0" d="M267.6,135c0.4-0.6,0.5-1.3,0.4-2c-0.3-1.5-1.8-2.5-3.3-2.1c-1.2,0.2-2,1.2-2.2,2.4c0.4-0.6,1-1.1,1.8-1.3
			c1.5-0.3,3,0.7,3.3,2.1C267.6,134.4,267.6,134.7,267.6,135"/>
		<path class="st0" d="M218.9,64.1c-1,3.8-0.4,8.6,3.4,11.1c2,1.3,4.5,1.7,6.8,1.1c4.2-1.1,6.5-5.3,5.1-9.4
			c-0.5-1.6-1.5-2.9-2.8-3.9c1.6-0.9,3.7-1.1,5.4-0.9c1.7,0.2,3.6,0.7,5,1.7c5.1,3.6,5.5,11.2,2.9,16c-0.9,1.6-2.2,3-3.9,3.7
			c-1.2,0.5-2.7,0.7-4,0.2c-2.8-1.1-4.1-4.4-3.4-7c-8,0.7-10.4,11.5-3.4,16.5c-5.3,5-5.4,12.8-1.4,17.8c4.1,5.2,11.8,5.7,17.6,3.6
			c-1.8-0.6-3.3-1.5-4.3-2.7c-1.2-0.7-2.1-1.8-2.3-3.3c-0.2-1.5,0.3-3,1.4-4c0.5-1.2,1.3-2.4,2.4-3.6c4.4-4.8,9.6-8.6,12.4-14.6
			c2.1-4.4,2.9-9.4,2-14.7c-0.9-6.5-4.6-12.7-10.7-16.1c-2.7-1.5-5.7-2.4-8.8-2.6C230.2,52.5,220.9,56.1,218.9,64.1z M242.2,98.3
			c-2.4,2.5-6.1,7-5.3,10.8c0.4,2.1,1.5,3.8,3.2,4.8c-13.2,1.5-16.3-15.8-5.2-21.1c-7.2-0.6-8.9-10.3-3.6-12.7
			c1.6,8.5,11.7,8.2,15.6,0.9c1.5-2.7,2.1-5.8,1.8-8.8c0.5,1.5,0.8,3,1,4.7c0.4,4.1,0,7.9-1.5,11.7
			C246.8,92.1,244.6,95.3,242.2,98.3z M238.1,55.5c13.7,0.8,23,17.6,12.8,33.2c1.3-3.6,1.8-7.5,1.4-11.9
			c-0.8-7.3-4.4-13.7-11.4-16.2c-4.9-1.9-11.5-1.1-13.6,3.2c2,0.3,3.9,1.7,4.5,3.7c0.9,2.7-0.6,5.6-3.5,6.4
			c-1.6,0.4-3.3,0.1-4.6-0.8c-2.8-1.8-3-5.6-2.3-8.4C223.1,58,231.4,55.1,238.1,55.5z"/>
		<path class="st0" d="M242.8,101.1c-3.8,0.6-6.4,4.2-5.8,8c0.6,3.8,4.2,6.4,8,5.8c3.8-0.6,6.4-4.2,5.8-8
			C250.1,103.1,246.6,100.5,242.8,101.1z M248.3,107.3c0.4,2.5-1.3,4.8-3.8,5.2c-2.5,0.4-4.8-1.3-5.2-3.8c-0.4-2.5,1.3-4.8,3.8-5.2
			C245.6,103.1,247.9,104.8,248.3,107.3z"/>
		<path class="st0" d="M237.9,92.9c-1.9,0.6-3.9,1.5-5.4,3.1c-5.1,5.1-3.6,15,4.2,16.4C228.2,108.1,231.3,97.1,237.9,92.9"/>
		<path class="st0" d="M248.4,81.2c-1.3,2.6-3.3,4.7-6,5.9c-2.2,1-4.8,1.2-7.1,0.3c-2.3-0.9-3.9-2.7-4.8-4.8
			C229.8,89.6,244.6,94.7,248.4,81.2"/>
		<path class="st0" d="M243,111c-0.8-0.1-1.5-0.6-2-1.2c-1-1.4-0.7-3.4,0.7-4.4c1.1-0.8,2.6-0.8,3.6,0c-0.8-0.1-1.7,0-2.4,0.5
			c-1.4,1-1.7,3-0.7,4.4C242.5,110.5,242.7,110.8,243,111"/>
		<path class="st0" d="M259.5,92.1c4.9,7.7,8.8,11.5,8.1,22.9c7.8-6.4,7.7-21.2-0.4-28.2C262.5,82.4,255.7,86.1,259.5,92.1z
			 M265.6,88.3c5.9,5.1,7.5,14.4,3.9,21.7c-0.7-7.8-3.4-11.8-5.3-14.8c-1.3-2-2.3-3.3-2.9-4.3C258.9,87,263,85.8,265.6,88.3z"/>
		<path class="st0" d="M269.9,104.9c-0.1-7.1-3.2-12.5-5.1-15.6C269.2,93.3,270.9,99,269.9,104.9"/>
		<path class="st0" d="M218.8,209.2c-1.9,3.5-0.6,7.8,2.8,9.7c3.5,1.9,7.8,0.6,9.7-2.8c1.9-3.5,0.6-7.8-2.8-9.7
			C225.1,204.5,220.7,205.7,218.8,209.2z M227.3,208.6c2.3,1.2,3.1,4.1,1.9,6.3c-1.2,2.3-4.1,3.1-6.3,1.9c-2.3-1.2-3.1-4.1-1.9-6.3
			C222.2,208.2,225.1,207.3,227.3,208.6z"/>
		<path class="st0" d="M229.7,196.8c-1.9-0.7-4.1-1.2-6.3-0.9c-7.4,1-12.3,9.9-6.8,15.9C212.3,203,221.7,196,229.7,196.8"/>
		<path class="st0" d="M222.6,214.6c-0.5-0.6-0.9-1.4-0.8-2.2c0-1.8,1.5-3.2,3.3-3.1c1.4,0,2.6,1,3,2.2c-0.6-0.6-1.4-1-2.3-1.1
			c-1.8,0-3.2,1.4-3.3,3.1C222.4,213.9,222.5,214.3,222.6,214.6"/>
		<path class="st0" d="M209.9,73.8c-0.6,9.6,9.3,19.8,18.9,19.6c-8.2-7.4-8.2-12.3-10.1-20.4C217.1,66.7,210.1,68.2,209.9,73.8z
			 M216.6,73.3c0.3,1.1,0.5,2.5,1,4.6c0.8,3.2,1.6,7.5,6.5,13.3C216.8,88.3,211.5,81,212,74C212.1,70.8,215.6,69.2,216.6,73.3z"/>
		<path class="st0" d="M220.4,87.9c-4.7-5-6.3-10.5-7.1-13.7C213,79.5,215.7,84.5,220.4,87.9"/>
		<path class="st0" d="M225.8,60.4c-2.7,1.9-4.1,5.7-3.4,8.6c1.2,4.5,7.2,4.9,8.1,0.9c-3.2,2.1-6.1,0.4-6.6-2.4
			C223.5,65.5,224,62.9,225.8,60.4"/>
	</g>
	<g>
		<path class="st0" d="M149.8,242.5c-2.7-2.3-6.8-1.8-8.8,1.1c1.2-5.1,8.8-7.6,14.2-8.3c-13.6-7.9-24.1-2.6-32.4,10.8
			c-1.3,2-2.4,4.1-3.5,6.3c-1.9,3.6-4.8,6.9-8.2,8.9c-8.8,5.2-18.3,3-28.3-3.7c9.3,14.4,24.7,21,37.8,11.4
			c4.6-3.4,7.5-8.2,10.3-13.7c0.8-1.6,1.6-3.2,2.4-4.8c2.7,3.5,7.2,5.6,11.7,4.6c2-0.5,3.8-1.5,5.1-3.1
			C152.4,249.3,152.8,245.1,149.8,242.5z M148,250.4c-4.4,5.1-13.3,1.6-14.6-5.6c-3.7,6-6.1,13.3-10.9,18.8
			c-9.2,10.5-24.3,10.4-34.1-1c7.6,6,19.7,5,26.9-1.1c2.7-2.3,4.8-5.1,6.2-7.8c5.3-10,11.8-21.3,27.5-18.9
			c-15,2.8-11.7,15.5-5.4,14.9c-1.4-1.2-1.5-3.3-0.3-4.7c1.2-1.4,3.3-1.5,4.7-0.3C150,246.2,149.5,248.7,148,250.4z"/>
		<path class="st0" d="M139.7,260.5c-0.5-2.7-3.1-4.5-5.8-4c-2.7,0.5-4.5,3.1-4,5.8c0.5,2.7,3.1,4.5,5.8,4
			C138.4,265.9,140.2,263.3,139.7,260.5z M135.3,264.2c-1.5,0.3-3-0.7-3.3-2.3c-0.3-1.5,0.7-3,2.3-3.3c1.5-0.3,3,0.7,3.3,2.3
			C137.8,262.5,136.8,264,135.3,264.2z"/>
		<path class="st0" d="M131.8,269.9c-0.4-2.3-2.7-3.9-5-3.5c-2.3,0.4-3.9,2.7-3.4,5c0.4,2.3,2.7,3.9,5,3.5
			C130.7,274.5,132.3,272.3,131.8,269.9z M128,272.8c-1.2,0.2-2.3-0.6-2.5-1.7c-0.2-1.2,0.6-2.3,1.7-2.5c1.2-0.2,2.3,0.6,2.5,1.7
			C129.9,271.5,129.2,272.6,128,272.8z"/>
		<path class="st0" d="M122.5,275.9c-0.3-1.9-2.1-3.1-4-2.7c-1.9,0.3-3.1,2.1-2.7,4c0.3,1.9,2.1,3.1,4,2.7
			C121.7,279.6,122.9,277.8,122.5,275.9z M119.4,278c-0.8,0.1-1.6-0.4-1.7-1.2c-0.1-0.8,0.4-1.6,1.2-1.7c0.8-0.1,1.6,0.4,1.7,1.2
			C120.8,277.1,120.2,277.9,119.4,278z"/>
		<path class="st0" d="M147.1,249.5c1-1.2,1.6-2.9,0.2-4.1c-0.9-0.8-2.2-0.7-2.9,0.2c-0.1,0.1-0.2,0.2-0.2,0.3
			C146.6,244.8,148.1,247.3,147.1,249.5 M142.2,235.8c-8,2.6-6.9,9.3-4.5,11.2C135.8,242.6,138.3,238.2,142.2,235.8z M101.6,269
			c3.3,1.2,6.8,1.3,10.6,0c7.7-2.7,11.2-7.9,14.1-13.7C121.5,263.3,112.1,270.3,101.6,269z"/>
		<path class="st0" d="M74.4,243.4c-2.5-7.8-11.3-5.2-11,1.9c0.2,12.2,13.7,24.1,25.8,22.9C78.1,259.6,77.7,253.5,74.4,243.4z
			 M66.1,245.4c-0.2-4.1,4.1-6.4,5.8-1.4c0.4,1.3,0.9,3.2,1.7,5.8c1.3,4,2.8,9.3,9.5,16.1C73.5,262.9,66.2,254.2,66.1,245.4z"/>
		<path class="st0" d="M78.1,262c-6.5-5.8-9-12.6-10.4-16.6C67.9,252.2,71.9,258.2,78.1,262"/>
		<path class="st0" d="M118.6,232.2c-2.5-3.2-6.7-5.7-11.1-4.1c-2.3,0.8-4.2,2.6-5.1,4.8c-1.7,4.1,0.3,8.6,4.5,10
			c1.6,0.5,3.3,0.6,4.9,0.1c-0.3,1.8-1.4,3.7-2.6,5c-1.2,1.3-2.8,2.5-4.5,3c-6.1,1.9-12.5-2.5-14.8-7.7c-0.8-1.7-1.1-3.6-0.6-5.5
			c0.3-1.3,1.1-2.7,2.3-3.4c2.6-1.6,6.2-0.6,7.9,1.6c4.4-6.9-2.9-15.6-11.3-13.1c-0.7-7.4-7.1-12.4-13.6-12.3
			c-6.8,0.2-12,6-13.9,12.1c1.6-1.1,3.3-1.7,4.8-1.8c1.3-0.6,2.8-0.6,4.1,0.2c1.4,0.8,2.2,2.1,2.4,3.6c0.6,1.1,1.1,2.5,1.5,4.2
			c1.2,6.6,1,13.1,4.1,19.2c2.3,4.4,5.9,8.2,10.7,10.8c5.9,3.3,13.2,4.1,19.8,1.4c2.9-1.2,5.5-3.1,7.6-5.5
			C120.9,248.6,123.8,238.7,118.6,232.2z M76.2,229.8c-0.5-3.5-1.9-9.3-5.5-11c-2-0.9-4-1.1-5.9-0.4c7-11.7,23.1-3.4,20.4,8.9
			c5-5.5,13.9-0.9,12.6,5c-7.9-4-13.9,4.4-10.4,12.2c1.3,2.9,3.4,5.3,6,7c-1.5-0.5-3-1.2-4.4-2.1c-3.6-2.2-6.4-5-8.6-8.5
			C78.4,237.4,77.2,233.6,76.2,229.8z M113.7,253.1c-9.2,10.7-28.6,7.8-35-10.2c2.1,3.3,4.9,6.1,8.9,8.5c6.4,3.9,13.9,4.9,20.3,0.8
			c4.6-2.8,8.1-8.7,5.8-13.1c-1.5,1.5-3.8,2.1-5.8,1.4c-2.8-1-4.2-4-3-6.8c0.6-1.6,2-2.7,3.5-3.3c3.2-1.1,6.4,1.1,8.3,3.4
			C120.9,239.4,118.2,247.9,113.7,253.1z"/>
		<path class="st0" d="M86.3,245.5c-1.3-2.7-1.8-5.7-1-8.6c0.6-2.4,2-4.6,4.2-5.9c2.2-1.3,4.6-1.5,6.9-0.9
			C91,225.2,77.7,234,86.3,245.5"/>
		<path class="st0" d="M117.3,240c0.1-3.4-2-6.9-4.9-8.1c-4.4-1.8-8.5,2.8-5.7,6.1c0.3-3.9,3.5-5.2,6.1-3.9
			C114.6,235,116.4,237.1,117.3,240"/>
		<path class="st0" d="M61.7,232.8c-1.7-2.2-4.8-2.5-7-0.8c-2.2,1.7-2.5,4.8-0.8,7c1.7,2.2,4.8,2.5,7,0.8
			C63,238.1,63.4,234.9,61.7,232.8z M59.5,238.1c-1.2,1-3,0.8-4-0.5c-1-1.2-0.8-3,0.5-4c1.2-1,3-0.8,4,0.5
			C60.9,235.3,60.7,237.1,59.5,238.1z"/>
		<path class="st0" d="M60.5,244.9c-1.5-1.9-4.2-2.2-6.1-0.7c-1.9,1.5-2.2,4.2-0.7,6.1c1.5,1.9,4.2,2.2,6.1,0.7
			C61.6,249.5,61.9,246.8,60.5,244.9z M58.4,249.3c-0.9,0.7-2.3,0.6-3-0.4c-0.7-0.9-0.6-2.3,0.4-3c0.9-0.7,2.3-0.6,3,0.4
			C59.5,247.2,59.3,248.5,58.4,249.3z"/>
		<path class="st0" d="M62.2,255.4c-1.2-1.5-3.3-1.8-4.8-0.6c-1.5,1.2-1.8,3.3-0.6,4.8c1.2,1.5,3.3,1.8,4.8,0.6
			C63.1,259.1,63.4,256.9,62.2,255.4z M60.4,258.7c-0.6,0.5-1.6,0.4-2.1-0.2c-0.5-0.6-0.4-1.6,0.2-2.1c0.6-0.5,1.6-0.4,2.1,0.2
			C61.2,257.3,61.1,258.2,60.4,258.7z"/>
		<path class="st0" d="M164.2,238.7c0.1-2.4,0.7-4.8,1.8-6.8c-0.1,0.2-0.2,0.5-0.4,0.7c-12,15.3-3.6,29.5,9.5,24.8
			c-2.5,7.3-9.9,8.4-14.9,4.2c4.4,9.9-7.2,18.8-15,10c1.7,0.3,3.3-0.1,4.7-1.1c3.1-2.2,2.4-6.8,2.4-10.2c0-10.1,2.9-21.3,14-29.1
			c-0.1,0.1-0.2,0.3-0.3,0.4c0.7-1.2,1.6-2.3,2.7-3.2c1.4-1.2,3.1-2,4.9-2.4c-0.2,0-0.4,0-0.6,0c-14.3,2.6-24.3,19.7-22.8,37.8
			c0.2,2-0.5,4.1-1.7,4.9c-0.9,0.6-2,1-3.2,0.8l-5.4-3.9c0.4,4.3,4.3,9.2,8.5,10.9c7.5,3.1,15.5-3.2,14.7-11.4
			c3.2,1.9,14,2.2,15.4-11.4C164.4,260.6,158.2,248.3,164.2,238.7z"/>
		<path class="st0" d="M158.5,245.6c-1.2,7.2,3.9,15.9,12.9,13.5C165.5,263.9,154.6,256.2,158.5,245.6 M158.3,259.9
			c0.9,1.5,1.7,3.3,1.8,5.1c0.5,6.2-5.9,11.5-11.7,7.6C156.3,275.1,160.3,266.4,158.3,259.9z"/>
		<path class="st0" d="M151,261.3c-2.2-2.6-6-3-8.7-0.9c-2.6,2.2-3,6-0.9,8.7c2.2,2.6,6,3,8.7,0.9
			C152.8,267.8,153.2,263.9,151,261.3z M148.8,268.3c-1.7,1.4-4.3,1.1-5.7-0.6c-1.4-1.7-1.1-4.3,0.6-5.7c1.7-1.4,4.3-1.1,5.7,0.6
			C150.8,264.3,150.5,266.9,148.8,268.3z"/>
		<path class="st0" d="M145,267.6c0.6,0.4,1.3,0.5,2,0.4c1.5-0.3,2.5-1.8,2.1-3.3c-0.2-1.2-1.2-2-2.4-2.2c0.6,0.4,1.1,1,1.3,1.8
			c0.3,1.5-0.7,3-2.1,3.3C145.6,267.6,145.3,267.6,145,267.6"/>
		<path class="st0" d="M215.9,218.9c-3.8-1-8.6-0.4-11.1,3.4c-1.3,2-1.7,4.5-1.1,6.8c1.1,4.2,5.3,6.5,9.4,5.1
			c1.6-0.5,2.9-1.5,3.9-2.8c0.9,1.6,1.1,3.7,0.9,5.4c-0.2,1.7-0.7,3.6-1.7,5c-3.6,5.1-11.2,5.5-16,2.9c-1.6-0.9-3-2.2-3.7-3.9
			c-0.5-1.2-0.7-2.7-0.2-4c1.1-2.8,4.4-4.1,7-3.4c-0.7-8-11.5-10.4-16.5-3.4c-5-5.3-12.8-5.4-17.8-1.4c-5.2,4.1-5.7,11.8-3.6,17.6
			c0.6-1.8,1.5-3.3,2.7-4.3c0.7-1.2,1.8-2.1,3.3-2.3c1.5-0.2,3,0.3,4,1.4c1.2,0.5,2.4,1.3,3.6,2.4c4.8,4.4,8.6,9.6,14.6,12.4
			c4.4,2.1,9.4,2.9,14.7,2c6.5-0.9,12.7-4.6,16.1-10.7c1.5-2.7,2.4-5.7,2.6-8.8C227.5,230.2,223.9,220.9,215.9,218.9z M181.7,242.2
			c-2.5-2.4-7-6.1-10.8-5.3c-2.1,0.4-3.8,1.5-4.8,3.2c-1.5-13.2,15.8-16.3,21.1-5.2c0.6-7.2,10.3-8.9,12.7-3.6
			c-8.5,1.6-8.2,11.7-0.9,15.6c2.7,1.5,5.8,2.1,8.8,1.8c-1.5,0.5-3,0.8-4.7,1c-4.1,0.4-7.9,0-11.7-1.5
			C187.9,246.8,184.7,244.6,181.7,242.2z M224.5,238.1c-0.8,13.7-17.6,23-33.2,12.8c3.6,1.3,7.5,1.8,11.9,1.4
			c7.3-0.8,13.7-4.4,16.2-11.4c1.9-4.9,1.1-11.5-3.2-13.6c-0.3,2-1.7,3.9-3.7,4.5c-2.7,0.9-5.6-0.6-6.4-3.5
			c-0.4-1.6-0.1-3.3,0.8-4.6c1.8-2.8,5.6-3,8.4-2.3C222,223.1,224.9,231.4,224.5,238.1z"/>
		<path class="st0" d="M178.9,242.8c-0.6-3.8-4.2-6.4-8-5.8c-3.8,0.6-6.4,4.2-5.8,8c0.6,3.8,4.2,6.4,8,5.8
			C176.9,250.1,179.5,246.6,178.9,242.8z M172.7,248.3c-2.5,0.4-4.8-1.3-5.2-3.8c-0.4-2.5,1.3-4.8,3.8-5.2c2.5-0.4,4.8,1.3,5.2,3.8
			C176.9,245.6,175.2,247.9,172.7,248.3z"/>
		<path class="st0" d="M187.1,237.9c-0.6-1.9-1.5-3.9-3.1-5.4c-5.1-5.1-15-3.6-16.4,4.2C171.9,228.2,182.9,231.3,187.1,237.9"/>
		<path class="st0" d="M198.8,248.4c-2.6-1.3-4.7-3.3-5.9-6c-1-2.2-1.2-4.8-0.3-7.1c0.9-2.3,2.7-3.9,4.8-4.8
			C190.4,229.8,185.3,244.6,198.8,248.4"/>
		<path class="st0" d="M169,243c0.1-0.8,0.6-1.5,1.2-2c1.4-1,3.4-0.7,4.4,0.7c0.8,1.1,0.8,2.6,0,3.6c0.1-0.8,0-1.7-0.5-2.4
			c-1-1.4-3-1.7-4.4-0.7C169.5,242.5,169.2,242.7,169,243"/>
		<path class="st0" d="M187.9,259.5c-7.7,4.9-11.5,8.8-22.9,8.1c6.4,7.8,21.2,7.7,28.2-0.4C197.6,262.5,193.9,255.7,187.9,259.5z
			 M191.7,265.6c-5.1,5.9-14.4,7.5-21.7,3.9c7.8-0.7,11.8-3.4,14.8-5.3c2-1.3,3.3-2.3,4.3-2.9C193,258.9,194.2,263,191.7,265.6z"/>
		<path class="st0" d="M175.1,269.9c7.1-0.1,12.5-3.2,15.6-5.1C186.7,269.2,181,270.9,175.1,269.9"/>
		<path class="st0" d="M70.8,218.8c-3.5-1.9-7.8-0.6-9.7,2.8c-1.9,3.5-0.6,7.8,2.8,9.7c3.5,1.9,7.8,0.6,9.7-2.8
			C75.5,225.1,74.3,220.7,70.8,218.8z M71.4,227.3c-1.2,2.3-4.1,3.1-6.3,1.9c-2.3-1.2-3.1-4.1-1.9-6.3c1.2-2.3,4.1-3.1,6.3-1.9
			C71.8,222.2,72.7,225.1,71.4,227.3z"/>
		<path class="st0" d="M83.2,229.7c0.7-1.9,1.2-4.1,0.9-6.3c-1-7.4-9.9-12.3-15.9-6.8C77,212.3,84,221.7,83.2,229.7"/>
		<path class="st0" d="M65.4,222.6c0.6-0.5,1.4-0.9,2.2-0.8c1.8,0,3.2,1.5,3.1,3.3c0,1.4-1,2.6-2.2,3c0.6-0.6,1-1.4,1.1-2.3
			c0-1.8-1.4-3.2-3.1-3.3C66.1,222.4,65.7,222.5,65.4,222.6"/>
		<path class="st0" d="M206.2,209.9c-9.6-0.6-19.8,9.3-19.6,18.9c7.4-8.2,12.3-8.2,20.4-10.1C213.3,217.1,211.8,210.1,206.2,209.9z
			 M206.7,216.6c-1.1,0.3-2.5,0.5-4.6,1c-3.2,0.8-7.5,1.6-13.3,6.5c2.9-7.3,10.2-12.5,17.2-12.1
			C209.2,212.1,210.8,215.6,206.7,216.6z"/>
		<path class="st0" d="M192.1,220.4c5-4.7,10.5-6.3,13.7-7.1C200.5,213,195.5,215.7,192.1,220.4"/>
		<path class="st0" d="M219.6,225.8c-1.9-2.7-5.7-4.1-8.6-3.4c-4.5,1.2-4.9,7.2-0.9,8.1c-2.1-3.2-0.4-6.1,2.4-6.6
			C214.5,223.5,217.1,224,219.6,225.8"/>
	</g>
</g>
</svg>
