<?xml version="1.0" encoding="utf-8"?>
<!-- Generator: Adobe Illustrator 27.1.1, SVG Export Plug-In . SVG Version: 6.00 Build 0)  -->
<svg version="1.1" id="Layer_1" xmlns="http://www.w3.org/2000/svg" xmlns:xlink="http://www.w3.org/1999/xlink" x="0px" y="0px"
	 viewBox="0 0 280 280" style="enable-background:new 0 0 280 280;" xml:space="preserve">
<style type="text/css">
	.st0{fill:#BDA277;}
	.st1{fill-rule:evenodd;clip-rule:evenodd;fill:#BDA277;}
	.st2{display:none;fill-rule:evenodd;clip-rule:evenodd;fill:#BDA277;}
	.st3{display:none;fill:#1A1A1A;}
	.st4{fill:#BDA277;stroke:#BDA277;stroke-width:8.608675e-02;stroke-miterlimit:10;}
</style>
<path class="st0" d="M76.6,4.8c11.3,7.4,21.9,9.8,31,9.4c13.3-0.6,23.8-6.9,29.6-11.9L140,0l2.7,2.4c5.8,5,16.3,11.3,29.6,11.9
	c9.2,0.4,19.7-2,31-9.4l3.1-2l2.4,2.8l20.2,23l2.7,3.1l-3,2.8c-2.9,2.7-5.1,5.6-6.6,8.5c-3.6,6.8-4.2,14-2.8,20.6
	c1.4,6.7,4.7,12.7,8.7,17c1.8,1.9,3.7,3.4,5.6,4.5l2.1,1.1l0.1,2.4c4,75-30.5,96-60.4,114.2c-13,7.9-25,15.2-31.8,26.2L140,235
	l-3.6-5.9c-6.8-11.1-18.8-18.4-31.8-26.2c-29.9-18.2-64.5-39.2-60.4-114.2l0.1-2.4l2.1-1.1c1.9-1,3.8-2.6,5.6-4.5
	c4-4.3,7.3-10.3,8.7-17c1.4-6.6,0.8-13.8-2.8-20.6c-1.6-2.9-3.8-5.8-6.6-8.5l-3-2.8l2.7-3.1L71.1,5.6l2.4-2.8L76.6,4.8L76.6,4.8z
	 M108,22.6c-9.9,0.4-21-1.8-32.9-8.8L59.9,31.3c2.2,2.5,4,5.1,5.5,7.7c4.7,8.7,5.4,17.9,3.7,26.3c-1.7,8.3-5.8,15.8-10.8,21.1
	c-1.8,1.9-3.7,3.5-5.7,4.9c-3,68.2,28.9,87.5,56.5,104.3c11.9,7.2,23.1,14,31,23.9c7.9-9.9,19.1-16.7,31-23.9
	c27.6-16.8,59.4-36.1,56.5-104.3c-2-1.3-3.9-3-5.7-4.8c-5-5.3-9.1-12.8-10.8-21.1c-1.7-8.4-1-17.6,3.7-26.3c1.4-2.7,3.2-5.3,5.5-7.7
	l-15.2-17.5c-11.8,7-23,9.2-32.9,8.8c-13.8-0.6-24.9-6.4-32-11.7C132.9,16.3,121.7,22.1,108,22.6L108,22.6z"/>
<path class="st1" d="M274.6,116.4c0,0-5.2-23.4,4.7-27c0,0-4.8-0.4-7.6,2.1c0,0,4.6-4.7,3.2-9.6C274.8,81.8,251.7,91.4,274.6,116.4
	L274.6,116.4z"/>
<path class="st1" d="M160.3,218.1c0,0,22.9-6.9,27.3,2.7c0,0,0.1-4.8-2.6-7.4c0,0,5,4.2,9.9,2.4
	C194.8,215.8,183.6,193.4,160.3,218.1L160.3,218.1z"/>
<path class="st1" d="M215.1,177c0,0,40.3-16.5,49.9,0.1c0,0-0.7-8.7-6.1-12.9c0,0,9.8,6.8,18.3,2.7
	C277.1,166.9,252.9,128.3,215.1,177L215.1,177z"/>
<path class="st1" d="M198.9,207.6c0,0,21.4-9.4,26.8-0.6c0,0-0.5-4.7-3.4-6.9c0,0,5.4,3.5,9.9,1.2
	C232.2,201.3,218.6,180.9,198.9,207.6L198.9,207.6z"/>
<path class="st1" d="M185.8,210.7c0,0,19.1-13.5,14.4-22.7c0,0,3.8,2.9,4.1,6.5c0,0-0.2-6.4,4-9.1
	C208.3,185.5,218.8,207.6,185.8,210.7L185.8,210.7z"/>
<path class="st1" d="M240.2,55.5c-0.1,0.4-0.3,0.8-0.4,1.1c-0.1,0.4-0.2,0.8-0.2,1.1c-0.1,0.7-0.3,1.3-0.3,1.9c0,0.6,0,1.1-0.1,1.5
	c0,0.8,0,1.3,0,1.3s0.1-0.5,0.3-1.3c0.1-0.4,0.2-0.9,0.3-1.4c0.2-0.5,0.4-1.1,0.6-1.8c0.2-0.7,0.5-1.3,0.9-2
	c0.3-0.7,0.7-1.4,1.2-2.2c0.2-0.4,0.5-0.7,0.7-1.1c0.3-0.3,0.5-0.7,0.8-1c0.5-0.7,1.2-1.4,1.8-2c0.6-0.7,1.3-1.2,2-1.9
	c0.7-0.5,1.4-1.1,2.1-1.6c1.4-1,2.8-1.8,4-2.5c2.4-1.4,4.2-2,4.2-2s-1.9,0.2-4.6,1.2c-1.3,0.5-2.9,1.2-4.4,2.2
	c-0.8,0.5-1.5,1-2.3,1.6c-0.7,0.6-1.5,1.2-2.1,1.9c-0.7,0.7-1.3,1.4-1.9,2.2c-0.3,0.4-0.6,0.8-0.8,1.2s-0.4,0.8-0.7,1.2
	C240.8,53.9,240.5,54.7,240.2,55.5L240.2,55.5z M244.2,75.5c0,0.5,0.1,1.2,0.2,1.9c0.1,0.7,0.2,1.6,0.5,2.5s0.5,1.8,1,2.8
	c0.4,1,0.8,2,1.4,3c1,2.1,2.4,4.1,3.7,6.1c1.4,2,2.9,3.9,4.4,5.6c1.5,1.7,2.9,3.2,4.2,4.5s2.4,2.3,3.2,3c0.8,0.7,1.3,1.1,1.3,1.1
	s-1.4-1.9-3.6-4.8c-1.1-1.4-2.4-3.1-3.7-4.9c-0.6-0.8-1.3-1.7-1.9-2.6c-0.2-0.4-0.4-0.9-0.7-1.4c-0.5-1.2-1.2-2.5-1.8-3.9
	c-0.6-1.5-1.2-3-1.7-4.6c-0.2-0.8-0.5-1.6-0.7-2.4s-0.4-1.6-0.5-2.3c-0.1-0.8-0.3-1.5-0.3-2.2s-0.2-1.4-0.2-2s0-1.2,0-1.7
	s0.1-1,0.1-1.3c0.1-0.7,0.1-1.2,0.1-1.2s-0.1,0.4-0.4,1.1c-0.2,0.7-0.5,1.8-0.6,3.1c-0.1,0.7-0.1,1.4-0.1,2.1c0,0.8,0.1,1.5,0.1,2.4
	c0.2,1.6,0.6,3.3,1.1,5c0.4,1.1,0.8,2.3,1.3,3.3c-0.6-0.9-1.2-1.8-1.8-2.8c-1.2-1.9-2.1-3.7-2.9-5.3c-0.4-0.8-0.7-1.5-0.9-2.2
	c-0.3-0.7-0.5-1.3-0.5-1.8c-0.2-1-0.4-1.6-0.4-1.6C244.3,73.8,244.3,74.4,244.2,75.5L244.2,75.5z M270.4,43.5
	c2.2,4.2-0.7,3.9-0.7,3.9c-3.5-4.8-8.4-4.1-8.4-4.1c2.8,1.4-0.4,4-0.4,4c-19.6,5.5-18.6,21.4-18.6,21.4C248,56.9,255,58.4,255,58.4
	c-4.4,9,0.3,16.7,0.3,16.7c1.5-3.1,5.7,0.1,5.7,0.1c-9.2,9.4,6.9,35,6.9,35c-10.4-6.3-38.9-26.3-30.8-55.5
	C245.2,25.5,268.1,39.4,270.4,43.5L270.4,43.5z"/>
<path class="st1" d="M251.1,108c0.3,0.1,0.8,0.1,1.2,0.3c0.4,0.2,0.9,0.4,1.4,0.7c0.5,0.4,1,0.7,1.5,1.1c0.5,0.5,1,0.9,1.5,1.5
	s0.9,1.1,1.4,1.8c0.5,0.6,0.8,1.3,1.2,2c0.8,1.4,1.4,2.8,2,4.2c0.6,1.4,1.1,2.7,1.5,3.8c0.8,2.3,1.3,3.8,1.3,3.8s0-1.6-0.4-4.1
	c-0.2-1.2-0.6-2.6-1-4.1c-0.5-1.5-1.1-3-1.9-4.5c-0.4-0.7-0.8-1.4-1.4-2.1c-0.4-0.7-1-1.3-1.6-1.9c-0.5-0.6-1.2-1-1.8-1.5
	c-0.6-0.4-1.3-0.7-1.8-1c-0.6-0.2-1.2-0.3-1.7-0.4c-0.5-0.2-1-0.1-1.3-0.1c-0.7,0-1.1,0.1-1.1,0.1C250,107.8,250.4,107.9,251.1,108
	L251.1,108z M243.4,104.9c0,0-1.7-4.4-3.7-6.2c0,0,10.1-1.8,21.6,9.8c0,0,12.9,15.8,0.9,31.5c-12.1,15.7-26,10.6-25.1,9.5
	c0,0,32.4-7.3,21.7-25.1c-7.2-12-17.8-2.7-17.9-2c0,0-3.8-3.4,1.6-10.2c0,0-3.4-3.6-5.7-2C236.8,110.2,238.8,105.3,243.4,104.9
	L243.4,104.9z"/>
<path class="st1" d="M254.5,203.1c0,0,0.2-0.3,0.5-1c0.1-0.3,0.4-0.7,0.5-1.2s0.3-1.1,0.4-1.7c0-0.6,0.1-1.3-0.1-2.1
	c-0.2-0.7-0.2-1.5-0.5-2.2s-0.5-1.5-1-2.2c-0.4-0.7-0.8-1.5-1.3-2.1c-1-1.4-2.1-2.6-3.2-3.7c-1.1-1.1-2.2-2-3.2-2.7
	c-2-1.5-3.5-2.2-3.5-2.2s1.2,1.1,2.9,2.9c0.9,0.9,1.8,1.9,2.8,3s2,2.3,2.9,3.6c0.5,0.6,0.9,1.3,1.3,2c0.4,0.7,0.7,1.3,1,2
	s0.4,1.3,0.7,2c0.2,0.6,0.2,1.3,0.3,1.8c0,0.6,0,1.1,0,1.6s-0.2,0.9-0.2,1.2C254.5,202.7,254.5,203.1,254.5,203.1L254.5,203.1z
	 M246.5,213.9c2.4-1.4,0.7-6,0.7-6c-8.5,1.9-9.9-3-9.9-3c0.7,0.2,13.7-5.2,6.1-17c-11.3-17.5-32.1,8.5-32.1,8.5
	c-1.4,0.3,0.2-14.4,19.6-18.4s27.9,14.6,27.9,14.6c5.4,15.4-0.7,23.7-0.7,23.7c-0.7-2.6-3.9-6.1-3.9-6.1
	C251.8,214.2,246.5,213.9,246.5,213.9L246.5,213.9z"/>
<path class="st1" d="M5.4,116.4c0,0,5.2-23.4-4.7-27c0,0,4.8-0.4,7.6,2.1c0,0-4.6-4.7-3.2-9.6C5.2,81.8,28.3,91.4,5.4,116.4
	L5.4,116.4z"/>
<path class="st1" d="M119.7,218.1c0,0-22.9-6.9-27.3,2.7c0,0-0.1-4.8,2.6-7.4c0,0-5,4.2-9.9,2.4C85.2,215.8,96.4,193.4,119.7,218.1
	L119.7,218.1z"/>
<path class="st1" d="M64.9,177c0,0-40.3-16.5-49.9,0.1c0,0,0.7-8.7,6.1-12.9c0,0-9.8,6.8-18.3,2.7C2.9,166.9,27.1,128.3,64.9,177
	L64.9,177z"/>
<path class="st1" d="M81.1,207.6c0,0-21.4-9.4-26.8-0.6c0,0,0.5-4.7,3.4-6.9c0,0-5.4,3.5-9.9,1.2C47.8,201.3,61.4,180.9,81.1,207.6
	L81.1,207.6z"/>
<path class="st1" d="M94.2,210.7c0,0-19.1-13.5-14.4-22.7c0,0-3.8,2.9-4.1,6.5c0,0,0.2-6.4-4-9.1C71.7,185.5,61.2,207.6,94.2,210.7
	L94.2,210.7z"/>
<path class="st1" d="M39.8,55.5c0.1,0.4,0.3,0.8,0.4,1.1c0.1,0.4,0.2,0.8,0.2,1.1c0.1,0.7,0.3,1.3,0.3,1.9c0,0.6,0,1.1,0.1,1.5
	c0,0.8,0,1.3,0,1.3s-0.1-0.5-0.3-1.3c-0.1-0.4-0.2-0.9-0.3-1.4c-0.2-0.5-0.4-1.1-0.6-1.8c-0.2-0.7-0.5-1.3-0.9-2
	c-0.3-0.7-0.7-1.4-1.2-2.2c-0.2-0.4-0.5-0.7-0.7-1.1c-0.3-0.3-0.5-0.7-0.8-1c-0.5-0.7-1.2-1.4-1.8-2c-0.6-0.7-1.3-1.2-2-1.9
	c-0.7-0.5-1.4-1.1-2.1-1.6c-1.4-1-2.8-1.8-4-2.5c-2.4-1.4-4.2-2-4.2-2s1.9,0.2,4.6,1.2c1.3,0.5,2.9,1.2,4.4,2.2
	c0.8,0.5,1.5,1,2.3,1.6c0.7,0.6,1.5,1.2,2.1,1.9c0.7,0.7,1.3,1.4,1.9,2.2c0.3,0.4,0.6,0.8,0.8,1.2s0.4,0.8,0.7,1.2
	C39.2,53.9,39.5,54.7,39.8,55.5L39.8,55.5z M35.8,75.5c0,0.5-0.1,1.2-0.2,1.9c-0.1,0.7-0.2,1.6-0.5,2.5s-0.5,1.8-1,2.8
	c-0.4,1-0.8,2-1.4,3c-1,2.1-2.4,4.1-3.7,6.1c-1.4,2-2.9,3.9-4.4,5.6s-2.9,3.2-4.2,4.5s-2.4,2.3-3.2,3c-0.8,0.7-1.3,1.1-1.3,1.1
	s1.4-1.9,3.6-4.8c1.1-1.4,2.4-3.1,3.7-4.9c0.6-0.8,1.3-1.7,1.9-2.6c0.2-0.4,0.4-0.9,0.7-1.4c0.5-1.2,1.2-2.5,1.8-3.9
	c0.6-1.5,1.2-3,1.7-4.6c0.2-0.8,0.5-1.6,0.7-2.4s0.4-1.6,0.5-2.3c0.1-0.8,0.3-1.5,0.3-2.2s0.2-1.4,0.2-2s0-1.2,0-1.7s-0.1-1-0.1-1.3
	c-0.1-0.7-0.1-1.2-0.1-1.2s0.1,0.4,0.4,1.1c0.2,0.7,0.5,1.8,0.6,3.1c0.1,0.7,0.1,1.4,0.1,2.1c0,0.8-0.1,1.5-0.1,2.4
	c-0.2,1.6-0.6,3.3-1.1,5c-0.4,1.1-0.8,2.3-1.3,3.3c0.6-0.9,1.2-1.8,1.8-2.8c1.2-1.9,2.1-3.7,2.9-5.3c0.4-0.8,0.7-1.5,0.9-2.2
	c0.3-0.7,0.5-1.3,0.5-1.8c0.2-1,0.4-1.6,0.4-1.6C35.7,73.8,35.7,74.4,35.8,75.5L35.8,75.5z M9.6,43.5c-2.2,4.2,0.7,3.9,0.7,3.9
	c3.5-4.8,8.4-4.1,8.4-4.1c-2.8,1.4,0.4,4,0.4,4c19.6,5.5,18.6,21.4,18.6,21.4C32,56.9,25,58.4,25,58.4c4.4,9-0.3,16.7-0.3,16.7
	C23.2,72,19,75.2,19,75.2c9.2,9.4-6.9,35-6.9,35C22.5,104,51,83.9,42.9,54.7S11.9,39.4,9.6,43.5L9.6,43.5z"/>
<path class="st1" d="M28.9,108c-0.3,0.1-0.8,0.1-1.2,0.3c-0.4,0.2-0.9,0.4-1.4,0.7c-0.5,0.4-1,0.7-1.5,1.1c-0.5,0.5-1,0.9-1.5,1.5
	s-0.9,1.1-1.4,1.8c-0.5,0.6-0.8,1.3-1.2,2c-0.8,1.4-1.4,2.8-2,4.2c-0.6,1.4-1.1,2.7-1.5,3.8c-0.8,2.3-1.3,3.8-1.3,3.8s0-1.6,0.4-4.1
	c0.2-1.2,0.6-2.6,1-4.1c0.5-1.5,1.1-3,1.9-4.5c0.4-0.7,0.8-1.4,1.4-2.1c0.4-0.7,1-1.3,1.6-1.9c0.5-0.6,1.2-1,1.8-1.5
	c0.6-0.4,1.3-0.7,1.8-1c0.6-0.2,1.2-0.3,1.7-0.4c0.5-0.2,1-0.1,1.3-0.1c0.7,0,1.1,0.1,1.1,0.1C30,107.8,29.6,107.9,28.9,108
	L28.9,108z M36.6,104.9c0,0,1.7-4.4,3.7-6.2c0,0-10.1-1.8-21.6,9.8c0,0-12.9,15.8-0.9,31.5c12.1,15.7,26,10.6,25.1,9.5
	c0,0-32.4-7.3-21.7-25.1c7.2-12,17.8-2.7,17.9-2c0,0,3.8-3.4-1.6-10.2c0,0,3.4-3.6,5.7-2C43.2,110.2,41.2,105.3,36.6,104.9
	L36.6,104.9z"/>
<path class="st1" d="M25.5,203.1c0,0-0.2-0.3-0.5-1c-0.1-0.3-0.4-0.7-0.5-1.2s-0.3-1.1-0.4-1.7c0-0.6-0.1-1.3,0.1-2.1
	c0.2-0.7,0.2-1.5,0.5-2.2s0.5-1.5,1-2.2c0.4-0.7,0.8-1.5,1.3-2.1c1-1.4,2.1-2.6,3.2-3.7c1.1-1.1,2.2-2,3.2-2.7
	c2-1.5,3.5-2.2,3.5-2.2s-1.2,1.1-2.9,2.9c-0.9,0.9-1.8,1.9-2.8,3s-2,2.3-2.9,3.6c-0.5,0.6-0.9,1.3-1.3,2s-0.7,1.3-1,2
	s-0.4,1.3-0.7,2c-0.2,0.6-0.2,1.3-0.3,1.8c0,0.6,0,1.1,0,1.6s0.2,0.9,0.2,1.2C25.5,202.7,25.5,203.1,25.5,203.1L25.5,203.1z
	 M33.5,213.9c-2.4-1.4-0.7-6-0.7-6c8.5,1.9,9.9-3,9.9-3c-0.7,0.2-13.7-5.2-6.1-17c11.3-17.5,32.1,8.5,32.1,8.5
	c1.4,0.3-0.2-14.4-19.6-18.4s-27.9,14.6-27.9,14.6c-5.4,15.4,0.7,23.7,0.7,23.7c0.7-2.6,3.9-6.1,3.9-6.1
	C28.2,214.2,33.5,213.9,33.5,213.9L33.5,213.9z"/>
<path class="st1" d="M98.4,78.5c-0.2-0.7-0.4,1.1,0.4,2c0.9,0.8,1.9,2.1,2.3,2.8c0.4,0.7,1.2,1.9,1.7,2.4c0,0-0.1,0.5-0.1,0.8
	c-0.1,0.4-0.9,0.1-1.2,0.1c-0.2,0,0.1,0.8,0.3,0.9c0.2,0.1,0.9,0.8,1,0.1c0.1-0.7,0.7-0.5,1.1-0.5s0.8-0.1,1.2-0.6
	c0.4-0.5,1-0.4,1.9-0.3s5.8,0.9,3.4-0.1c-2.5-1-3.6-0.8-4.5-0.7c-0.9,0.1-1.7-0.4-1.8-1c-0.1-0.6-0.7-2.3-2.2-3.1
	C100.6,80.7,98.6,79.2,98.4,78.5L98.4,78.5z"/>
<path class="st1" d="M188.4,54.9c0,0-0.2-0.2-0.4-0.2c-0.5-0.1-0.6,0.4-1.4-0.1c-0.8-0.5-1.6-1.3-2.1-1.6c-0.6-0.3-3.2-1.4-3.7-1.4
	c0,0-0.9,0.1,2,2h0.1l0.3-0.1l-0.1,0.2c1.5,0.9,2,1.3,2.3,1.5s0.7,0.7,0.5,0.8l-1,0.4l0.1,0.3c0.1,0,0.6,0.8,1.6,0.3
	c0,0,0.2-0.3,0.2-0.6c0,0,0.5-0.2,0.8-0.7c0,0,0.5-0.2,1.1-0.1c2,0.2,3.1-0.2,3.4-0.5c0,0-0.9-0.2-1.6-0.4
	C189.9,54.7,188.6,54.8,188.4,54.9L188.4,54.9z"/>
<path class="st1" d="M206.5,129c0,0,0.1-0.1-0.2-0.2c0,0-0.3-0.2-0.6-0.3c-0.3,0-0.9,0.4-1.3-0.1c-0.4-0.5-1.2-1.9-1.3-2.1
	c-0.2-0.3-3.4-3.2-3.9-3.1c0,0,0,1.3,1.1,2.6l0.5,0.3l-0.1,0.3c0.1,0.1,1.9,2.5,2,3s-0.2,0.6-0.4,0.6s-1.5,0-1.2,0.3l0.5,0.7
	c0.1,0.1,0.7,0.1,0.9,0.1c0.3-0.1,0.5-0.5,1-0.5c0.4,0,1.2-0.2,1.6-0.5c0,0,0.9,0,1.1,0.1c0.2,0.1,1.3,0.3,2.4,0.2
	c0,0,0.3,0-0.2-0.3c-0.5-0.4-1-0.9-2-0.9C206.3,129.1,206.3,129,206.5,129L206.5,129z"/>
<path class="st1" d="M101.1,149.5c0,0,0.1-0.1-0.2-0.2c0,0-0.3-0.2-0.6-0.3c-0.3,0-0.9,0.4-1.3-0.1s-1.2-1.9-1.3-2.1
	c-0.2-0.3-3.4-3.2-3.9-3.1c0,0,0,1.3,1.1,2.6l0.5,0.3l-0.1,0.3c0.1,0.1,1.9,2.5,2,3s-0.2,0.6-0.4,0.6c-0.2,0-1.5,0-1.2,0.3l0.5,0.7
	c0.1,0.1,0.7,0.1,0.9,0.1c0.3-0.1,0.5-0.5,1-0.5c0.4,0,1.2-0.2,1.6-0.5c0,0,0.8,0,1.1,0.1c0.2,0.1,1.3,0.3,2.4,0.2
	c0,0,0.3,0-0.2-0.3c-0.5-0.4-1-0.9-2-0.9C100.9,149.6,100.9,149.5,101.1,149.5L101.1,149.5z"/>
<path class="st0" d="M218.8,210.7c-10.4,10.4-22.8,18.6-36.1,24.1c-13.4,5.5-27.9,8.5-42.6,8.5c-14.8,0-29.2-2.9-42.6-8.5
	c-13.4-5.5-25.7-13.7-36.1-24.1l1.2-1.2c10.3,10.3,22.4,18.3,35.6,23.8s27.4,8.3,42,8.3s28.8-2.9,42-8.3
	c13.2-5.5,25.3-13.5,35.6-23.8L218.8,210.7L218.8,210.7z"/>
<path class="st1" d="M46.1,214.4c1.9,0,3.4,1.5,3.4,3.4s-1.5,3.4-3.4,3.4s-3.4-1.5-3.4-3.4C42.7,215.9,44.3,214.4,46.1,214.4
	L46.1,214.4z"/>
<path class="st1" d="M233.9,214.4c1.9,0,3.4,1.5,3.4,3.4s-1.5,3.4-3.4,3.4s-3.4-1.5-3.4-3.4S232,214.4,233.9,214.4L233.9,214.4z"/>
<path class="st0" d="M242.2,234.2c-12.1,12.1-26.1,21.8-41.4,28.9v-1.9c14.8-7,28.4-16.5,40.2-28.2L242.2,234.2L242.2,234.2z
	 M79.1,263.1c-15.2-7.1-29.3-16.8-41.4-28.9l1.2-1.2c11.8,11.8,25.4,21.3,40.2,28.2V263.1L79.1,263.1z"/>
<path class="st0" d="M107.6,150c0,2,0.2,3.7,0.6,5.3c3.7,0.6,8.5,1.4,12.9,0.8c-0.1-0.5-0.7-0.5-1.1-0.5c-1.6-0.1-3.4-0.1-4.7-0.3
	c-1-2-2-4.1-3-6.2C110.4,149,109,149.6,107.6,150z M109.5,153.9c-1.1,0.1-2-2.2-0.8-2.6C110.3,150.8,110.6,153.7,109.5,153.9z
	 M111.9,154.1c-1.1,0.1-2.1-2.5-0.8-2.9C112.8,150.7,113.3,154,111.9,154.1z M174,133.4c0.5-0.5,0.8-0.6-0.1-0.5
	c-8.5,1.3-16.8,3-24.2,5.8c-7.3,2.8-13.6,6.6-18.9,11c0,0.6-0.2,0.9-0.3,1.4c11.9-4.8,20.2-13.3,37.1-13.2c0.5-1,0.9-2,1.5-2.9
	c0.8-0.4,3-0.3,4.2-0.9C173.6,133.9,173.8,133.6,174,133.4z M148.3,135.9c0.6,0,1.1-0.3,1.4-0.2c0-0.5,0.1-0.9,0.1-1.4
	c-0.4,0-1.2,0.2-1.8,0C147.9,134.9,147.7,135.7,148.3,135.9z M171.4,136.2c0.2-0.6,1.1-0.9,1.3-1.5c-1.1,0.3-2.1,0.5-3.4,0.7
	c-0.8,1.6-1.7,3.6-2.6,5.3c-0.2,0.5-0.8,1.3-0.8,1.8c0,0.6,0.6,1.5,0.8,2.2c0.9,3.1,0.9,6.6,0.5,10c0.4,0.2,0.8,0.3,1.2,0.5
	c1.2-4.8,2.2-9.9,2.7-15.2C171.2,138.7,171.1,137.2,171.4,136.2z M172.8,140.2c-0.3,1-0.3,2.2-0.5,3.2c-0.8,4.3-1.9,8.3-3.1,12.1
	c0.3,0.1,0.5,0.2,0.8,0.3c2.3-5.6,4.1-11.8,5.3-18.4C174.7,138.2,173,139.3,172.8,140.2z M138.2,137.4c-1.1,0.6-2.2,1.3-3.3,2
	c-0.1,2.3-0.2,4.5-0.3,6.8c1.2-0.7,2.3-1.6,3.6-2.3C138.1,141.7,138.4,139.4,138.2,137.4z M125.5,165c1.2-0.1,2.4-0.2,3.5-0.4
	c2.1-1.2,5-2.8,8.3-4.5c-3.8,1.2-7.7,2.3-12.2,2.6c-4.9,0.4-10.2-0.1-15-1.4c0.2,0.6,0.4,1.1,0.6,1.6c1.1,0.4,2.3,0.8,3.4,1.1
	C117.7,164.8,121.4,165.2,125.5,165z M148.2,132.3c-0.1,0.5-0.2,1-0.2,1.6c0.6,0.2,1.3-0.1,1.8,0c0.1-0.6,0.3-1.2,0.2-1.7
	C149.5,132.4,148.8,132.3,148.2,132.3z M151.3,135.9c-0.1-0.6-0.3-1-0.5-1.5c-0.3,0-0.4-0.1-0.7-0.1c0.1,0.6-0.1,0.9-0.1,1.4
	C150.4,135.9,150.8,135.9,151.3,135.9z M149.7,138.2c0.7,0.2,1.3-0.4,2-0.5c0-0.6-0.2-0.9-0.3-1.4c-0.6,0-1.1,0-1.5-0.2
	C149.9,136.8,149.7,137.3,149.7,138.2z M150.3,133.2c0,0.3,0,0.6,0,0.7c0.1,0.1,0.4,0.3,0.5,0.1
	C150.5,133.8,150.6,133.3,150.3,133.2z M167.6,132.2c0,0.4-0.1,1,0.1,1.2c0.3,0,0.4-0.2,0.8-0.1C168.5,133,167.9,132.5,167.6,132.2z
	 M130.8,149.1c-0.1,0-0.2-0.1-0.3-0.1c0,0-0.2,0.3,0,0.4C130.6,149.3,130.8,149.3,130.8,149.1z M107.4,149.4
	c1.8-0.9,3.9-1.7,6.6-1.4c0.2,0,0.1,0.3,0.3,0.4c0.2-0.5,0.3-1,0.4-1.5c-1.6,0.1-3.1,0.4-4.6,0.8C109,148,107.6,148.2,107.4,149.4z
	 M132.9,147.2c-0.9,0.1-1.6-0.1-2.2-0.3c0,0.6-0.1,1.1-0.2,1.8c0.2,0,0.4,0.2,0.6,0.2C131.5,148.8,132.8,147.5,132.9,147.2z
	 M125.1,136.1c1.6,0.1,3.1,0.4,4.5,0.7c0.3-1.7,0.7-3.7,0.8-5.3c-1.6,0.6-3.2,1.1-4.7,1.8C125.5,134.3,125.3,135.2,125.1,136.1z
	 M133.1,146.3c-0.7,0.1-1.8-0.1-2.3,0.2C131.2,146.7,133.1,147.3,133.1,146.3z M117.5,137.7c-0.2,0.8-0.4,1.6-0.6,2.4
	c0.7-0.3,1.6-0.5,2.3-0.8c0.1-1,0.8-2.2,0.6-3C119,136.8,118.3,137.3,117.5,137.7z M110.7,142.3c1.9-0.7,3.8-1.5,5.8-2.1
	c0.2-0.7,0.7-1.8,0.5-2.3C114.9,139.4,112.7,140.7,110.7,142.3z M119.5,139.3c0.8-0.1,1.5-0.4,2.4-0.5c0.2-0.8,0.4-1.7,0.6-2.5
	c-0.1-0.1-0.4,0.1-0.4-0.1c0.2,0,0.4,0,0.5-0.1c0-0.5,0.2-1,0.3-1.4c-0.9,0.4-1.8,0.9-2.6,1.4C120.1,137.2,119.8,138.3,119.5,139.3z
	 M123.3,134.4c-0.2,0.6-0.3,1.1-0.4,1.7c0.6,0,1.3,0,1.9,0c0.2-0.8,0.7-2,0.5-2.6C124.6,133.8,124,134.2,123.3,134.4z M131.6,137.9
	c-0.2-0.3-1.2-0.5-1.8-0.6c0.1,0.3-0.1,0.4-0.1,0.6C130.4,137.8,131.2,138.2,131.6,137.9z M165.4,129.9c-0.1,0.6,0.1,0.9,0.1,1.4
	c0.4,0.2,1.1,0.5,1.5,0.2C166.4,131,166,130.3,165.4,129.9z M163.1,131.6c0,0.4,0,0.8,0.1,1.1c0.7,0.3,1.3,0.7,2,0.9
	c0-0.7-0.1-1.2-0.1-1.9C164.5,131.8,163.7,131.8,163.1,131.6z M165.5,133.8c0.6,0.1,1.2-0.1,1.7-0.2c0-0.7-0.1-1.2-0.1-1.7
	c-0.6,0.1-1.2,0-1.7-0.2C165.6,132.3,165.4,133.1,165.5,133.8z M165,129.6c0.1-0.7-2.1-1.2-2-0.1C163.6,129.7,164.4,129.8,165,129.6
	z M163.1,131.2c0.5,0.2,1.4,0.4,2,0.1c0-0.5-0.1-0.9-0.1-1.4c-0.7,0.1-1.4,0.1-2-0.1C163,130.4,163.2,130.7,163.1,131.2z M167.1,130
	c-0.3,0.2-0.8,0-1.1,0.1c0.4,0.3,0.7,0.7,1.1,1C167.1,130.8,167.1,130.4,167.1,130z M174.1,132.5c0-1,0-1.9,0-2.9
	c-1.3-0.2-2.8-0.6-4.1-0.5c0.7,1.1,1.4,2.4,2.1,3.7C172.8,132.7,173.5,132.6,174.1,132.5z M160.8,129.3c0.2,0.5,1.9,0.6,1.9-0.2
	C162.3,129,161.4,129.1,160.8,129.3z M167.4,131.5c0.8,0.7,1.3,2.1,2.9,1.4c-1-1.4-1.8-2.9-3-4.1
	C167.3,129.8,167.4,130.6,167.4,131.5z M148.8,138c-0.3-0.7-0.7-1.3-1.1-1.9c0,0.5-0.1,1-0.3,1.5C147.7,138,148.2,138.2,148.8,138z
	 M168,129c1,1.2,1.9,2.6,2.8,3.9c0.3,0,0.5-0.1,0.8-0.1c-0.7-1.4-1.4-2.6-2.2-3.9C168.9,129,168.3,128.8,168,129z M165.3,128.8
	c-0.1,0.4,0.1,0.4,0.1,0.7c0.4,0.2,1.1,0.4,1.7,0.2c-0.1-0.3,0-0.7-0.1-0.9C166.4,128.8,165.9,128.8,165.3,128.8z M147.6,134.9
	c-0.1-1,0.2-1.3,0.3-2.3c-0.5,0.1-0.9,0.4-1.5,0.6C146.7,133.8,147.1,134.4,147.6,134.9z M144.4,134.1c0.9,1.1,1.9,2.1,2.9,3.1
	c0.5-1.9-0.6-2.8-1.3-3.9C145.5,133.7,144.9,133.8,144.4,134.1z M149.6,136c-0.4,0-0.7,0.2-1.1,0.2c0.2,0.5,0.6,1,0.9,1.5
	C149.5,137.1,149.5,136.6,149.6,136z M149.1,138.5c0-0.5-0.6-0.2-0.9-0.1C148.4,138.9,148.7,138.6,149.1,138.5z M147.2,139.1
	c0.3,0,0.5-0.1,0.7-0.2c-0.1-0.3-0.3-0.5-0.5-0.7C147.3,138.5,147.3,138.9,147.2,139.1z M162.7,129.7c-0.5,0.2-1.3,0.2-1.8,0
	c0,0.5,0,1,0,1.4c0.5,0.3,1.4,0.3,1.9,0C162.7,130.7,162.7,130.2,162.7,129.7z M160.9,131.5c0.5,0.5,1.3,0.7,1.9,0.9
	c0-0.3,0-0.6,0-0.9C162.2,131.7,161.5,131.7,160.9,131.5z M159.3,129.3c0,0.5,0,1.1,0,1.7c0.5,0.2,0.9,0.4,1.4,0.5
	c0-0.6-0.2-1.7-0.1-2.3C160.1,129.3,159.8,129.4,159.3,129.3z M158.7,129.5c-1.2,0.2-2.3,0.4-3.3,0.7c-0.1,2.1-0.3,4.1-0.3,6.2
	c1.2-0.4,2.3-0.7,3.6-1C158.7,133.6,159,131,158.7,129.5z M138.9,136.9c0,1-0.2,1.8-0.1,2.8c0.8,0.2,1.5,0.4,2.3,0.6
	c0.8,0.2,1.6,0.8,2.3,0.7c0.5,0,1.2-0.6,1.7-0.8c0.6-0.3,1.2-0.5,1.8-0.8c-1.2-1.5-2.9-2.6-4.4-3.8c0.8,0.4,1.5,1,2.3,1.5
	c0.8,0.6,1.5,1.2,2.3,1.6c0.1-0.6-0.2-0.6-0.1-1.1c-1.1-1.1-2-2.4-3.2-3.3C142.1,135.2,140.5,136,138.9,136.9z M133.9,146.3
	c-0.1,0-0.3,0-0.5,0c0,0.3-0.2,0.5,0,0.6C133.8,146.9,133.9,146.7,133.9,146.3z M121.7,165.4c0.2,0.7-2,2.3,4.1,1
	c0.1,0,1-0.5,2.4-1.3c-1.6,0.2-3.3,0.3-5,0.3C122.7,165.4,122.2,165.4,121.7,165.4z M151.1,151.1c-8.9,2.7-16.2,7.3-26.3,8.5
	c-5,0.6-10.7,0.1-15.7-1c0.4,0.6,0.4,1.5,0.9,2c4.6,1.3,9.8,2,15.1,1.6c5-0.4,9.7-1.9,13.7-3.3c1-0.3,1.9-0.7,2.9-1
	c5.5-2.7,11.5-5.1,16.3-6c0.6-0.1,2.5,0.4,4.8,1.2c1.3-0.1,2.7-0.1,4.2-0.1c0.1-1.4,0.1-3,0-4.5
	C161.1,148.7,155.9,149.6,151.1,151.1z M171.5,153.1c0.9,0.2,1.9,0.2,2.7,0.4c0.6-1.3,1.2-2.6,1.7-4.1c-1-0.2-1.9-0.4-3-0.6
	C172.5,150.3,171.9,151.6,171.5,153.1z M170.3,156c0.8,0.3,1.5,0.7,2,1c0.5-1.1,1.2-2.1,1.5-3.1c-0.9-0.1-1.7-0.2-2.6-0.3
	C170.9,154.5,170.7,155.2,170.3,156z M177.5,144.8c-1.1-0.2-2.1-0.4-3.2-0.6c-0.3,1.5-0.8,2.8-1.2,4.3c1.1,0.1,2,0.3,3,0.5
	C176.6,147.6,177.2,146.3,177.5,144.8z M166.9,153.4c-1,0.1-1.9,0.1-2.8,0.1c0.9,0.3,1.9,0.7,2.8,1.1
	C166.9,154.2,166.9,153.8,166.9,153.4z M129.2,154.9c-0.7,1-1.6,2.9-2.9,3.2c-1.2,0.3-2.5,0-4,0.2c-0.6-0.3-0.7-1.2-1.1-1.7
	c-4.6,0.3-9-0.2-12.8-0.9c0.1,0.8,0.4,1.5,0.6,2.2c4.8,1.3,10.8,1.8,16,1.1c5.1-0.7,9.7-2.3,13.7-3.9c8.5-3.4,17-6.8,28.2-7.1
	c-0.2-1.6-0.5-3.1-1-4.4C150.1,143.9,141.2,151.1,129.2,154.9z M121.4,155.5c0.2,0.9,0.4,1.8,0.9,2.4c0.7,0,1.3,0,2,0
	c-0.5-0.7-0.8-1.6-1.4-2.3C122.5,155.5,121.8,155.3,121.4,155.5z M117,149.5c-0.1,0.8-0.4,1.4-0.5,2.2c0.6,0.2,1.8,0.2,2.4,0
	c0.1-0.6,0.5-1.4,0.4-2C118.6,150,117.6,149.7,117,149.5z M126.4,157.6c0.6-3.7,1.2-7.5,1.7-11.3c-1.6,0.1-3.4,0.1-5.2,0.1
	c-0.7,2.8-1.3,5.7-1.9,8.5c0.8,0,1.5,0.1,2.3,0.2c0.4,1,0.9,1.8,1.4,2.7C125.4,157.8,126.1,157.9,126.4,157.6z M187.6,123.8
	c-0.4,0.4-0.8,0.8-1.1,1.3c3.2,3.9,6.3,7.9,9.1,12.1c-0.9-2.5-2.4-4.7-3.8-6.8C190.5,128.2,189.2,126,187.6,123.8
	C187.7,123.8,187.7,123.8,187.6,123.8z M174.4,143.7c1.1,0.2,2.1,0.4,3.2,0.6c0.3-1.4,0.6-2.8,0.5-4.5c-0.8-0.2-1.7-0.4-2.6-0.6
	C175.1,140.7,174.8,142.2,174.4,143.7z M175.6,138.8c0.9,0.1,1.7,0.3,2.5,0.5c-0.2-1.5-0.4-2.9-1.2-3.8
	C176,136.2,175.7,137.3,175.6,138.8z M186.4,121.3c1.3-1.4,3-3,4.3-4.3c0.2-0.2,0.5-0.4,0.4-0.6c-2-0.8-4.2-1.5-6.7-1.4
	c-3.9,0.2-6.1,2.6-7.6,5.1c-1.6-4.8-3.3-9.5-5-14.3c-3.3,0-6.3-0.1-9.5-0.2c0.8,1.2,2.5,2.7,2.8,4.4c-0.8-1.9-2.3-3.1-3.7-4.4
	c-3-0.2-6.2-0.1-9.2-0.3c0.7,1.1,2.1,2.5,2.4,3.9c-0.3-0.8-0.8-1.5-1.4-2.2c-0.4-0.5-1.3-1.5-1.9-1.7c-0.3-0.1-0.7,0-1.1,0
	c-1.9-0.1-4.1-0.1-6.2-0.2c0.7,1.3,2.3,2.7,2.7,4.3c-0.5-0.9-1-1.6-1.8-2.3c-0.5-0.6-1.4-1.7-2-1.8c-0.4-0.1-0.8,0-1.2,0
	c-3.4-0.2-7.4-0.2-11-0.3c3.4,3.3,7,7.2,7.3,13.7c0.5,9.1-4,15.6-6.8,21.4c3.8-4.4,7.6-8.7,10.7-13.7c-2.7,5.2-6.7,9.6-10.1,13.9
	c6.4-5.7,12.7-11.6,17.7-18.7c-4.6,7.5-11.3,13.2-17.4,19c7.1-5.2,14.1-10.9,20-17.1c-4.4,5.3-10,9.8-15.1,14.2
	c8.9-5.4,20.4-10.3,34.8-8.9c-4.1-1.5-8.5-2.8-13.8-3.1c3.9-0.1,7,0.6,9.9,1.4c3.5,0.9,6.2,2.2,9.8,2.9c2.3-2.3,4.7-4.4,6.8-6.8
	c-1.4-1.6-3.1-3.2-4.4-4.5c1,0.7,2.5,2.1,3.5,3.2c0.2,0.3,0.9,1.1,1.1,1.1c0.2-0.1,0.6-0.7,0.7-0.8c0.4-0.4,0.6-0.5,0.8-0.8
	c-1.4-1.8-2.7-3.7-4.2-5.3C183.7,117.6,185,119.5,186.4,121.3z M133,130.7c-0.3,2.1-0.7,4.5-0.8,6.3c0.9-2.2,2.6-3.6,2.5-6.8
	C134.1,130.4,133.5,130.5,133,130.7z M121.3,151.9c0.2-0.7,0.3-1.4,0.5-2c-0.6,0.1-1.5,0.1-2-0.2c-0.2,0.6-0.4,1.4-0.6,2.1
	C119.7,152.2,120.7,152.1,121.3,151.9z M189.8,107.5c2-4.1,7.7-6,13.2-3.7c0-0.3-0.3-0.4-0.4-0.5c-0.2-0.2-0.5-0.3-0.7-0.5
	c-13.4-10-27-20.4-40.4-30.1C170.9,84.2,180.3,95.9,189.8,107.5z M183.6,128.2c-0.8,0.9-1.9,1.8-2.3,2.7c4.7,1.5,8.8,3.9,12.7,6
	c-2.4-2.7-5.5-5.9-8.3-8.5c-0.3-0.2-1.1-1.1-1.3-1.1C184.3,127.3,183.7,128.1,183.6,128.2z M129.9,136.8c0.7,0.1,1.3,0.3,1.9,0.5
	c0.2-2.2,0.7-4.5,0.8-6.5c-0.6,0.2-1.3,0.4-1.9,0.5C130.5,133.2,130.2,135,129.9,136.8z M184.5,127.3c3.1,2.4,6,5.2,8.6,8
	c0.8,1,1.6,2.1,2.6,2.8c-2.9-4.5-6-8.8-9.5-12.8C185.7,126,185,126.5,184.5,127.3z M193.5,117.4c-1.2,1.3-2.8,3.1-4.3,4.6
	c-0.3,0.3-1.4,1.4-1.4,1.6c0.1,0.3,0.8,1,1.1,1.4c2.4,3.5,4.5,7.1,6.6,10.6C195.6,128.8,195.6,122.1,193.5,117.4z M120.3,147.5
	c0.5,0.3,1.4,0.3,2,0.1c0.1-0.4,0.2-0.7,0.2-1.1C121.5,146.5,120,146.2,120.3,147.5z M117.1,149.2c0.6,0.4,1.5,0.4,2.3,0.2
	c0.2-0.5,0.3-1.1,0.4-1.6c-0.8,0.2-1.7,0.1-2.4-0.2C117.4,148.3,117.2,148.6,117.1,149.2z M117.3,147.2c0-0.2,0.1-0.3,0.1-0.5
	c-0.9,0.1-1.8,0-2.4,0.3C115.4,147.5,116.7,147.5,117.3,147.2z M130.3,151.7c-0.3,1-0.9,2-1,2.9c11.7-4.2,20.8-11.1,36.3-11.5
	c0.1-0.2-0.3-0.5-0.2-0.9c0.7-1.3,1.4-2.6,2-3.9C150.6,138.3,142.3,146.8,130.3,151.7z M117.8,146.6c-0.1,0.2-0.2,0.4-0.2,0.7
	c0.5,0.3,1.7,0.4,2.3,0.1c0.1-0.2,0.1-0.5,0.2-0.8C119.3,146.5,118.6,146.7,117.8,146.6z M114.6,149c0.5,0.4,1.6,0.4,2.2,0.2
	c0.2-0.5,0.3-1,0.4-1.5c-0.8,0.2-1.7,0.1-2.2-0.2C114.8,148,114.6,148.5,114.6,149z M119.7,149.4c0.5,0.3,1.4,0.3,2,0.2
	c0.2-0.5,0.3-1.1,0.4-1.6c-0.6,0.1-1.5,0-2-0.2C120.1,148.4,119.9,148.8,119.7,149.4z M111.1,151.8c-0.2,0.8,0,1.8,0.9,1.8
	C112.7,153,111.9,151.2,111.1,151.8z M108.9,151.7c-0.7,0.1-0.2,1.7,0.5,1.7C110.1,153,109.5,151.6,108.9,151.7z M111.9,148.6
	c0.2,0,0.5,0,0.7,0c1,2,2,4.1,3,6.2c0.5,0,1.1,0.2,1.5,0c-1.2-2-2.2-4.2-3.3-6.3C113.2,148.5,112.3,148.4,111.9,148.6z M118.3,154.7
	c0.2-0.9,0.4-1.8,0.6-2.6c-0.9,0.2-1.7,0.1-2.5-0.1c0,0.9,0.8,1.7,1.1,2.6C117.8,154.6,118,154.7,118.3,154.7z M122.9,136.2
	c-0.2,0.8-0.4,1.6-0.5,2.4c0.7,0,1.2-0.3,2-0.3c0.1-0.7,0.3-1.3,0.4-2C124.1,136.3,123.6,136.1,122.9,136.2z M128.2,155.5
	c-0.5,0-0.8-0.1-1.1-0.2c-0.1,0.6-0.2,1.2-0.3,1.9C127.3,156.9,127.9,156.2,128.2,155.5z M115,149.6c0.3,0.7,0.5,1.5,1.1,2
	c0.3-0.5,0.4-1.3,0.6-2C116.3,149.7,115.5,149.7,115,149.6z M121.2,152.3c-0.6,0.1-1.6,0.1-2-0.2c-0.2,0.8-0.5,1.8-0.5,2.6
	c0.7,0,1.3,0.2,2,0.2C120.8,154,121.1,153.2,121.2,152.3z M129.7,151.1c-0.6,0.3-1.5,0-2-0.2c0,0.6-0.1,1.1-0.3,1.7
	c0.5,0.2,1.3,0.4,2,0.2C129.6,152.3,129.9,151.7,129.7,151.1z M129.3,153c-0.6,0.3-1.5-0.1-1.9-0.1c0,0.8-0.2,1.3-0.2,2.1
	c0.4,0.1,0.7,0.2,1.2,0.2C128.7,154.5,129.3,153.7,129.3,153z M125,136.4c0,0.6-0.2,1.2-0.4,1.8c1.4-0.2,3.1-0.2,4.8-0.2
	c0-0.4,0.2-0.5,0.1-0.8C128,136.9,126.6,136.6,125,136.4z M129,146.4c0.4,0.2,1.3,0.3,1.5-0.1C130,146.4,129.4,146.2,129,146.4z
	 M130.1,149c-0.6,0.1-1.5,0.1-2-0.2c-0.1,0.6-0.1,1.2-0.3,1.8c0.5,0.3,1.4,0.4,2.1,0.2C129.9,150.2,130.1,149.7,130.1,149z
	 M130.4,146.8c-0.7,0.3-1.4-0.1-2-0.2c0,0.7-0.2,1.2-0.2,1.9c0.4,0.3,1.5,0.3,2,0.1C130.3,148,130.4,147.4,130.4,146.8z M136,101.2
	c-0.3,0-0.4-0.2-0.6-0.2c-0.1,0.7-0.2,1.4-0.4,2c0.2,0.2,0.5,0.2,0.8,0.3C136,102.7,136,101.9,136,101.2z M192.5,115
	c-1.2-2.4-2.8-4.8-4.7-6.8c-0.7-0.9-1.6-2.1-2.9-2c2.2,3.3,4.5,6.5,6.8,9.8C191.9,115.6,192.3,115.4,192.5,115z M133,104.5
	c2.3,0.1,5.3,0.1,7.4,0.2c-0.5-1-2.2-0.7-3.8-0.8c-1.9-0.1-4.1-0.1-6-0.1C130.9,104.6,132,104.3,133,104.5z M132,103.2
	c0-0.2,0.1-0.3,0.1-0.5c-0.5,0.1-1,0.1-1.4-0.2c0,0.2-0.1,0.4-0.2,0.6C130.9,103.3,131.5,103.2,132,103.2z M131,100.2
	c-0.6,0.2-1.3,0.1-1.8-0.2c-0.1,0.7-0.3,1.3-0.5,2c0.3,0.4,1.3,0.4,1.8,0.2C130.7,101.5,130.8,100.8,131,100.2z M134.7,103.3
	c0.1-0.9,0.4-2.3,0.5-3.5c-0.8,0.1-1.4,0.5-2.2,0.6c-0.2,1-0.4,1.9-0.6,2.8C133.2,103.2,133.8,103.4,134.7,103.3z M179.7,79.2
	c-0.9-0.3-2.2-0.2-3.4-0.3c-1.2-0.1-2.7-0.3-3.5-0.2c0.9,0.8,1.6,1.8,2.2,2.8c0.6,1,0.9,1.3,1.8,2c2.9,2.1,5.7,4.3,8.5,6.3
	c0.2,0.1,0.3,0.4,0.6,0.3c-0.7-3.3-2.2-6.4-4.1-8.7C181.3,80.7,180.3,79.4,179.7,79.2z M172,78.5c-0.6,0-1.4-0.3-2-0.1
	c1.8,1.2,3.5,2.9,5.3,3.9C174.4,80.8,173.3,79.6,172,78.5z M139.5,62.1c-0.3,0-0.8-0.1-1.1,0.1c0,1.7-0.3,3.6-0.2,5.1
	C139.1,66,139.8,64.5,139.5,62.1z M136.3,62.3c0.5,0.4,0.9,0.9,1.4,1.3c0-0.5,0.1-0.9,0.1-1.4C137.3,62.2,136.6,62.1,136.3,62.3z
	 M173.9,57.9c-0.7-1.2-1.6-2.5-2.6-3.4c-0.7-0.6-2.1-0.5-3.5-0.6c-1.3-0.1-2.6-0.1-3.8-0.2c0.7,1.1,2.1,2.5,2.4,3.9
	c-0.8-1.6-2-2.9-3.3-4c-2.4-0.2-4.8-0.3-7.1-0.5c0.8,1.2,2,2.4,2.3,3.8c-0.3-0.7-0.9-1.3-1.4-2c-0.4-0.5-1-1.5-1.7-1.7
	c-0.3-0.2-0.7-0.1-1.1-0.1c-1.6-0.1-3.6-0.3-5.4-0.4c0.9,1.3,2.6,2.9,3,4.7c0-0.1-0.1-0.1-0.1-0.2c-0.9-1.9-2.4-3.3-3.8-4.5
	c-2.3-0.1-4.4-0.3-6.7-0.4c0.9,1,1.5,2.7,1.4,4.7c-0.4,5.6-3.6,10.3-5.9,13.9c2.3-1.3,4.5-3.2,6.1-4.9c-1.2,1.8-3.2,3.3-4.7,4.6
	c3.7-1.8,7.2-4.2,9.7-6.9c-2.3,3.1-5.6,5.2-9,7.1c4.2-1.2,8-2.7,11-5.2c-2.2,2.4-5.5,3.7-8.8,5c7-1.4,16.1-2.9,23.6-1.3
	c-3-1.1-6.2-2-9.9-2.5c5.2,0.3,9.5,1.8,13.5,3.5s8.3,2.7,12.5,4.5c-1.5-2.3-4-4.7-6.1-6.5c2.4,1.6,4.4,3.9,6.2,5.8
	c-2.4-4.3-5.6-8.2-9.1-11.1c3.9,2.6,6.9,6.6,9.4,10.3c-1.5-4.8-3.8-9.1-6.7-12.2c3.7,3.4,6.2,8.1,7.7,13.7c0.6-0.8,0.8-2,0.9-3.1
	c0.4-7.2-2.5-13-5.3-17.2c-2-0.2-4-0.3-6-0.4C172.2,55.2,173.6,56.5,173.9,57.9z M140.3,63.2c0-0.4,0.2-0.6,0.3-0.9
	c-0.1,0-0.3,0-0.4,0C140.3,62.6,140.1,63,140.3,63.2z M130.3,102.5c-0.6,0.2-1.2,0-1.7-0.2c0,0.3-0.1,0.5-0.2,0.9c0.5,0,1.1,0,1.7,0
	C130.2,103,130.3,102.8,130.3,102.5z M156,73c0.4-0.5,1.9-0.6,3.2-0.5c0-0.5,0-1-0.1-1.3C157.4,71.1,155.6,71,156,73z M126.7,103
	c0.5,0.1,1.1-0.1,1.5,0.1c0.1-0.2,0.1-0.6,0.2-0.8c-0.6,0.2-1,0.1-1.6,0C126.8,102.7,126.6,102.8,126.7,103z M133.1,70.8
	c0.5,0.6,1,1.1,1.4,1.7c0.4-0.6,0.9-1,1.3-1.6C134.9,70.8,133.9,71,133.1,70.8z M156,73.9c0,0.9,0,1.8,0,2.7
	c1.1,0.1,2.2,0.2,3.3,0.3c0-1.4-0.1-2.6-0.1-3.9C157.8,73,156.3,72.9,156,73.9z M136,99.5c-0.5,0.1-0.4,0.7-0.5,1.2
	c0.1,0.1,0.2,0.2,0.5,0.2C136,100.5,136.3,99.7,136,99.5z M137.7,68.1c-1.9-0.2-3.7,0.4-3,2.2c0.4,0,0.1-0.7,0.5-0.6
	c0.1,0.1,0.1,0.1,0.2,0.1c0,0.2-0.2,0.4-0.1,0.5c0.3,0,0.6,0,0.9,0c0.1-0.1,0.1-0.5,0.2-0.6c0.1,0,0.1,0.1,0.3,0.1
	C137,69.1,137.5,68.7,137.7,68.1z M126.9,102c0.4,0.3,1,0.2,1.5,0c0.1-0.7,0.5-1.4,0.4-2c-0.4,0.3-1.1,0.1-1.4-0.1
	C127.3,100.6,127,101.2,126.9,102z M127.4,99.7c0.4,0.3,1.1,0.2,1.5,0c0.1-0.7,0.3-1.3,0.5-1.9c-0.5,0.1-1,0-1.4-0.2
	C127.9,98.3,127.7,98.9,127.4,99.7z M128.1,97.2c0.3,0.4,1,0.4,1.4,0.1c0.2-0.7,0.6-1.6,0.5-2.2c-0.5,0.3-1-0.1-1.3-0.2
	C128.6,95.7,128.3,96.5,128.1,97.2z M122.5,95c4.3-1.7,8.7-3.4,14.1-4.1c2.5-6-0.4-13.1-3.6-16.1c1.1,0,2,0.1,2.9,0.2
	c-0.4-0.9-1-1.6-1.7-2.3c-0.5-0.6-1.4-1.7-2.1-1.9c-0.7-0.2-1.7,0-2.5,0c-2.4,0-4.5-0.1-6.8-0.1c1.1,1.3,2.8,2.9,3.4,4.7
	c-0.6-1-1.1-1.8-2-2.6c-0.6-0.7-1.8-1.8-2.4-2c-0.3-0.1-0.8,0-1.1,0c-2.4-0.2-5.4-0.1-7.6-0.2c2.4,2.9,5,6.8,5.2,12.2
	c0.2,5.5-1.7,9.9-3.2,13.7c1.7-1.6,3.4-3.7,4.7-5.6c-1.3,2.7-3.5,4.8-5.2,6.8c4.3-2.9,8.3-6.3,11-10.8c-2.2,4.8-6.1,7.9-10,11
	c5-1.9,9.6-4.8,12.8-8.3C126.8,91.8,124.7,93.5,122.5,95z M162.4,72c0,0.3-0.2,0.7,0.2,0.8C162.6,72.5,162.6,72.1,162.4,72z
	 M114,110.3c-0.9,1-2.4,1.9-3.3,2.8c1.3-0.5,2.8-0.9,3.8-1.7C114.4,111,114.2,110.6,114,110.3z M110,112.8c1.4-0.9,2.7-1.9,3.9-3
	c-0.3-0.3-0.5-0.8-0.8-1.1C112.3,110.3,110.9,111.6,110,112.8z M133.8,70.2c-0.3-2.4,1.5-2.9,3.7-2.8c0.1-1.2,0.1-2.3,0.2-3.4
	c-0.8-0.4-1.1-1.5-2.1-1.7c-0.8-0.1-2,0.3-3,0.5c-1.1,0.2-2.2,0.4-3.1,0.5c0.6,1,1.7,1.9,2,2.9c-0.3-0.5-0.6-0.9-1.1-1.4
	c-0.4-0.4-0.9-1.2-1.4-1.3c-0.8-0.1-1.8,0.4-2.7,0.6c-1,0.2-1.9,0.4-2.8,0.6c0.2,0.6,1.2,1.4,1.3,2.1c0-0.1-0.1-0.1-0.1-0.2
	c-0.5-0.7-0.9-1.4-1.7-1.9c-1.4,0.4-2.7,0.8-4.1,1.2c0.7-1,1.3-2.1,1.8-3.3c-0.4-0.2-0.7-0.7-1.2-0.8c-1.8-0.4-4.6,0.2-6.6-0.1
	c1.7,1.7,2.7,4.7,2.7,8.3C121.8,70,127.7,70.2,133.8,70.2z M162.2,49.9c-0.9-1.1-5.6-0.8-4.8,1.4c0.5-0.5,2.4-0.7,3.8-0.5
	c0.6,0.1,1.1,0.5,1.3,0.5C162.5,50.8,162.5,50.3,162.2,49.9z M116.5,120.3c-0.4,8.5-4.1,15.2-6.9,20.9c3.8-4.6,7.6-9.3,10.7-14.7
	c-2.6,5.6-6.7,10.4-10.1,15c6.5-6.1,12.7-12.6,17.7-19.9c-4.7,7.8-11.2,14.1-17.3,20.2c7.2-5.7,14.1-11.9,20-18.5
	c-4.3,5.7-10,10.5-15.1,15.3c5.9-3.8,12.3-7.1,20.3-8.9c0.4-1.3,0.9-2.5,1.1-4c-0.2-0.1-0.5,0.1-0.5-0.1c0.1,0,0.3,0,0.5,0
	c0.3-1.5,0.6-2.9,0.7-4.5c0.3-8.4-4.1-13-8.3-16.7c0.4,0,0.7,0,1.1,0c-0.6-1-2.4-0.7-4.1-0.8c-1.4-0.1-2.7,0-3.9-0.1
	c0.8,1.2,2.3,2.8,2.7,4.5c-0.5-1-0.9-1.7-1.8-2.5c-0.6-0.8-1.5-1.8-2.1-2c-0.6-0.1-1.5,0-2.1,0c-3.1-0.1-6.7-0.2-10-0.3
	C113.1,107.2,116.9,112.2,116.5,120.3z M111.6,102.4c4.8,0.2,9.7,0.3,14.6,0.5c0.7-3.3,1.9-6.7,2.5-10c-0.9,0.4-1.9,0.6-2.7,1.1
	c0.7,0.8,1.4,1.8,1.7,2.6c-0.6-0.9-1.1-1.9-2-2.5c-1.7,0.7-3.4,1.4-5,2.2c0.2,0.2,0.5,0.6,0.4,0.8c-0.2-0.2-0.3-0.5-0.5-0.9
	c-1.2,0.6-2.5,1.1-3.7,1.7c-1.2,0.6-2.4,1.4-3.7,1.7c-0.1-0.1-0.1-0.2-0.2-0.2c1-2.5,2.4-4.8,3.2-7.6c-2.2-0.3-4.6-0.3-6.9-0.4
	C111.3,93.5,112.2,98,111.6,102.4z M105.7,143.4c1.8-1.8,3.4-4.4,4.4-7.1c-0.5,2.7-2.1,4.8-3.2,6.7c0.5-0.7,1.8-1.4,2.4-2.3
	c0.4-0.6,0.6-1.3,1-2c1.7-3.3,3.2-6.5,4.4-10.4c0.3-1,1.3-4,1.1-5c-0.1-0.3-0.8-1-1.1-1.4c-0.4-0.5-0.9-0.8-1.3-1.2
	c-0.6-0.6-1.9-2-2.8-2.2c-0.4,0-0.8,0.1-1.2,0.1c-1.8,0.1-3.7,0.2-5.4,0.2c0.3,0.8,1,1.3,1.4,2.1
	C108.6,126.6,107.5,137.1,105.7,143.4z M116,118.3c-1.4,0-2.8,0.1-4.3,0.1c1.3,1.4,2.9,3,4.1,4.7C115.9,121.6,116.2,119.9,116,118.3
	z M203.9,104.6c-0.7,0.7-1.5,1.4-2.2,2.1c-9.2,9.2-18.5,18.3-27.8,27.6c-0.6,0.7-1.9,1.7-2.1,2.2c-0.2,0.5-0.1,1.3-0.2,2
	c-0.4,4.6-1.1,8.7-1.8,12.8c0,0-0.3,0.8,0,0.4c0.9-3.8,2.1-7.3,2.4-11.6c10.7-11.6,21.3-23.4,31.9-34.9c0.8-0.8,1.7-1.6,2-2.6
	C205.2,103,204.6,103.8,203.9,104.6z M113.1,108.5c-0.7-0.9-1.3-1.8-2-2.6c-0.7,2.7-1.4,5.1-2.4,7.3
	C110.4,111.9,111.9,110.4,113.1,108.5z M114.7,111.9c-0.5,0.4-1.3,0.6-1.8,1c0.7-0.2,1.3-0.4,2-0.5
	C114.9,112.2,114.9,112,114.7,111.9z M161.4,49c-0.2-0.2-0.3-0.5-0.5-0.7c0.1,0.3,0,0.5-0.1,0.8C161,49,161.3,49.2,161.4,49z
	 M160.3,49.1c0.3-3.3,0.4-7.8,0.2-11.1c-0.1-0.1-0.1-0.1-0.2-0.1c0,0,0,0.1,0,0.2c-0.2,2.8-0.3,6.7-0.5,9.8
	C159.8,48.7,159.5,49.3,160.3,49.1z M161.1,44.5c0.9-0.5,1.7-0.8,2.9-0.8c4.5,0.1,6.8,6.3,12.1,3.6c-7.9,0.7-5.2-9.8-13.6-8.6
	c-0.5,0-0.9,0.1-1.4,0.2C161.2,40.8,160.9,42.7,161.1,44.5z M163.8,53.1c-0.2-0.5-0.5-1-0.8-1.4c-0.1,0.5,0.1,0.8,0.1,1.3
	C163.4,53,163.5,53.2,163.8,53.1z M126.1,58.6c-0.8,2.2-2.7,3.7-3.9,5.2c3.3-2,6.3-4.4,8.4-7.7c-1.7,3.5-4.6,5.8-7.7,7.9
	c4-1.1,7.6-3.2,10.1-5.6c-2,2.5-4.8,4.1-7.9,5.5c5-1,9.7-2.2,15.7-2.2c0.2-0.4,0.4-0.9,0.5-1.4c-1.1-0.2-2.2-0.3-3.2-0.5
	c1.1,0,2.1,0.2,3.2,0.3c1-3.1-0.1-6.8-1.7-8.3c5.8,0.4,11.5,0.7,17.3,1.1c-0.2-2.2,0.1-3.8,2.3-3.6c0.1-1,0.1-1.9,0.2-2.8
	c-0.3-0.6-1-0.5-1.6-0.5c-1.5-0.1-3.5-0.3-4.9-0.4c0.9,1.3,2.3,2.6,3.1,4.3c-1.2-1.7-2.5-3.1-4-4.4c-2.3-0.1-4.6-0.3-6.8-0.5
	c1.2,1.4,2.4,2.7,3.3,4.4c-0.6-0.8-1.2-1.6-2-2.4c-0.5-0.6-1.5-1.9-2.3-2.1c-0.3-0.1-0.6,0-0.9,0c-1.9-0.1-4-0.4-6.1-0.5
	c1,1.4,2.4,2.7,3,4.3c-0.5-0.8-1-1.6-1.7-2.4c-0.5-0.6-1.5-1.8-2.2-2c-0.2-0.1-0.6,0-0.8,0c-1.8-0.2-3.8-0.3-5.8-0.5
	c1.4,1.5,3.1,3.1,3.8,5c0-0.1-0.1-0.1-0.1-0.2c-1.2-1.9-2.8-3.5-4.5-4.6c-2.4-0.1-4.6-0.3-6.8-0.5c4.6,5,1.2,15.8-1.1,20.7
	C122.9,62.5,124.8,60.9,126.1,58.6z M157.4,52.6c1.6,0.2,3.4,0.2,5.1,0.4c0.1-0.9-0.4-1.3-0.9-1.7C159.9,51.4,157.4,50.8,157.4,52.6
	z M141.6,42.4c0.3-2-4.6-2-4.3,0C138.3,41.9,140.7,41.9,141.6,42.4z M145.1,33c2,0.2,3.4,2.2,5.7,2.5c1.8,0.2,3.1-0.2,4.7-0.7
	c-3.7,0.3-5-1.3-6.4-3.2c-1.7-2.2-4.2-3.4-8.3-2.8c-0.1,1.7-0.2,3.7-0.1,5.3C142,33.5,143.4,32.8,145.1,33z M137.3,43.7
	c1.4,0.2,2.8,0.3,4.3,0.3C142,42,137.3,42.2,137.3,43.7z M139.7,40.5c0.4-0.3,0.3-0.9,0.3-1.3c0.2-3.7,0.1-7.5,0.2-11.1
	c-0.1-0.1-0.1-0.2-0.2-0.2c-0.1,2.1-0.2,4.3-0.3,6.5c0,1.6-0.1,3.2-0.2,4.7C139.5,39.6,139.3,40.4,139.7,40.5z M130.2,94.8
	c0.2-0.7,0.4-1.4,0.5-2.2c-0.6,0-0.9,0.3-1.4,0.3c-0.1,0.6-0.3,1.1-0.4,1.7C129.2,94.8,129.7,95,130.2,94.8z M183.6,100.7
	c0.1,0.3,0.1,0.7,0.2,0.9c0-0.2,0.2-0.3,0.2-0.5C183.8,101,183.8,100.8,183.6,100.7z M182,101.7c-0.5-0.7-1.2-1.6-1.8-2
	C180.8,100.3,181,101.3,182,101.7z M180.7,97.2c0.9,1.3,1.6,2.8,2.3,4.1C183.1,99.1,181.5,98.3,180.7,97.2z M162,71.4
	c-0.3-0.2-0.8-0.2-1.3-0.2c0.2,0.7,0.9,0.9,1.4,1.2C162.1,72,162,71.8,162,71.4z M132.3,102.2c0.1-0.5,0.4-1.2,0.3-1.7
	c-0.4,0.2-0.7,0.4-1.2,0.4c0-0.2-0.2-0.2-0.2-0.3c0.1-0.2,0.4-0.4,0.1-0.5c-0.2,0.7-0.3,1.3-0.4,1.9
	C131.1,102.3,131.8,102.4,132.3,102.2z M175.4,90.5c-2.9-3.6-5.8-7.1-8.6-10.6c-0.6-0.7-1.2-1.5-1.9-2c3.1,4.7,6.7,9.5,10.1,14.2
	c1.1,1.6,2.1,3.3,3.3,4.8c1.4,1.7,3.3,3,4.4,4.9c-1.3-2.4-2.3-4.9-3.8-7.1C177.8,93.2,176.5,91.9,175.4,90.5z M162.7,95.9
	c0.2,0,0.3,0.1,0.6,0.2C163.3,95.8,162.8,95.8,162.7,95.9z M162.2,105.3c0.5-0.1,1.3,0.1,1.7-0.1c-0.2-0.1-0.1-0.4-0.1-0.5
	c-0.7,0-1.2-0.1-1.7-0.1C162.1,104.8,162.1,105,162.2,105.3z M156.7,81.2c-0.3-0.9-1-1.6-1.6-2.3c-0.5-0.6-1.2-1.8-2-2
	c-0.6-0.3-1.5-0.1-2.3-0.2c-2.3-0.2-4.5-0.5-6.8-0.6c0.8,1.2,2.3,2.6,2.7,4.2c-0.6-1.1-2.7-4-3.9-4.2c-0.6-0.2-1.5-0.1-2.2-0.2
	c-2.2-0.2-4.2-0.4-6.4-0.6c1.8,2.5,3.7,5.3,3.9,9.5c0.3,5.6-2.7,10-4.6,13.4c1.9-1.4,3.8-3.1,5.3-4.7c-1.5,2.2-4,4-5.9,5.6
	c4.6-2.2,8.9-5.1,12-8.6c-2.7,4-6.8,6.5-11.1,8.9c5.3-1.5,10.1-3.4,13.7-6.5c-1.6,2-3.9,3.1-6.2,4.4c4.8-1.3,10.6-2.8,16.9-2.5
	c3.5,0.2,6.7,1,9.6,1.6c-3.1-1.7-6.3-3.3-10.1-4.4c4.1,0.8,7.2,2.5,10.4,4.1c-2.1-6.2-4.4-12.2-6.5-18.4c-2.5-0.2-5-0.4-7.5-0.7
	C155,78.3,156.3,79.6,156.7,81.2z M160.3,102.1c0,1,0,2,0,2.9c0.4,0.2,0.9,0.1,1.3,0.2C161.8,103.8,161.7,102.1,160.3,102.1z
	 M161.5,77.1c-0.1-0.3-0.2-0.6-0.3-0.9c-0.4-1.2-0.1-0.3-0.2,0.9C161.1,77.1,161.3,77.1,161.5,77.1z M164.8,105.3
	c-0.1-0.3-0.3-0.6-0.8-0.6c0,0.2,0.2,0.3,0,0.6C164.3,105.3,164.5,105.3,164.8,105.3z M117,82.1c0.2-0.1,0.6-0.1,0.7-0.3
	C117.6,81.7,117,82,117,82.1z M117.4,80.3c-0.8,0.8-1.7,1.3-2.5,2.1c1-0.3,1.8-0.8,2.7-1.1C117.6,80.9,117.7,80.4,117.4,80.3z
	 M141.4,70.9c-2.1,0.3-4.5,1.2-6.7,1.7c0.3,0.6,1,1.5,1.4,2.3c6.6,0.6,12.7,1.2,19.3,1.7c0.2-1.9-0.4-4.6,0.8-5.5
	c-1.5,0-2.9,0-4.3-0.1c1,1.3,2.7,2.9,3.2,4.6c-0.5-1-1-1.8-1.8-2.6c-0.5-0.5-1.6-1.8-2.4-2c-1.3-0.3-3,0.1-4.4,0
	c-0.9-0.1-1.9-0.1-3-0.1c1,1.3,2.7,2.9,3.2,4.7c-0.5-1.1-1.1-1.8-1.9-2.7C143.9,72,143.1,70.7,141.4,70.9z M117.1,78.5
	c-0.9,1.3-2.1,2.7-3,3.7c1.1-0.9,2.4-1.6,3.3-2.6C117.2,79.3,117.2,78.9,117.1,78.5z M159.5,76.9c0.3,0.2,0.9,0,1.1,0.2
	c0-1.6,0-3.1-0.6-4.1c-0.1,0-0.3,0-0.6,0C159.5,74.3,159.5,75.5,159.5,76.9z M115.3,74.5c-0.5,2.9-1.5,5.7-2.3,8.1
	c1.5-1.3,2.9-2.7,4-4.4C116.5,76.8,116,75.6,115.3,74.5z M160,69.3c-0.1-0.1-0.4-0.1-0.6-0.1c0,0.5,0,1,0,1.5c0.2-0.1,0.2,0,0.5,0
	C160,70.3,160,69.8,160,69.3z M159.7,72.5c0.2-0.2-0.1-0.7-0.2-0.9C159.6,71.9,159.3,72.6,159.7,72.5z M159.1,69.1
	c-0.1,0-0.3,0-0.4,0c-0.1,0.5-0.1,1,0,1.6c0.1,0,0.3,0,0.5,0C159.1,70.2,159.3,69.5,159.1,69.1z M149.1,70.4c2.3,0,4.4,0.1,6.7,0.1
	c-0.3-0.5-0.5-0.9-0.8-1.4c-3.7,0.2-7.1,0.7-10.4,1.3c1.5,0,2.8,0.1,4.3,0.1c0.1-0.2-0.7-0.4-0.5-0.6
	C148.6,70.1,148.9,70.2,149.1,70.4z M176.6,119c0.7-0.7,1.1-1.4,1.7-2c2.8-2.8,8.3-3.2,12.5-1.2c0.1-0.2-0.1-0.5-0.2-0.6
	c-0.1-0.2-0.4-0.4-0.5-0.6c-9.9-14.1-19.8-28.3-29.8-42.2C165.8,88,171.4,103.4,176.6,119z M134.1,94.4c0.1-0.3,0.1-0.7,0.2-1
	c-0.7,0-1.1-0.2-1.4-0.5C133.1,93.6,133.7,93.8,134.1,94.4z M132.6,95c0.3,0.3,1.2,0.2,1.4-0.2c-0.3-0.6-0.8-0.9-1.2-1.3
	C132.7,94.1,132.5,94.4,132.6,95z M134.2,95c0,0.6-0.4,1.3-0.3,1.9c0.3-0.5,0.6-0.9,0.8-1.4C134.4,95.4,134.4,95.1,134.2,95z
	 M135.9,92.9c-0.5,0-0.7-0.2-1.2-0.1c-0.1,0.8-0.8,2,0.1,2.4C135.2,94.5,135.6,93.7,135.9,92.9z M131.9,97.4c0.3,0.4,1,0.5,1.4,0.2
	c0.2-0.7,0.3-1.5,0.5-2.2c-0.5,0.2-1.1,0.1-1.4-0.2C132.2,96,132.1,96.7,131.9,97.4z M133.3,92.8c0.2,0.1,0.9,0.4,1.1,0
	C133.9,92.9,133.6,92.6,133.3,92.8z M129.9,97.4c0.5,0.3,1.2,0.4,1.7,0.1c0.2-0.7,0.3-1.5,0.5-2.2c-0.7,0.2-1.4,0-1.7-0.3
	C130.3,95.8,130,96.5,129.9,97.4z M129.3,99.7c0.5,0.3,1.1,0.4,1.7,0.2c0.2-0.6,0.3-1.3,0.5-2c-0.5,0.2-1.2,0-1.7-0.2
	C129.7,98.4,129.4,99,129.3,99.7z M130.4,94.7c0.3,0.2,1.1,0.5,1.7,0.2c0.1-0.6,0.3-1.1,0.4-1.7c-0.4-0.2-0.7-0.6-1.6-0.5
	C130.7,93.3,130.6,94,130.4,94.7z M131.5,100c0.6-0.6,1.2-1.4,1.4-2c-0.3,0.2-0.9,0-1.1-0.2C131.8,98.5,131.1,99.5,131.5,100z
	 M155,104.9c1.6,0.1,3.3,0.2,5,0.2c-0.1-1,0-2.1-0.1-3C157.1,102.1,154.2,101.5,155,104.9z M161.6,102.1c-0.1-0.8-0.6-1.3-1.4-1.4
	c0,0.3,0,0.6,0,0.9C160.9,101.5,161.4,102.3,161.6,102.1z M151.8,101.6c-1-2.1-2.1-4-3.3-5.6c-2.9,0.5-5,1.1-7.4,1.8
	c-0.3,1.9-0.4,3.8-0.7,5.6c0.6,0,1.4,0.2,1.9,0c-0.1-0.1-0.3,0-0.3-0.2c1.1,0.6,3.4,0.4,4.8,0.4c-0.8-0.9-1.5-1.8-2.4-2.6
	c1.1,0.4,1.9,2.4,2.9,2.6c0.4,0.1,0.9,0,1.3,0c1.2,0.1,2.5,0.2,3.8,0.2C152.5,103,152.1,102.2,151.8,101.6z M140.6,104.1
	c0.2,0.1,0.3,0.2,0.4,0.6c3.2,0.2,6.6,0.2,9.8,0.3c-0.6-1-2.4-0.7-4-0.8C144.7,104.1,142.5,104.1,140.6,104.1z M159.5,95.4
	c-0.7-0.1-1.4-0.1-2.3-0.1c-0.1,1.6-0.1,3.4-0.3,5c0.8,0,1.7,0,2.5,0C159.4,98.6,159.5,97,159.5,95.4z M136.8,99.3
	c-0.1,1.3-0.1,2.8-0.2,4.1c0.8,0,1.6,0,2.3,0.1c0-1.7,0.2-3.2,0.1-4.9c-0.1,0-0.2,0-0.2,0C138.1,98.8,137.4,99,136.8,99.3z
	 M155,102.1c0.7-0.8,3.2-0.4,4.9-0.5c0-0.3,0-0.6,0-0.9C157.9,100.9,155,100.1,155,102.1z M140.7,98c-0.3,0.2-0.8,0.2-1,0.4
	c0.1,0.5,0.8,0.3,1.1,0.1C140.7,98.3,140.9,98,140.7,98z M140.6,98.8c-0.2,0.2-0.7,0.1-1.1,0.2c0,0.7,0,1.5,0,2.3
	c0.4,0,0.7-0.1,0.9-0.2C140.4,100.3,140.7,99.4,140.6,98.8z M154.5,105c0-0.2,0-0.4,0-0.6c-1.2,0.1-2.4-0.2-3.5,0
	C151.6,105.2,153.3,104.9,154.5,105z M139.5,101.4c0,0.8-0.1,1.4-0.1,2c0.2,0,0.5,0,0.7,0c0.1-0.6,0.3-1.4,0.2-2
	C140.1,101.5,139.7,101.7,139.5,101.4z"/>
<path class="st2" d="M120.7,165c-8.1,0-15.3-5.4-23-6.1c-3.1-0.3-6.9,0.8-10.1,0.6c-2.4-0.1-4.7-0.1-6.8-0.2
	c3.3,3.9,7.1,7.6,11.5,11.1c6.1,4.8,13.2,9.2,20.4,13.6c9.5,5.8,19.2,11.7,27.4,19.2c8.2-7.5,17.9-13.4,27.4-19.2
	c7.2-4.4,14.4-8.7,20.4-13.6c6.1-4.8,11-10.1,15-15.7c-2.4,0.2-4.9,0.4-7.8,0.3c-3-0.1-4.5,1.1-6.1,1.5c-1.3,0.3-15.5,2.5-15.6,1.3
	c-0.1-1-13.7-6.2-15.4-5.9c-11.9,2.2-31.7,14.4-32.2,14.5C117.9,168,123.8,165,120.7,165z"/>
<path class="st1" d="M195.1,155c-3-0.1-4.5,1.1-6.1,1.5c-1.3,0.3-15.5,2.5-15.6,1.3c-0.1-1-13.7-6.2-15.4-5.9
	c-11.9,2.2-31.7,14.4-32.2,14.5c-7.9,1.6-2-1.4-5.1-1.4c-8.1,0-15.3-5.4-23-6.1c-3.1-0.3-6.9,0.8-10.1,0.6c-2.4-0.1-4.7-0.1-6.8-0.2
	c0.7,0.9,1.5,1.7,2.3,2.6c2-0.6,4.1-0.9,6.5,0.7c-1.6-0.6-3.5-0.2-5.5,0.3c1.6,1.6,3.2,3.2,5,4.8c0.3-0.2,0.6-0.3,0.8-0.5
	c1.6-1.4,4.7-2,6,0c-0.1,0-0.2,0.1-0.3,0.1c-0.1,0-0.2,0.2-0.4,0.5s-0.3,0.7-0.3,1s0.1,0.6,0.3,0.8c0.3,0.2,0.7,0.5,1.4,0.6
	c6.8,1.2,7-4.4,14.2,0.9c-5-1.8-5.2-1.4-7.2-0.5c-4.3,1.9-12.5,1.5-10-3.2c-0.8-0.5-2.1,0.4-3.6,1.1c0.7,0.6,1.5,1.3,2.3,1.9
	c1.5,1.2,3.1,2.4,4.8,3.6c1.1,0,2.3,0.5,3.5,1.6c-0.5-0.3-1.1-0.4-1.8-0.4c2.1,1.5,4.3,2.9,6.6,4.3c3.7-0.9,6.8-4.5,10.8-0.8
	c-2.5-1.4-5.9,0.8-9.1,1.8c1.9,1.2,3.7,2.3,5.6,3.5c2.6,1.6,5.1,3.1,7.7,4.7c0.7,0,1.4-0.1,2.1-0.2c0.9-0.3,1.7-0.7,2.4-1.2
	c1.7-1.3,5.1-2,6.5,0c-0.1,0-0.2,0.1-0.3,0.1c-0.2,0-0.3,0.2-0.5,0.5c-0.2,0.3-0.3,0.7-0.3,1c0,0.3,0.1,0.6,0.3,0.8
	c0.3,0.3,0.7,0.5,1.5,0.6c7.4,1.2,9.5-4.8,17.3,0.5c-5.3-1.8-7.4-0.9-9.6,0c-4.6,1.9-13.6,1.5-10.9-3.2c-1.5-0.8-4.3,2.5-7.5,1.8
	c6.6,4.2,13,8.6,18.7,13.8c3.4-3.1,7.2-6,11-8.7c-1.9,0.3-3.7-0.1-5.1-2.3c4.2,2.8,7.2-0.5,10.5-1.3c1.5-1,3.1-2,4.6-2.9
	c-4.5,1.4-9.2,2.8-12.5-0.8c6.6,3.1,11.2-1.9,16.6-1.7c0.8-0.5,1.5-0.9,2.3-1.4c0.6-0.3,1.1-0.7,1.7-1c-0.1-0.1-0.2-0.2-0.3-0.3
	c-5.2-0.9-7.4,0-9.7,1c-5.4,2.4-15.6,2.8-12.5-2.2c-2-0.8-6.1,4.1-10.4,1.9c1,0,2.1-0.1,3.1-0.4s1.9-0.8,2.7-1.4
	c1.9-1.5,5.8-2.4,7.4-0.6c-0.1,0.1-0.2,0.2-0.3,0.2c-0.1,0.1-0.3,0.3-0.5,0.6c-0.2,0.3-0.4,0.7-0.4,1s0.1,0.6,0.4,0.8
	c0.3,0.3,0.8,0.4,1.7,0.5c7.9,0.5,10.6-4.9,18.1-1.9c0,0,0,0,0-0.1c0.1,0.1,0.2,0.1,0.3,0.2c0.3,0.1,0.6,0.3,1,0.4
	c2.7-1.6,5.3-3.3,7.9-4.9c-0.1-0.3-0.2-0.6-0.2-0.9v-0.1c-0.8,0.2-1.7,0.6-2.6,1c-2.3,1-8.4,3.1-11.2,0.1c4.8,1.1,7.7-0.2,10.1-1.3
	c2.7-1.2,3.3-1.4,6.3-1.1l-0.4,0.8c-0.1,0.1-0.1,0.2-0.1,0.3c3-2,5.9-4,8.5-6.2c0.3-0.3,0.6-0.5,0.9-0.8c-1.2,0-2.9-0.3-3-1.3
	c1.5,0.1,3.2-0.1,3.8,0.7c5.3-4.4,9.6-9.2,13.3-14.3C200.5,154.9,198,155.1,195.1,155z M87.8,162.3c6.4,3,10.3-4,16.2-0.1
	C99.4,160.4,92.1,167.1,87.8,162.3z M110.6,168c-1.8,0-2.7-3.3-1.1-1c7.5,1.9,7.7,2.5,7.5,2.6c1.5,0,1.2-1.6,2.9-1.3
	c8.3,4.7,16.3-1.6,22.5-4.6c-1.5-0.1-2.7,1.1-3.7,0.3c1.3-2.8,5-3.4,9-3.9c-0.2,2.7-3.8,0.4-4.9,2.3c1.8,1.2,3.3,0.7,5.2,0
	c0.5,0.7-1,1.2,0,1.3c4.7,0.8,9.1,1.8,11.6,4.6c-1.4,0.5-5.8-0.7-6.4,1.3c0.6-0.3,3.5-0.4,3.4,1c-2.7-0.2-4.7,0.2-6.7,0.7
	c-0.2-3,3.7-2.4,4.5-4.6c-6.3-4.1-14.9-1.2-19.5,2.3c6.6,4,12.9-3.2,18-2.3c-3.6,1.4-7.6,2.5-10.1,4.9c-4.5,0.4-6.3-1.7-9.7-2.3
	c-0.8,2.4-6.3,2.2-9.4,1.6c-4.5,4.3-7-2.1-12.7-1.3C110.2,168.9,111.3,168.5,110.6,168z M129.3,184c-0.9,0.4-1.9,0.7-3,0.7
	c-0.2,0-0.4,0-0.6-0.1c-0.5-0.1-0.9-0.4-1.3-0.8c-0.3-0.4-0.6-0.9-0.6-1.5v-0.1c-0.6,0.2-1.3,0.6-2.1,1c-1.9,1-6.9,3-9.2,0
	c3.9,1.1,6.3-0.2,8.3-1.2c2.2-1.2,2.7-1.4,5.2-1.1l-0.3,0.8c-0.1,0.2-0.1,0.3-0.1,0.5s0.1,0.5,0.3,0.7c0.2,0.1,0.4,0.3,0.5,0.3
	c0.9-0.1,1.7-0.3,2.5-0.6c2-0.7,4.9-0.6,5.9,1.7C132.5,182.9,130.9,183.5,129.3,184z M133.8,176.1c-0.9,0.4-1.9,0.7-3,0.7
	c-0.2,0-0.4,0-0.6-0.1c-0.5-0.1-0.9-0.4-1.3-0.8c-0.3-0.4-0.6-0.9-0.6-1.5v-0.1c-0.6,0.2-1.3,0.6-2.1,1c-4.2,2.3-13.5,2.6-10.8-2.6
	c-1.6-1-4.9,3.5-8.4,1c0.8,0.2,1.7,0.1,2.5-0.1s1.6-0.6,2.2-1.1c1.6-1.4,4.7-2,6,0c-0.1,0-0.2,0.1-0.3,0.1c-0.1,0-0.2,0.2-0.4,0.5
	c-0.2,0.3-0.3,0.7-0.3,1c0,0.1,0.3,0.9,0.3,0.9c1.7,2,6.4,0.3,8.1-0.8c2.2-1.2,2.7-1.4,5.2-1.1l-0.3,0.8c-0.1,0.2-0.1,0.3-0.1,0.5
	s0.1,0.5,0.3,0.7c0.2,0.1,0.4,0.3,0.5,0.3c0.9-0.1,1.7-0.3,2.5-0.6c2-0.6,4.9-0.6,6.1,1.6C137,175,135.4,175.6,133.8,176.1z
	 M156.6,178.3c-1.1,0.3-2.2,0.7-3.5,0.7c-0.2,0-0.5,0-0.7-0.1c-0.5-0.1-1.1-0.4-1.5-0.8c-0.4-0.4-0.7-0.9-0.7-1.5v-0.1
	c-0.8,0.2-1.6,0.6-2.5,1c-2.2,1-8,3.1-10.7,0.1c4.5,1.1,7.3-0.2,9.6-1.3c2.5-1.2,3.1-1.4,6-1.1l-0.4,0.8c-0.1,0.2-0.1,0.3-0.1,0.5
	c0,0.3,0.1,0.5,0.3,0.7c0.1,0.1,0.3,0.3,0.5,0.3c1-0.1,1.9-0.3,2.9-0.6c2.3-0.7,5.7-0.6,7.2,1.6
	C160.3,177.2,158.5,177.8,156.6,178.3z M179,171.3c-0.6,1-2.3-0.5-1.1-1C178,170.9,179.2,170.5,179,171.3z M183.5,169.8
	c-1.2,0.4-0.3-1.1-1.5-0.7c-1,0.2-0.5,1.9-2.2,1.6c-2.1-1.7-5.9-2.2-7.5-3.6c0.5,0.4,0.5,1.2,0,1.6c-2.4-0.1-4.3-0.5-6.4-0.7
	c1.9,2.5,6.5,3.4,9,4.6c-4.4-0.3-7-2.4-10.1-3.9c-2,1.6-6,4.9-9.7,2.9c3.7-0.5,8.7-2.6,7.7-5.2c3.2,0.2,6.5,1.3,8.4,1
	c-0.3-0.9-1-0.9-2-1.7c4.6-0.7,3.8,1.6,8.3,2.8c0.7-1.2,1.3-2.3,3-2.9c-0.6,0.8-1,2.4,0,2.9c1.3,0.3,3.5-1.7,4.1,0
	C183,169.2,183.7,168.7,183.5,169.8z M191.1,166.4c0.3,0.9-0.6,0.8-0.4,1.6c-1.8-1.4-7-1-8.6-1.6c3.3-0.5,6.8-4.7,9.7-1.6
	c-0.8,0.5-2.4,0.3-2.6,1.3C189.6,167,190.5,165.5,191.1,166.4z M190.2,161.9c-1.2-0.6,0.9-1.4,0-1.6c-3.5,0.5-7.1,2.5-7.9,4.2
	c-3.2-0.3,0-3.5-0.7-4.2c-2.1,0.9-3.6,2.3-4.9,3.9c-1.6-0.8,1.1-2.3-1.1-2.9c0,0.3,0.6,3.4-0.7,3.6c-1-0.5,1.4-4-1.1-3.9
	c-0.1,0.3-0.3,0.4-0.7,0.3c-0.1,1.2,1.1,1.2,1.1,2.3c-2.5-1.6-4.1-4-7.1-5.2c-3.7,0.5-8.4-3.7-12.7-1.6c6,3.3,12.5,3.9,11.6,5.5
	c-0.1,0.7-1.4,0.3-1.5,1c1.2,0.7,2.9,0.9,2.6,2.9c-3.3,0.5-6.3-4.8-10.1-2.9c-2.7-2.6-6.3-0.3-8.2-3.3c5.3-0.1,10.4,3.3,15,1.6
	c-3.6,0.1-4.9-2.4-7.9-2c0.8-0.2,0.8-0.5,0.4-1c-2.1-1.2-6.9,1-7.5-1c-4.6,2.2-9.5,3.9-14.7,5.5c3.2-1.5,9.7-4.5,13.5-6.2
	c10.9-4.9,8.4-3.8,15-0.7c10.4,0.2,7.5,6.9,12,3.6c0-0.4,0-0.9,0-1.3c1.6,0.6,4.3,2.5,5.2,0c0.5-0.1,1.3,0.9,0.4,1
	c0.7,0.2,2.6-1.4,4.5-1.3c-0.2,1.3-1.1,2.1-1.1,3.6c-0.5,1.4,3.8-8.1,5.2-2.9c-1.4-0.7-1.9-0.6-1.9,1.3c2-0.7,4.4-2.3,6.7-1.6
	c0.4,1.3-2.5,1.3-1.5,2c1.3,0.2,3.5-0.4,4.1,0.3C195.2,162.7,192.2,160.8,190.2,161.9z M196.3,159.2c0.3-1.6,1.8-2.1,3-2.9
	C198,157,198.2,159,196.3,159.2z"/>
<path class="st3" d="M155.8,176.9c-1,0.3-1.9,0.5-2.9,0.6l0,0c-0.2,0-0.4-0.2-0.5-0.3l0,0c-0.2-0.2-0.3-0.4-0.3-0.7
	c0-0.2,0-0.3,0.1-0.5l0.4-0.8c-2.9-0.3-3.5-0.1-6,1.1c-2.3,1.1-5.1,2.4-9.6,1.3c2.7,3,8.5,0.9,10.7-0.1c0.9-0.4,1.7-0.8,2.5-1v0.1
	l0,0c0,0.6,0.3,1.1,0.7,1.5l0,0c0.4,0.4,1,0.7,1.5,0.8l0,0c0.2,0.1,0.5,0.1,0.7,0.1l0,0c1.3,0,2.4-0.4,3.5-0.7
	c1.9-0.5,3.7-1.1,6.4,0.2C161.5,176.3,158.1,176.2,155.8,176.9L155.8,176.9z M152.9,177.5L152.9,177.5L152.9,177.5L152.9,177.5
	L152.9,177.5L152.9,177.5z M150.3,184.1c-0.9-0.1-1.4-0.2-1.7-0.5l0,0c-0.3-0.2-0.4-0.5-0.4-0.8s0.2-0.7,0.4-1s0.4-0.5,0.5-0.6
	c0.1,0,0.2-0.1,0.3-0.2c-1.6-1.8-5.5-0.9-7.4,0.6c-0.8,0.6-1.7,1.1-2.7,1.4c-1,0.3-2.1,0.4-3.1,0.4c4.3,2.2,8.4-2.7,10.4-1.9
	c-3.1,5,7.1,4.6,12.5,2.2c2.5-1.1,4.9-2.1,11-0.8C161.2,178.4,158.8,184.6,150.3,184.1L150.3,184.1z M146,192.2
	c4.1,6.4,11.2-2.3,15.7,0.1C155.9,187.1,152.2,196.3,146,192.2L146,192.2z M117,175c0,0-0.3-0.8-0.3-0.9c0-0.3,0.1-0.7,0.3-1
	c0.2-0.3,0.3-0.5,0.4-0.5s0.2-0.1,0.3-0.1c-1.3-2-4.4-1.4-6,0c-0.6,0.5-1.4,0.9-2.2,1.1c-0.8,0.2-1.7,0.3-2.5,0.1
	c3.5,2.5,6.8-2,8.4-1c-2.7,5.2,6.6,4.9,10.8,2.6c0.8-0.4,1.5-0.8,2.1-1v0.1l0,0c0,0.6,0.3,1.1,0.6,1.5l0,0c0.4,0.4,0.8,0.7,1.3,0.8
	l0,0c0.2,0.1,0.4,0.1,0.6,0.1l0,0c1.1,0,2.1-0.3,3-0.7c1.6-0.5,3.2-1.1,5.5,0.3c-1.2-2.2-4.1-2.2-6.1-1.6c-0.8,0.3-1.6,0.5-2.5,0.6
	l0,0c-0.1,0-0.3-0.2-0.5-0.3l0,0c-0.2-0.2-0.3-0.5-0.3-0.7s0-0.3,0.1-0.5l0.3-0.8c-2.5-0.3-3-0.1-5.2,1.1
	C123.4,175.3,118.7,177,117,175L117,175z M130.8,175.6L130.8,175.6L130.8,175.6C130.7,175.6,130.8,175.6,130.8,175.6L130.8,175.6
	L130.8,175.6z M96.6,170.2c-0.7-0.1-1.1-0.4-1.4-0.6l0,0c-0.2-0.2-0.3-0.5-0.3-0.8s0.1-0.7,0.3-1c0.2-0.3,0.3-0.5,0.4-0.5
	s0.2-0.1,0.3-0.1c-1.3-2-4.4-1.4-6,0c-0.6,0.5-1.4,0.9-2.2,1.1c-0.8,0.2-1.7,0.3-2.5,0.1c3.5,2.5,6.8-2,8.4-1
	c-2.5,4.7,5.7,5.1,10,3.2c2-0.9,2.2-1.3,7.2,0.5C103.6,165.8,103.4,171.4,96.6,170.2L96.6,170.2z M128.9,182.6
	c-0.8,0.3-1.6,0.5-2.5,0.6l0,0c-0.1,0-0.3-0.2-0.5-0.3l0,0c-0.2-0.2-0.3-0.5-0.3-0.7s0-0.3,0.1-0.5l0.3-0.8c-2.5-0.3-3-0.1-5.2,1.1
	c-2,1-4.4,2.3-8.3,1.2c2.3,3,7.3,1,9.2,0c0.8-0.4,1.5-0.8,2.1-1v0.1l0,0c0,0.6,0.3,1.1,0.6,1.5l0,0c0.4,0.4,0.8,0.7,1.3,0.8l0,0
	c0.2,0.1,0.4,0.1,0.6,0.1l0,0c1.1,0,2.1-0.3,3-0.7c1.6-0.5,3.2-1.1,5.5,0.3C133.8,182,130.9,181.9,128.9,182.6L128.9,182.6z
	 M126.4,183.1L126.4,183.1L126.4,183.1L126.4,183.1L126.4,183.1L126.4,183.1z M168.4,182.1c4.6,6.4,12.4-2.3,17.3,0
	C179.4,176.9,175.3,186.2,168.4,182.1L168.4,182.1z M132.1,190.3c-0.8-0.1-1.2-0.3-1.5-0.6l0,0c-0.2-0.2-0.3-0.5-0.3-0.8
	s0.1-0.7,0.3-1s0.3-0.5,0.5-0.5c0.1,0,0.2-0.1,0.3-0.1c-1.4-2-4.8-1.3-6.5,0c-0.7,0.5-1.5,0.9-2.4,1.2c-0.9,0.2-1.8,0.3-2.7,0.2
	c3.8,2.5,7.4-2,9.1-1.1c-2.7,4.7,6.3,5.1,10.9,3.2c2.2-0.9,4.3-1.8,9.6,0C141.6,185.5,139.5,191.5,132.1,190.3L132.1,190.3z
	 M148.6,187.1c5.7,6.3,15.3-2.5,21.5-0.1C162.2,181.8,157.1,191.1,148.6,187.1L148.6,187.1z M100.5,178.6c4.1,6.4,11.2-2.3,15.7,0.1
	C110.5,173.5,106.7,182.7,100.5,178.6L100.5,178.6z M85,175.5c4.1,6.4,11.2-2.3,15.6,0.1C94.9,170.4,91.2,179.6,85,175.5L85,175.5z
	 M183.4,177.2c-1,0.3-2,0.6-3,0.6l0,0c-0.2,0-0.4-0.2-0.6-0.3l0,0c-0.2-0.2-0.4-0.4-0.4-0.7c0-0.2,0-0.3,0.1-0.5l0.4-0.8
	c-3-0.3-3.6-0.1-6.3,1.1c-2.4,1.1-5.3,2.4-10.1,1.3c2.8,3,8.9,0.9,11.2-0.1c0.9-0.4,1.8-0.8,2.6-1v0.1l0,0c0,0.6,0.3,1.1,0.7,1.5
	l0,0c0.4,0.4,1,0.7,1.5,0.8l0,0c0.2,0.1,0.5,0.1,0.7,0.1l0,0c1.4,0,2.5-0.4,3.7-0.7c1.9-0.5,3.9-1.1,6.7,0.2
	C189.4,176.6,185.8,176.5,183.4,177.2L183.4,177.2z M180.3,177.8L180.3,177.8L180.3,177.8C180.3,177.8,180.4,177.8,180.3,177.8
	L180.3,177.8L180.3,177.8z M87.8,162.3c4.3,4.8,11.6-1.9,16.2-0.1C98.1,158.3,94.2,165.3,87.8,162.3L87.8,162.3z M73.4,162.7
	c4.3,4.8,11.6-1.9,16.2-0.1C83.7,158.7,79.9,165.7,73.4,162.7L73.4,162.7z M185.8,168.3c0.2,1.4,3.4,1.4,4.1,1.3
	C189.8,168.1,187.6,168.4,185.8,168.3L185.8,168.3z M177.9,170.3c-1.2,0.5,0.5,2,1.1,1C179.2,170.5,178,170.9,177.9,170.3
	L177.9,170.3z M122.9,170.9c-2.1-0.2-4.9,1.2-5.6-0.7C118.9,169.1,122,169,122.9,170.9L122.9,170.9z M116.9,169.6
	c1.6,0.1,1.2-1.6,3-1.3c8.3,4.7,16.3-1.6,22.5-4.6c-1.5-0.1-2.7,1.1-3.7,0.3c1.3-2.8,5-3.4,9-3.9c-0.2,2.7-3.8,0.4-4.9,2.3
	c1.8,1.2,3.3,0.7,5.2,0c0.5,0.7-1,1.2,0,1.3c4.7,0.8,9.1,1.8,11.6,4.6c-1.4,0.5-5.8-0.7-6.4,1.3c0.6-0.3,3.5-0.4,3.4,1
	c-2.7-0.2-4.7,0.2-6.7,0.7c-0.2-3,3.7-2.4,4.5-4.6c-6.3-4.1-14.9-1.2-19.5,2.3c6.6,4,12.9-3.2,18-2.3c-3.6,1.4-7.6,2.5-10.1,4.9
	c-4.5,0.4-6.3-1.7-9.7-2.3c-0.8,2.4-6.3,2.2-9.4,1.6c-4.5,4.3-7-2.1-12.7-1.3c-0.8-0.7,0.3-1.1-0.4-1.6c-1.8,0-2.7-3.3-1.1-1
	C120.2,169.7,116.1,169.7,116.9,169.6L116.9,169.6z M134.1,163.1c3.2-1.5,9.7-4.5,13.5-6.2c10.9-4.9,8.4-3.8,15-0.7
	c10.4,0.2,7.5,6.9,12,3.6c0-0.4,0-0.9,0-1.3c1.6,0.6,4.3,2.5,5.2,0c0.5-0.1,1.3,0.9,0.4,1c0.7,0.2,2.6-1.4,4.5-1.3
	c-0.2,1.3-1.1,2.1-1.1,3.6c-0.5,1.4,3.8-8.1,5.2-2.9c-1.4-0.7-1.9-0.6-1.9,1.3c2-0.7,4.4-2.3,6.7-1.6c0.4,1.3-2.5,1.3-1.5,2
	c1.3,0.2,3.5-0.4,4.1,0.3c-1,1.8-4-0.1-6,1c-1.2-0.6,0.9-1.4,0-1.6c-3.5,0.5-7.1,2.5-7.9,4.2c-3.2-0.3,0-3.5-0.7-4.2
	c-2.1,0.9-3.6,2.3-4.9,3.9c-1.6-0.8,1.1-2.3-1.1-2.9c0,0.3,0.6,3.4-0.7,3.6c-1-0.5,1.4-4-1.1-3.9c-0.1,0.3-0.3,0.4-0.7,0.3
	c-0.1,1.2,1.1,1.2,1.1,2.3c-2.5-1.6-4.1-4-7.1-5.2c-3.7,0.5-8.4-3.7-12.7-1.6c6,3.3,12.5,3.9,11.6,5.5c-0.1,0.7-1.4,0.3-1.5,1
	c1.2,0.7,2.9,0.9,2.6,2.9c-3.3,0.5-6.3-4.8-10.1-2.9c-2.7-2.6-6.3-0.3-8.2-3.3c5.3-0.1,10.4,3.3,15,1.6c-3.6,0.1-4.9-2.4-7.9-2
	c0.8-0.2,0.8-0.5,0.4-1c-2.1-1.2-6.9,1-7.5-1C144.2,159.8,139.3,161.5,134.1,163.1L134.1,163.1z M199.3,156.3
	c-1.2,0.8-2.7,1.3-3,2.9C198.2,159,198,157,199.3,156.3L199.3,156.3z M182.1,166.4c1.6,0.6,6.8,0.2,8.6,1.6
	c-0.2-0.8,0.7-0.7,0.4-1.6c-0.6-0.9-1.5,0.6-1.9-0.3c0.2-1,1.8-0.8,2.6-1.3C188.9,161.7,185.4,165.9,182.1,166.4L182.1,166.4z
	 M169.2,165.7c1,0.8,1.7,0.8,2,1.7c-1.9,0.3-5.2-0.8-8.4-1c1,2.6-4,4.7-7.7,5.2c3.7,2,7.7-1.3,9.7-2.9c3.1,1.5,5.7,3.6,10.1,3.9
	c-2.5-1.2-7.1-2.1-9-4.6c2.1,0.2,4,0.6,6.4,0.7c0.5-0.4,0.5-1.2,0-1.6c1.6,1.4,5.4,1.9,7.5,3.6c1.7,0.3,1.2-1.4,2.2-1.6
	c1.2-0.4,0.3,1.1,1.5,0.7c0.2-1.1-0.5-0.6,1.1-1.3c-0.6-1.7-2.8,0.3-4.1,0c-1-0.5-0.6-2.1,0-2.9c-1.7,0.6-2.3,1.7-3,2.9
	C173,167.3,173.8,165,169.2,165.7L169.2,165.7z"/>
<path class="st3" d="M140,203.2c8.2-7.5,17.9-13.4,27.4-19.2c7.2-4.4,14.4-8.7,20.4-13.6c11.7-9.3,19.2-20.1,23.7-32.4
	c4.3-11.9,5.8-25.4,5.6-40.4c-3.7-3.4-6.9-7.5-9.6-11.9c-3.1-5.3-5.4-11.2-6.7-17.1c-1.5-7.1-1.6-14.1-0.4-20.7
	c1-5.6,2.9-10.9,5.6-15.7l-3.5-4c-5.7,2.6-11.6,4.5-17.7,5.5c-7.1,1.2-14.3,1.2-21.7-0.1c-4.5-0.8-9.1-2.1-13.5-3.9
	c-3.3-1.4-6.6-3-9.7-4.9c-3.1,1.9-6.4,3.5-9.7,4.9c-4.4,1.8-8.9,3.1-13.5,3.9c-7.3,1.3-14.6,1.3-21.7,0.1c-6-1-12-2.9-17.7-5.5
	l-3.5,4c2.7,4.9,4.6,10.1,5.6,15.7c1.2,6.6,1.1,13.6-0.4,20.7c-1.3,5.9-3.6,11.8-6.7,17.1c-2.6,4.5-5.9,8.6-9.6,11.9
	c-0.3,15,1.3,28.4,5.6,40.4c4.5,12.3,12,23.1,23.7,32.4c6.1,4.8,13.2,9.2,20.4,13.6C122.1,189.8,131.8,195.7,140,203.2L140,203.2z
	 M172.7,192.7c-10.4,6.3-21,12.8-29.1,21.1l-3.6,3.7l-3.6-3.7c-8-8.3-18.6-14.8-29.1-21.1c-7.5-4.6-14.9-9.1-21.5-14.3
	c-13.3-10.6-21.8-22.9-26.9-36.9c-5-13.8-6.6-29.2-6.1-46.3l0.1-2.3l1.8-1.5c3.5-2.8,6.6-6.6,9.1-10.8c2.6-4.3,4.5-9.2,5.5-14.1
	c1.3-5.8,1.3-11.5,0.4-16.8c-1-5.5-3.1-10.6-6.2-15.2l-2.1-3.2l2.5-2.9l8.4-9.7l2.6-3l3.5,1.8c5.9,3.1,12,5.2,18.3,6.3
	c6,1,12.1,1,18.3-0.1c3.8-0.7,7.7-1.8,11.4-3.3c3.8-1.5,7.4-3.4,10.7-5.7l2.8-1.9l2.8,1.9c3.4,2.2,7,4.2,10.7,5.7s7.6,2.6,11.4,3.3
	c6.2,1.1,12.3,1.1,18.3,0.1c6.3-1.1,12.4-3.2,18.3-6.3l3.5-1.8l2.6,3l8.4,9.7l2.5,2.9l-2.1,3.2c-3.1,4.6-5.2,9.8-6.2,15.2
	c-1,5.3-0.9,10.9,0.4,16.8c1.1,4.9,3,9.7,5.5,14.1c2.5,4.2,5.6,8,9.1,10.8l1.8,1.5l0.1,2.3c0.5,17.1-1.1,32.5-6.1,46.3
	c-5.1,14-13.6,26.3-26.9,36.9C187.6,183.6,180.2,188.1,172.7,192.7L172.7,192.7z"/>
<path class="st0" d="M140,209.1c8.5-8.5,19.1-15,29.6-21.4c7.4-4.5,14.6-8.9,20.9-13.9c12.4-9.9,20.3-21.3,25-34.3
	s6.2-27.5,5.8-43.8c-3.9-3.3-7.4-7.5-10.1-12.1c-2.9-4.9-5-10.3-6.2-15.8c-1.4-6.6-1.5-13-0.4-19.1s3.4-11.8,6.7-16.9l-7.6-8.7
	c-6.3,3.2-12.8,5.4-19.4,6.6c-6.6,1.1-13.4,1.1-20.2-0.1c-4.2-0.8-8.5-2-12.6-3.7c-3.9-1.6-7.7-3.6-11.3-6c-3.6,2.4-7.4,4.4-11.3,6
	c-4.1,1.7-8.4,2.9-12.6,3.7c-6.8,1.2-13.6,1.2-20.2,0.1c-6.7-1.1-13.2-3.4-19.4-6.6l-7.6,8.7c3.3,5.1,5.6,10.8,6.7,16.9
	s1,12.5-0.4,19.1c-1.2,5.5-3.3,10.9-6.2,15.8c-2.8,4.7-6.2,8.9-10.1,12.1c-0.4,16.2,1.1,30.8,5.8,43.8c4.7,13,12.6,24.5,25,34.3
	c6.3,5,13.5,9.4,20.9,13.9C120.9,194,131.5,200.5,140,209.1L140,209.1z M170.5,189.1c-10.6,6.5-21.5,13.1-29.9,21.8l-0.6,0.6
	l-0.6-0.6c-8.4-8.7-19.3-15.3-29.9-21.8c-7.4-4.5-14.7-9-21-14C75.9,165,67.8,153.3,62.9,140c-4.8-13.3-6.4-28.2-5.9-44.8v-0.4
	l0.3-0.2c3.9-3.2,7.3-7.3,10-11.9c2.8-4.7,4.9-10,6-15.3c1.4-6.4,1.5-12.6,0.4-18.4c-1.1-6.1-3.4-11.7-6.8-16.8l-0.4-0.5l0.4-0.5
	l8.4-9.7l0.4-0.5l0.6,0.3c6.3,3.3,12.8,5.6,19.5,6.7c6.4,1.1,13,1.1,19.7-0.1c4.1-0.7,8.3-1.9,12.3-3.6c4-1.6,7.9-3.7,11.5-6.1
	l0.5-0.3l0.5,0.3c3.6,2.4,7.5,4.5,11.5,6.1s8.2,2.8,12.3,3.6c6.7,1.2,13.2,1.2,19.7,0.1c6.7-1.1,13.3-3.4,19.5-6.7l0.6-0.3l0.4,0.5
	l8.4,9.7l0.4,0.5l-0.4,0.5c-3.4,5.1-5.7,10.8-6.8,16.8c-1.1,5.8-1,12,0.4,18.4c1.2,5.3,3.2,10.6,6,15.3c2.7,4.6,6.1,8.8,10,11.9
	l0.3,0.2v0.4c0.5,16.6-1.1,31.5-5.9,44.8c-4.8,13.3-12.9,25-25.5,35.1C185.2,180.1,177.9,184.6,170.5,189.1L170.5,189.1z"/>
<g>
	<path class="st4" d="M88.4,270.5l4.5-5.4l0.9,0.3l0.4,7.1l-0.9-0.3l-0.1-2.1l-2.6-0.9l-1.3,1.7L88.4,270.5z M91.1,268.5l2.1,0.7
		l-0.1-2c0-0.6,0-1.1,0-1.4c-0.2,0.4-0.5,0.7-0.7,1.1L91.1,268.5z"/>
	<path class="st4" d="M105.4,275.5l1.4-6.5l0.9,0.2l-1.3,5.7l3.2,0.7l-0.2,0.8L105.4,275.5z"/>
	<path class="st4" d="M121.4,278.4l0.7-6.6l4.7,0.5l-0.1,0.8l-3.9-0.4l-0.2,2l3.6,0.4l-0.1,0.8l-3.6-0.4l-0.2,2.2l4,0.4l-0.1,0.8
		L121.4,278.4z"/>
	<path class="st4" d="M138.5,279.5l-0.1-6.6h2.9c0.6,0,1,0,1.3,0.2c0.3,0.1,0.6,0.3,0.7,0.6c0.2,0.3,0.3,0.6,0.3,1
		c0,0.5-0.1,0.9-0.4,1.2c-0.3,0.3-0.8,0.5-1.4,0.6c0.2,0.1,0.4,0.2,0.5,0.3c0.3,0.2,0.5,0.5,0.7,0.9l1.2,1.8h-1.1l-0.9-1.4
		c-0.3-0.4-0.5-0.7-0.6-0.9s-0.3-0.4-0.5-0.4c-0.1-0.1-0.3-0.1-0.4-0.2c-0.1,0-0.3,0-0.5,0h-1v2.9H138.5z M139.3,275.8h1.9
		c0.4,0,0.7-0.1,0.9-0.1c0.2-0.1,0.4-0.2,0.5-0.4c0.1-0.2,0.2-0.4,0.2-0.6c0-0.3-0.1-0.6-0.4-0.8c-0.2-0.2-0.6-0.3-1.1-0.3h-2.1
		L139.3,275.8z"/>
	<path class="st4" d="M156.2,278.6l-0.7-6.6l0.9-0.1l0.7,6.6L156.2,278.6z"/>
	<path class="st4" d="M168.7,276.8l1.1-7l0.9-0.2l4,5.9l-1,0.2l-1.2-1.8l-2.7,0.6l-0.3,2.1L168.7,276.8z M170,273.8l2.2-0.5
		l-1.1-1.6c-0.3-0.5-0.6-0.9-0.7-1.2c0,0.4,0,0.9-0.1,1.3L170,273.8z"/>
	<path class="st4" d="M186,272.4l-2.1-6.3l2.8-0.9c0.6-0.2,1-0.3,1.3-0.3s0.6,0.1,0.9,0.4c0.3,0.2,0.5,0.5,0.6,0.9
		c0.2,0.4,0.1,0.9-0.1,1.3c-0.2,0.4-0.6,0.7-1.1,1c0.3,0,0.5,0.1,0.6,0.1c0.3,0.1,0.6,0.3,1,0.6l1.7,1.3l-1,0.4l-1.3-1
		c-0.4-0.3-0.7-0.5-0.9-0.7c-0.2-0.1-0.4-0.2-0.6-0.3c-0.2,0-0.3-0.1-0.4,0c-0.1,0-0.3,0.1-0.5,0.1l-1,0.3l0.9,2.8L186,272.4z
		 M185.6,268.6l1.8-0.6c0.4-0.1,0.7-0.3,0.8-0.4c0.2-0.2,0.3-0.3,0.4-0.5c0.1-0.2,0-0.4,0-0.6c-0.1-0.3-0.3-0.5-0.6-0.6
		s-0.7-0.1-1.1,0.1l-2,0.7L185.6,268.6z"/>
</g>
<g>
	<path class="st0" d="M65.1,234.7c-0.7,0.8-1.5,1.6-2.5,2.2c-1,0.6-2,1-3.1,1.2s-2.3,0.1-3.4-0.2c-1.2-0.3-2.3-0.9-3.5-1.9l-4.1-3.4
		c-0.3-0.3-0.7-0.6-1.2-1c-0.5-0.3-0.9-0.7-1.3-1c0.1-0.2,0.2-0.3,0.2-0.4c0.2-0.2,0.3-0.3,0.5-0.2c0.6,0.3,1,0.5,1.4,0.5
		c0.3,0.1,0.6,0,0.8-0.3l9.2-10.9c0.2-0.3,0.3-0.6,0.2-0.8c-0.1-0.3-0.4-0.7-0.8-1.2c-0.1-0.1-0.1-0.2-0.1-0.3s0.1-0.2,0.1-0.3
		c0.1-0.1,0.2-0.2,0.3-0.3c0.3,0.3,0.5,0.5,0.7,0.7s0.4,0.4,0.6,0.5c0.2,0.2,0.3,0.3,0.5,0.5s0.4,0.3,0.6,0.5l4.1,3.4
		c1.1,0.9,1.9,1.9,2.5,3c0.5,1.1,0.8,2.2,0.8,3.3s-0.2,2.2-0.6,3.3C66.5,232.8,65.9,233.8,65.1,234.7z M62.7,233.4
		c1.9-2.2,2.7-4.2,2.6-6.2c-0.1-1.9-1.1-3.7-3.1-5.3l-1.7-1.5l-9.6,11.4c-0.1,0.1-0.2,0.3-0.2,0.4c0,0.2,0,0.3,0.1,0.5
		s0.3,0.4,0.5,0.7c0.3,0.3,0.6,0.6,1,0.9c1,0.9,2,1.5,2.9,1.8s1.8,0.4,2.7,0.3c0.9-0.1,1.7-0.4,2.5-1
		C61.2,235,61.9,234.3,62.7,233.4z"/>
	<path class="st0" d="M72,240.3l-1.6-1l-3.3,5.2c-0.2,0.3-0.2,0.7,0,1s0.6,0.7,1.2,1.2c0.2,0.1,0.2,0.3,0,0.6
		c-0.1,0.1-0.2,0.2-0.3,0.4c-0.4-0.3-0.8-0.6-1.4-1c-0.5-0.4-1.1-0.7-1.6-1.1c-0.4-0.2-0.8-0.5-1.3-0.8c-0.5-0.3-1-0.6-1.5-0.8
		c0.1-0.2,0.1-0.3,0.2-0.4c0.1-0.2,0.3-0.3,0.5-0.2c0.6,0.3,1.1,0.4,1.4,0.4s0.6-0.1,0.8-0.5l7.6-12c0.2-0.3,0.2-0.6,0.1-0.9
		c-0.1-0.3-0.5-0.7-1-1.1c-0.1-0.1-0.1-0.3,0-0.5c0.1-0.1,0.2-0.2,0.3-0.4c0.4,0.3,0.9,0.6,1.3,0.9c0.5,0.3,0.9,0.6,1.3,0.9l3,1.9
		c1.6,1,2.5,2.1,2.9,3.4c0.3,1.3,0.1,2.5-0.7,3.8c-0.2,0.3-0.5,0.7-0.9,1c-0.3,0.3-0.8,0.6-1.2,0.8c-0.5,0.2-1,0.4-1.5,0.4
		c-0.6,0.1-1.1,0.1-1.7-0.1l0.2,7.8c0,0.6,0.1,1.1,0.4,1.4c0.2,0.4,0.5,0.7,0.7,0.9c0.1,0.1,0.1,0.3,0,0.5c-0.1,0.1-0.2,0.3-0.3,0.4
		c-0.3-0.2-0.7-0.5-1.2-0.9c-0.5-0.3-0.9-0.6-1.3-0.9c-0.3-0.2-0.5-0.5-0.7-1c-0.1-0.5-0.2-1-0.2-1.6L72,240.3z M72.2,239.1
		c1,0.6,2,0.9,2.8,0.8c0.8-0.1,1.6-0.8,2.4-1.9c0.3-0.5,0.5-1,0.7-1.5c0.1-0.5,0.2-1,0.1-1.4c-0.1-0.5-0.3-0.9-0.6-1.3
		c-0.3-0.4-0.8-0.8-1.4-1.2l-1.1-0.7l-4.1,6.5L72.2,239.1z"/>
	<path class="st0" d="M80.7,244.7c0.5-1.2,1.2-2.2,2.1-3c0.9-0.9,1.8-1.5,2.8-2s2.1-0.7,3.2-0.8c1.1,0,2.2,0.2,3.1,0.6
		c1.4,0.6,2.5,1.4,3.3,2.3c0.8,0.9,1.4,1.9,1.7,3c0.3,1.1,0.4,2.2,0.2,3.4c-0.1,1.2-0.5,2.3-1,3.5c-0.6,1.3-1.4,2.4-2.3,3.3
		c-0.9,0.9-1.9,1.5-2.9,1.9c-1.1,0.4-2.1,0.6-3.3,0.5c-1.1-0.1-2.3-0.3-3.4-0.8s-2-1.2-2.8-2c-0.7-0.8-1.3-1.8-1.6-2.8
		c-0.3-1.1-0.4-2.2-0.3-3.4C79.7,247.2,80.1,245.9,80.7,244.7z M85.4,255.7c0.7,0.3,1.5,0.5,2.2,0.5c0.8,0,1.5-0.2,2.2-0.5
		c0.7-0.3,1.3-0.8,1.9-1.5c0.6-0.6,1.1-1.4,1.5-2.3c0.6-1.2,1-2.4,1.2-3.6c0.2-1.1,0.3-2.2,0.2-3.2c-0.1-1-0.5-1.9-1-2.6
		c-0.5-0.8-1.3-1.4-2.3-1.8c-0.6-0.3-1.3-0.4-2-0.5c-0.7,0-1.4,0.1-2.1,0.4c-0.7,0.3-1.3,0.7-1.9,1.4c-0.6,0.6-1.1,1.4-1.6,2.3
		c-0.6,1.3-1,2.5-1.2,3.7s-0.3,2.3-0.2,3.3c0.1,1,0.4,1.9,0.9,2.7C83.8,254.7,84.5,255.3,85.4,255.7z"/>
	<path class="st0" d="M112.2,258.9c-0.3,1-0.7,1.9-1.1,2.7c-0.5,0.8-1,1.4-1.7,1.9s-1.5,0.7-2.4,0.8c-0.9,0.1-2,0-3.3-0.4
		c-1.4-0.4-2.5-0.9-3.3-1.6c-0.8-0.6-1.3-1.3-1.6-2.1c-0.3-0.8-0.4-1.6-0.3-2.4c0.1-0.9,0.2-1.7,0.5-2.6l2.6-9.1
		c0.1-0.4,0.1-0.7-0.1-0.9s-0.6-0.5-1.2-0.8c-0.2-0.1-0.2-0.2-0.1-0.5c0-0.1,0.1-0.2,0.2-0.4c0.5,0.2,1,0.4,1.5,0.5
		c0.5,0.2,1,0.3,1.5,0.5c0.4,0.1,0.9,0.3,1.5,0.4c0.6,0.1,1.1,0.3,1.6,0.4c0,0.2,0,0.3-0.1,0.4c-0.1,0.3-0.2,0.4-0.4,0.4
		c-0.7-0.1-1.1-0.1-1.5,0c-0.3,0.1-0.5,0.3-0.6,0.7l-2.4,8.5c-0.5,1.9-0.6,3.4-0.2,4.6s1.4,2,3.1,2.5c0.9,0.3,1.8,0.4,2.5,0.3
		c0.7,0,1.3-0.2,1.9-0.6c0.5-0.3,1-0.9,1.4-1.6s0.7-1.6,1-2.6l2.4-8.5c0.1-0.4,0.1-0.7-0.2-0.9c-0.2-0.2-0.6-0.5-1.2-0.8
		c-0.2-0.1-0.2-0.2-0.1-0.5c0-0.1,0.1-0.2,0.2-0.4c0.5,0.2,0.9,0.3,1.4,0.5c0.4,0.2,0.8,0.3,1.2,0.4c0.4,0.1,0.8,0.2,1.2,0.3
		c0.4,0.1,0.8,0.2,1.2,0.2c0,0.2,0,0.3-0.1,0.4c0,0.1-0.1,0.2-0.2,0.3s-0.2,0.1-0.2,0.1c-0.6-0.1-1.1-0.1-1.4,0s-0.5,0.3-0.6,0.7
		L112.2,258.9z"/>
	<path class="st0" d="M134,259.6c-0.1,1.1-0.4,2.2-0.9,3.2s-1.1,1.9-1.9,2.7c-0.8,0.8-1.8,1.4-2.9,1.8c-1.2,0.4-2.5,0.5-3.9,0.3
		L119,267c-0.4-0.1-1-0.1-1.5-0.1c-0.6,0-1.1-0.1-1.7-0.1c0-0.2,0-0.3,0-0.5c0-0.3,0.1-0.4,0.3-0.4c0.7-0.1,1.1-0.2,1.4-0.3
		c0.3-0.1,0.5-0.3,0.5-0.7l1.7-14.1c0-0.4-0.1-0.6-0.3-0.8s-0.7-0.4-1.3-0.6c-0.1,0-0.2-0.1-0.2-0.2c0-0.1,0-0.2,0-0.3
		s0-0.3,0.1-0.4c0.4,0.1,0.7,0.1,0.9,0.2c0.3,0,0.5,0.1,0.8,0.1c0.2,0,0.5,0.1,0.7,0.1s0.5,0.1,0.7,0.1l5.3,0.6
		c1.4,0.2,2.7,0.6,3.7,1.2c1,0.6,1.9,1.4,2.5,2.3c0.6,0.9,1.1,1.9,1.3,3S134.2,258.4,134,259.6z M131.3,259.8c0.3-2.8-0.1-5-1.2-6.6
		c-1.1-1.5-3-2.4-5.5-2.7l-2.2-0.3l-1.7,14.8c0,0.2,0,0.3,0.1,0.5c0.1,0.1,0.2,0.3,0.4,0.4c0.2,0.1,0.5,0.2,0.8,0.3
		c0.4,0.1,0.8,0.2,1.4,0.2c1.3,0.2,2.5,0.1,3.4-0.1s1.7-0.6,2.4-1.2c0.6-0.6,1.1-1.3,1.5-2.2C130.9,262,131.1,261,131.3,259.8z"/>
	<path class="st0" d="M151.2,268.4c-1.4,0.1-2.7,0-3.9-0.4c-1.1-0.4-2.1-1-2.8-1.8c-0.8-0.8-1.4-1.7-1.8-2.9
		c-0.4-1.1-0.7-2.3-0.8-3.7c-0.1-1.1,0-2.2,0.3-3.4c0.3-1.1,0.7-2.2,1.4-3.1c0.6-1,1.5-1.8,2.5-2.4c1-0.6,2.3-1,3.7-1.1
		c0.6,0,1.1-0.1,1.6-0.1s0.9,0,1.4,0c0.4,0,0.9,0.1,1.3,0.2c0.4,0.1,0.9,0.2,1.3,0.3c0.1,0.5,0.2,1.1,0.3,1.8s0.4,1.4,0.6,2.2
		c-0.1,0.1-0.3,0.1-0.4,0.1c-0.1,0-0.3,0-0.4,0c-0.1,0-0.2-0.1-0.2-0.3c-0.4-1.2-1-2-1.7-2.5s-1.7-0.7-3-0.6c-1.1,0.1-2,0.3-2.8,0.8
		c-0.8,0.4-1.4,1-2,1.7c-0.5,0.7-0.9,1.5-1.1,2.5c-0.2,1-0.3,2-0.2,3.2c0.1,1.3,0.4,2.4,0.8,3.5c0.4,1.1,1,1.9,1.7,2.7
		c0.7,0.7,1.4,1.3,2.3,1.6c0.9,0.4,1.7,0.5,2.7,0.4c0.7-0.1,1.4-0.2,1.9-0.4c0.5-0.2,0.9-0.5,1.2-0.8s0.6-0.7,0.8-1.2s0.4-1,0.5-1.5
		c0.1-0.3,0.3-0.4,0.6-0.5c0.1,0,0.2,0,0.3,0s0.2,0,0.2,0.1c-0.2,0.7-0.3,1.4-0.5,2.2c-0.1,0.8-0.3,1.6-0.3,2.4
		c-0.8,0.2-1.7,0.4-2.6,0.5C153.2,268.2,152.2,268.3,151.2,268.4z"/>
	<path class="st0" d="M175.4,261.9c0.1,0.4,0.2,0.6,0.5,0.7c0.2,0.1,0.7,0.1,1.4,0.1c0.2,0,0.3,0.1,0.3,0.3c0,0.1,0.1,0.3,0.1,0.5
		c-0.4,0.1-0.9,0.1-1.5,0.2s-1.1,0.2-1.5,0.3c-0.5,0.1-1,0.2-1.5,0.4c-0.5,0.1-1,0.3-1.5,0.4c-0.1-0.2-0.1-0.3-0.2-0.5
		c0-0.2,0-0.4,0.2-0.4c0.6-0.3,1-0.5,1.2-0.7s0.3-0.5,0.2-0.8l-1.5-6.6l-7.9,1.8l1.5,6.6c0.1,0.4,0.2,0.6,0.5,0.7
		c0.2,0.1,0.7,0.1,1.4,0.1c0.2,0,0.3,0.1,0.4,0.3c0,0.1,0.1,0.3,0.1,0.5c-0.4,0.1-1,0.1-1.5,0.2c-0.6,0.1-1.1,0.2-1.6,0.3
		c-0.5,0.1-1,0.2-1.5,0.4c-0.5,0.1-1,0.3-1.5,0.5c-0.1-0.2-0.1-0.3-0.2-0.5c0-0.2,0-0.4,0.2-0.4c0.6-0.3,1-0.5,1.2-0.7
		s0.3-0.5,0.2-0.8l-3.1-13.8c0-0.2-0.1-0.3-0.2-0.4c-0.1-0.1-0.2-0.2-0.3-0.3s-0.3-0.1-0.5-0.1s-0.5,0-0.9,0c-0.2,0-0.3-0.1-0.4-0.4
		c0-0.1,0-0.3-0.1-0.5c0.4-0.1,0.9-0.1,1.5-0.2c0.6-0.1,1.1-0.2,1.5-0.3c0.5-0.1,1-0.2,1.5-0.4c0.5-0.1,1-0.3,1.5-0.4
		c0.1,0.2,0.1,0.3,0.2,0.5c0.1,0.3,0,0.4-0.2,0.5c-0.6,0.3-1,0.5-1.2,0.7s-0.2,0.5-0.1,0.9l1.4,6.1l7.9-1.8l-1.4-6.1
		c-0.1-0.3-0.2-0.5-0.5-0.7c-0.2-0.1-0.7-0.2-1.4-0.2c-0.2,0-0.3-0.1-0.4-0.4c0-0.1,0-0.3-0.1-0.5c0.4-0.1,0.9-0.1,1.5-0.2
		c0.6-0.1,1.1-0.2,1.5-0.3c0.5-0.1,1-0.2,1.5-0.4c0.5-0.1,1-0.3,1.5-0.4c0.1,0.2,0.1,0.3,0.2,0.5c0.1,0.3,0,0.4-0.2,0.5
		c-0.6,0.3-1,0.5-1.2,0.7s-0.2,0.5-0.1,0.9L175.4,261.9z"/>
	<path class="st0" d="M188.2,252.4l-5.4,2.1l0.1,4.8c0,0.2,0,0.4,0.1,0.6c0.1,0.4,0.7,0.4,1.8,0.2c0.1,0,0.2,0,0.3,0.1
		s0.1,0.1,0.2,0.2c0,0.1,0.1,0.2,0.1,0.4c-0.4,0.1-0.9,0.3-1.4,0.4c-0.5,0.2-1,0.3-1.4,0.5c-0.3,0.1-0.6,0.3-1,0.4
		c-0.3,0.1-0.7,0.3-1,0.5c-0.1-0.1-0.2-0.3-0.2-0.4s-0.1-0.2-0.1-0.3c0-0.1,0.1-0.2,0.2-0.3c0.5-0.3,0.8-0.5,1-0.8
		c0.2-0.2,0.3-0.5,0.3-0.8l-0.1-17.4c0-0.3,0.1-0.5,0.3-0.6c0.1,0,0.2,0,0.3-0.1l11.9,13.3c0.2,0.2,0.5,0.3,0.9,0.3s0.8,0,1.1-0.1
		c0.1,0,0.2,0,0.3,0.1c0.1,0,0.2,0.1,0.2,0.3c0,0.1,0.1,0.2,0.1,0.4c-0.5,0.2-1,0.3-1.6,0.5c-0.5,0.2-1,0.3-1.4,0.5
		c-0.5,0.2-1,0.4-1.5,0.6c-0.6,0.3-1.1,0.5-1.5,0.7c-0.1-0.2-0.2-0.3-0.2-0.4c-0.1-0.2-0.1-0.3,0-0.4c0-0.1,0.1-0.1,0.1-0.2
		c0.4-0.3,0.7-0.5,0.9-0.7s0.3-0.4,0.2-0.7c0-0.1-0.1-0.2-0.2-0.4L188.2,252.4z M187.4,251.4l-4.7-5.5l0.2,7.3L187.4,251.4z"/>
	<path class="st0" d="M200.6,244.7l-1.7,0.9l3,5.4c0.2,0.4,0.5,0.5,0.9,0.5s0.9-0.2,1.6-0.5c0.2-0.1,0.4,0,0.5,0.3
		c0.1,0.1,0.1,0.3,0.2,0.4c-0.4,0.2-0.9,0.4-1.5,0.7s-1.2,0.6-1.7,0.9c-0.4,0.2-0.8,0.5-1.3,0.8s-1,0.6-1.4,0.9
		c-0.1-0.1-0.2-0.3-0.3-0.4c-0.1-0.2-0.1-0.4,0-0.5c0.5-0.4,0.9-0.8,1-1c0.2-0.3,0.1-0.6,0-0.9l-6.9-12.4c-0.2-0.3-0.4-0.5-0.7-0.5
		s-0.8,0.1-1.5,0.4c-0.2,0.1-0.3,0-0.5-0.3c-0.1-0.1-0.1-0.2-0.2-0.4c0.5-0.2,1-0.5,1.4-0.7c0.5-0.2,1-0.5,1.4-0.7l3.1-1.7
		c1.6-0.9,3.1-1.2,4.3-0.9c1.3,0.3,2.3,1.1,3,2.4c0.2,0.4,0.4,0.8,0.5,1.2c0.1,0.5,0.1,0.9,0.1,1.4s-0.1,1-0.3,1.5s-0.5,1-0.9,1.5
		l6.9,3.5c0.5,0.3,1,0.4,1.4,0.3c0.4,0,0.8-0.1,1.2-0.2c0.2,0,0.3,0,0.4,0.2c0.1,0.1,0.1,0.3,0.2,0.5c-0.4,0.2-0.8,0.4-1.3,0.6
		c-0.5,0.3-1,0.5-1.4,0.7c-0.3,0.2-0.7,0.2-1.2,0.1c-0.5-0.1-1-0.3-1.5-0.6L200.6,244.7z M199.6,243.9c1.1-0.6,1.7-1.3,2-2.1
		s0.1-1.8-0.6-3c-0.3-0.5-0.6-0.9-1-1.3c-0.4-0.4-0.8-0.6-1.2-0.8s-0.9-0.2-1.4-0.1c-0.5,0.1-1.1,0.3-1.7,0.6l-1.1,0.6l3.8,6.7
		L199.6,243.9z"/>
	<path class="st0" d="M216.8,241.9c0.2,0.3,0.5,0.4,0.7,0.4c0.3,0,0.7-0.2,1.4-0.4c0.2-0.1,0.3,0,0.5,0.2c0.1,0.1,0.1,0.2,0.2,0.4
		c-0.5,0.3-0.9,0.6-1.4,0.8c-0.5,0.3-0.9,0.6-1.3,0.8c-0.4,0.3-0.8,0.6-1.2,0.9c-0.4,0.3-0.9,0.7-1.3,1c-0.1-0.1-0.2-0.2-0.3-0.3
		c-0.1-0.2-0.2-0.4,0-0.5c0.5-0.5,0.8-0.9,0.9-1.1c0.1-0.3,0.1-0.5-0.1-0.8l-8.1-11.7c-0.2-0.3-0.5-0.5-0.8-0.4
		c-0.3,0-0.7,0.2-1.3,0.4c-0.1,0-0.2,0-0.3,0c-0.1-0.1-0.2-0.1-0.2-0.2c-0.1-0.1-0.1-0.2-0.2-0.4c0.4-0.3,0.9-0.5,1.4-0.8
		s0.9-0.6,1.3-0.8c0.4-0.2,0.8-0.5,1.2-0.9c0.4-0.3,0.9-0.7,1.3-1c0.1,0.1,0.2,0.2,0.3,0.3c0.2,0.2,0.2,0.4,0.1,0.5
		c-0.5,0.5-0.8,0.8-0.9,1.1c-0.1,0.3-0.1,0.6,0.2,0.9L216.8,241.9z"/>
	<path class="st0" d="M225.5,229l-4.4,3.8l1.7,4.5c0.1,0.2,0.2,0.4,0.3,0.5c0.3,0.3,0.8,0.2,1.7-0.4c0.1-0.1,0.2-0.1,0.3,0
		c0.1,0,0.2,0.1,0.2,0.2c0.1,0.1,0.2,0.2,0.3,0.4c-0.4,0.3-0.8,0.6-1.2,0.9c-0.4,0.3-0.8,0.6-1.2,1c-0.3,0.2-0.5,0.5-0.8,0.7
		s-0.5,0.5-0.8,0.8c-0.1-0.1-0.2-0.2-0.3-0.3s-0.1-0.2-0.2-0.3c0-0.1,0-0.2,0.1-0.3c0.3-0.4,0.6-0.8,0.7-1c0.1-0.3,0.1-0.6,0-0.9
		l-5.8-16.4c-0.1-0.3-0.1-0.5,0.1-0.7c0.1,0,0.1-0.1,0.3-0.2l15.6,8.6c0.2,0.1,0.6,0.1,0.9,0c0.4-0.1,0.7-0.3,1-0.5
		c0.1,0,0.2-0.1,0.3,0c0.1,0,0.2,0.1,0.3,0.2c0.1,0.1,0.2,0.2,0.3,0.4c-0.4,0.3-0.9,0.7-1.3,1c-0.4,0.3-0.8,0.6-1.2,0.9
		c-0.4,0.3-0.8,0.7-1.2,1.1c-0.5,0.4-0.9,0.8-1.2,1.2c-0.1-0.1-0.3-0.2-0.3-0.3c-0.1-0.1-0.2-0.2-0.2-0.3s0-0.2,0.1-0.2
		c0.3-0.4,0.5-0.7,0.6-1s0.1-0.5,0-0.7c-0.1-0.1-0.2-0.2-0.4-0.3L225.5,229z M224.4,228.4l-6.3-3.6l2.5,6.8L224.4,228.4z"/>
</g>
</svg>
