<svg xmlns="http://www.w3.org/2000/svg" id="burgCOA19" width="500" height="500" viewBox="0 0 200 200">
        <defs><clipPath id="pavise_burgCOA19"><path d="M95 7L39.9 37.3a10 10 0 00-5.1 9.5L46 180c.4 5.2 3.7 10 9 10h90c5.3 0 9.6-4.8 10-10l10.6-133.2a10 10 0 00-5-9.5L105 7c-4.2-2.3-6.2-2.3-10 0z"/></clipPath><g id="trefle_burgCOA19"><path stroke-width=".5" d="M100 70c-7.8 0-14.1 6.4-14.1 14.3 0 5.6 3.2 10.5 7.9 12.8 1.4.7-.1 2.5-1.2 1.3-2.6-3-6.4-4.8-10.6-4.8-7.8 0-14.1 6.4-14.1 14.3s6.3 14.3 14.1 14.3c7.7 0 14.1-6.3 14.1-14.1 0-1.4 2.1-1.5 2.1.3 0 2.9-2.8 18.5-4.3 21.5 3.96-.86 8.16-1.15 12 0-1.5-3-4.3-18.6-4.3-21.5 0-1.9 2.1-1.7 2.1-.3.1 7.8 6.4 14.1 14.1 14.1 7.8 0 14.1-6.4 14.1-14.3s-6.3-14.3-14.1-14.3c-4.2 0-8 1.9-10.6 4.8-1 1.2-2.6-.6-1.2-1.3 4.7-2.3 7.9-7.2 7.9-12.8.2-7.9-6.1-14.3-13.9-14.3z"/></g><radialGradient id="backlight_burgCOA19" cx="100%" cy="100%" r="150%"><stop stop-color="#fff" stop-opacity=".3" offset="0"/><stop stop-color="#fff" stop-opacity=".15" offset=".25"/><stop stop-color="#000" stop-opacity="0" offset="1"/></radialGradient></defs>
        <g clip-path="url(#pavise_burgCOA19)"><rect x="0" y="0" width="200" height="200" fill="#522d5b"/><g fill="#ffe066" stroke="none"><path d="m 200,115 v -15 c -8.9,3.5 -16,3.1 -25,0 -8.9,-3.5 -16,-3.1 -25,0 -8.9,3.5 -16,3.2 -25,0 -8.9,-3.5 -16,-3.2 -25,0 -8.9,3.5 -16,3.1 -25,0 -8.9,-3.5 -16,-3.1 -25,0 -8.9,3.5 -16,3.2 -25,0 -8.9,-3.5 -16,-3.2 -25,0 v 15 z" transform="translate(8 -18) rotate(45 110 100) scale(1.1 1)"/><path d="m 200,115 v -15 c -8.9,3.5 -16,3.1 -25,0 -8.9,-3.5 -16,-3.1 -25,0 -8.9,3.5 -16,3.2 -25,0 -8.9,-3.5 -16,-3.2 -25,0 -8.9,3.5 -16,3.1 -25,0 -8.9,-3.5 -16,-3.1 -25,0 -8.9,3.5 -16,3.2 -25,0 -8.9,-3.5 -16,-3.2 -25,0 v 15 z" transform="translate(-28 18) rotate(225 110 100) scale(1.1 1)"/><rect x="0" y="88" width="200" height="24" transform="translate(-10 0) rotate(45 110 100) scale(1.1 1)" stroke="none"/></g><g fill="#ffe066" stroke="#000"><use href="#trefle_burgCOA19" transform="translate(95 2.500000000000007) scale(0.45)"/><use href="#trefle_burgCOA19" transform="translate(15.000000000000007 107.5) scale(0.45)"/></g></g>
        <path d="M95 7L39.9 37.3a10 10 0 00-5.1 9.5L46 180c.4 5.2 3.7 10 9 10h90c5.3 0 9.6-4.8 10-10l10.6-133.2a10 10 0 00-5-9.5L105 7c-4.2-2.3-6.2-2.3-10 0z" fill="url(#backlight_burgCOA19)" stroke="#333"/></svg>