<svg xmlns="http://www.w3.org/2000/svg" id="burgCOA194" width="500" height="500" viewBox="0 0 200 200">
        <defs><clipPath id="pavise_burgCOA194"><path d="M95 7L39.9 37.3a10 10 0 00-5.1 9.5L46 180c.4 5.2 3.7 10 9 10h90c5.3 0 9.6-4.8 10-10l10.6-133.2a10 10 0 00-5-9.5L105 7c-4.2-2.3-6.2-2.3-10 0z"/></clipPath><clipPath id="divisionClip_burgCOA194"><polygon points="0,0 0,200 200,0 200,200"/></clipPath><pattern id="vairEnPointe-azure-argent" width="0.125" height="0.25" viewBox="0 0 25 50"><rect width="25" height="25" fill="#fafafa"/><path d="m12.5,0 l6.25,6.25 v12.5 l6.25,6.25 h-25 l6.25,-6.25 v-12.5 z" fill="#377cd7"/><rect x="0" y="25" width="25" height="25" fill="#377cd7" stroke-width="1" stroke="#377cd7"/><path d="m12.5,25 l6.25,6.25 v12.5 l6.25,6.25 h-25 l6.25,-6.25 v-12.5 z" fill="#fafafa"/></pattern><radialGradient id="backlight_burgCOA194" cx="100%" cy="100%" r="150%"><stop stop-color="#fff" stop-opacity=".3" offset="0"/><stop stop-color="#fff" stop-opacity=".15" offset=".25"/><stop stop-color="#000" stop-opacity="0" offset="1"/></radialGradient></defs>
        <g clip-path="url(#pavise_burgCOA194)"><rect x="0" y="0" width="200" height="200" fill="url(#vairEnPointe-azure-argent)"/><g clip-path="url(#divisionClip_burgCOA194)"><rect x="0" y="0" width="200" height="200" fill="#ffe066"/></g><g fill="#333333" stroke="none"><path d="M95 7L39.9 37.3a10 10 0 00-5.1 9.5L46 180c.4 5.2 3.7 10 9 10h90c5.3 0 9.6-4.8 10-10l10.6-133.2a10 10 0 00-5-9.5L105 7c-4.2-2.3-6.2-2.3-10 0z" fill="none" stroke="#333333" stroke-width="16.7%"/></g></g>
        <path d="M95 7L39.9 37.3a10 10 0 00-5.1 9.5L46 180c.4 5.2 3.7 10 9 10h90c5.3 0 9.6-4.8 10-10l10.6-133.2a10 10 0 00-5-9.5L105 7c-4.2-2.3-6.2-2.3-10 0z" fill="url(#backlight_burgCOA194)" stroke="#333"/></svg>