<svg xmlns="http://www.w3.org/2000/svg" id="burgCOA321" width="500" height="500" viewBox="0 5 200 200">
        <defs><clipPath id="gondor_burgCOA321"><path d="m 100,200 c 15,-15 38,-35 45,-60 h 5 V 30 h -5 C 133,10 67,10 55,30 h -5 v 110 h 5 c 7,25 30,45 45,60 z"/></clipPath><clipPath id="divisionClip_burgCOA321"><rect x="100" y="0" width="100" height="200"/></clipPath><radialGradient id="backlight_burgCOA321" cx="100%" cy="100%" r="150%"><stop stop-color="#fff" stop-opacity=".3" offset="0"/><stop stop-color="#fff" stop-opacity=".15" offset=".25"/><stop stop-color="#000" stop-opacity="0" offset="1"/></radialGradient></defs>
        <g clip-path="url(#gondor_burgCOA321)"><rect x="0" y="0" width="200" height="200" fill="#fafafa"/><g clip-path="url(#divisionClip_burgCOA321)"><rect x="0" y="0" width="200" height="200" fill="#d7374a"/></g></g>
        <path d="m 100,200 c 15,-15 38,-35 45,-60 h 5 V 30 h -5 C 133,10 67,10 55,30 h -5 v 110 h 5 c 7,25 30,45 45,60 z" fill="url(#backlight_burgCOA321)" stroke="#333"/></svg>