<svg xmlns="http://www.w3.org/2000/svg" id="burgCOA282" width="500" height="500" viewBox="0 5 200 200">
        <defs><clipPath id="gondor_burgCOA282"><path d="m 100,200 c 15,-15 38,-35 45,-60 h 5 V 30 h -5 C 133,10 67,10 55,30 h -5 v 110 h 5 c 7,25 30,45 45,60 z"/></clipPath><g id="crossClechy_burgCOA282" stroke-width=".5"><path d="M 96.9,103.1 C 97,112 92,122 87,127 c 5.2,2.3 11,8 13,15 2,-7 7.8,-12.7 13,-15 -5,-5 -10,-15 -9.9,-23.9 8.9,-0.1 19.9,4.9 24.9,9.9 2,-5 8,-11 15,-13 -7,-2 -13,-8 -15,-13 -5,5 -16,10 -24.9,9.9 C 103,88 108,78 113,73 108,71 102,65 100,58 98,65 92,71 87,73 92,78 97,88 96.9,96.9 88,97 78,92 73,87 c -2,5 -8,11 -15,13 7,2 13,8 15,13 7,-5 15,-10 23.9,-9.9 z"/></g><radialGradient id="backlight_burgCOA282" cx="100%" cy="100%" r="150%"><stop stop-color="#fff" stop-opacity=".3" offset="0"/><stop stop-color="#fff" stop-opacity=".15" offset=".25"/><stop stop-color="#000" stop-opacity="0" offset="1"/></radialGradient></defs>
        <g clip-path="url(#gondor_burgCOA282)"><rect x="0" y="0" width="200" height="200" fill="#26c061"/><g fill="#fafafa" stroke="none"><polygon points="0,165 165,0 200,0 200,35 35,200 0,200"/></g><g fill="#fafafa" stroke="#000"><use href="#crossClechy_burgCOA282" transform="translate(30 12.5) scale(0.375)"/><use href="#crossClechy_burgCOA282" transform="translate(95 112.5) scale(0.375)"/></g></g>
        <path d="m 100,200 c 15,-15 38,-35 45,-60 h 5 V 30 h -5 C 133,10 67,10 55,30 h -5 v 110 h 5 c 7,25 30,45 45,60 z" fill="url(#backlight_burgCOA282)" stroke="#333"/></svg>